<svg width="43" height="36" viewBox="0 0 43 36" fill="none" xmlns="http://www.w3.org/2000/svg">
<path d="M42.0111 31.8769C42.005 33.6168 40.5896 35.0222 38.8498 35.0161L3.97703 34.8936C2.23721 34.8875 0.831752 33.4721 0.837863 31.7323C0.843973 29.9925 2.25933 28.587 3.99916 28.5932L38.8719 28.7156C40.6117 28.7217 42.0172 30.1371 42.0111 31.8769Z" fill="white"/>
<path d="M20.1949 10.6305C20.2156 5.16083 15.4528 0.710989 9.55718 0.691779L5.45906 0.678426C3.81786 0.673078 2.48237 1.9992 2.47616 3.6404C2.46994 5.2816 3.79536 6.61639 5.43656 6.62174L9.53469 6.63509C11.8919 6.64277 13.7971 8.4227 13.7888 10.6097C13.7805 12.7966 11.862 14.5641 9.5047 14.5564L5.40657 14.5431C3.76537 14.5377 2.42988 15.8638 2.42367 17.505C2.41746 19.1462 3.74287 20.481 5.38407 20.4864L9.4822 20.4997C15.3778 20.5236 20.1742 16.1002 20.1949 10.6305Z" fill="#FCFCFC"/>
<path d="M24.2152 10.631C24.1945 5.16132 28.9577 0.711477 34.8537 0.692267L38.9524 0.678913C40.5936 0.673566 41.9291 1.99969 41.9353 3.64089C41.9415 5.28209 40.6161 6.61688 38.9749 6.62222L34.8762 6.63558C32.5188 6.64326 30.6136 8.42319 30.6218 10.6101C30.6301 12.7971 32.5488 14.5646 34.9062 14.5569L39.0049 14.5435C40.6461 14.5382 41.9816 15.8643 41.9878 17.5055C41.994 19.1467 40.6686 20.4815 39.0274 20.4868L34.9287 20.5002C29.0327 20.5241 24.2359 16.1007 24.2152 10.631Z" fill="#FCFCFC"/>
</svg>
