<svg width="85" height="85" viewBox="0 0 85 85" fill="none" xmlns="http://www.w3.org/2000/svg">
<g clip-path="url(#clip0_303_2781)">
<path d="M15.0521 6.85113e-06H69.9479C71.9251 -0.00190445 73.8833 0.396108 75.7103 1.17126C77.5373 1.94642 79.1974 3.0835 80.5955 4.51744C81.9936 5.95137 83.1022 7.65401 83.858 9.5279C84.6138 11.4018 85.0019 13.4102 85 15.438V69.562C85.0019 71.5899 84.6138 73.5982 83.858 75.4721C83.1022 77.346 81.9936 79.0486 80.5955 80.4826C79.1974 81.9165 77.5373 83.0536 75.7103 83.8287C73.8833 84.6039 71.9251 85.0019 69.9479 85H15.0521C13.0749 85.0019 11.1167 84.6039 9.2897 83.8287C7.46266 83.0536 5.80259 81.9165 4.4045 80.4826C3.00642 79.0486 1.89776 77.346 1.14198 75.4721C0.386205 73.5982 -0.00185684 71.5899 6.67985e-06 69.562V15.438C-0.00185684 13.4102 0.386205 11.4018 1.14198 9.5279C1.89776 7.65401 3.00642 5.95137 4.4045 4.51744C5.80259 3.0835 7.46266 1.94642 9.2897 1.17126C11.1167 0.396108 13.0749 -0.00190445 15.0521 6.85113e-06Z" fill="#F0F0F0"/>
<path d="M42.5054 75.4337L23.3858 70.1259L19.125 22.337H65.943L61.6778 70.1185L42.5054 75.4337Z" fill="#264DE4"/>
<path d="M58.0255 67.0759L61.6702 26.2444H42.5332V71.3709L58.0255 67.0759Z" fill="#2965F1"/>
<path d="M28.8935 43.9687L29.4187 49.8298H42.5348V43.9687H28.8935ZM27.8379 32.1057L28.3707 37.9668H42.5348V32.1057H27.8379ZM42.5348 59.1906L42.5091 59.1974L35.9816 57.4349L35.5643 52.7604H29.6806L30.5017 61.9632L42.5078 65.296L42.5348 65.2887V59.1906Z" fill="#EBEBEB"/>
<path d="M30.1426 9.35001H37.2412V12.3186H33.1112V15.2873H37.2415V18.2557H30.1426V9.35001ZM38.6611 9.35001H45.7598V11.9314H41.6297V12.4477H45.7598V18.3849H38.6612V15.6741H42.7914V15.1579H38.6609V9.35001H38.6611ZM47.1797 9.35001H54.2785V11.9314H50.1484V12.4477H54.2785V18.3849H47.1797V15.6741H51.3099V15.1579H47.1799V9.35001H47.1797Z" fill="black"/>
<path d="M56.1379 43.9686L57.1959 32.1057H42.5139V37.9668H50.7727L50.2393 43.9686H42.5139V49.8297H49.7312L49.0507 57.4312L42.5137 59.1956V65.2932L54.5293 61.9632L54.6174 60.9729L55.9949 45.5425L56.1379 43.9686Z" fill="white"/>
</g>
<defs>
<clipPath id="clip0_303_2781">
<rect width="85" height="85" fill="white"/>
</clipPath>
</defs>
</svg>
