<svg width="85" height="85" viewBox="0 0 85 85" fill="none" xmlns="http://www.w3.org/2000/svg">
<g clip-path="url(#clip0_303_2803)">
<path d="M15.0521 -8.40766e-06H69.9479C71.9251 -0.00191971 73.8833 0.396092 75.7103 1.17125C77.5373 1.94641 79.1974 3.08349 80.5955 4.51742C81.9936 5.95136 83.1022 7.65399 83.858 9.52788C84.6138 11.4018 85.0019 13.4101 85 15.438V69.5619C85.0019 71.5898 84.6138 73.5982 83.858 75.4721C83.1022 77.346 81.9936 79.0486 80.5955 80.4825C79.1974 81.9165 77.5373 83.0536 75.7103 83.8287C73.8833 84.6039 71.9251 85.0019 69.9479 85H15.0521C13.0749 85.0019 11.1167 84.6039 9.2897 83.8287C7.46266 83.0536 5.80259 81.9165 4.4045 80.4825C3.00642 79.0486 1.89776 77.346 1.14198 75.4721C0.386205 73.5982 -0.00185684 71.5898 6.67985e-06 69.5619V15.438C-0.00185684 13.4101 0.386205 11.4018 1.14198 9.52788C1.89776 7.65399 3.00642 5.95136 4.4045 4.51742C5.80259 3.08349 7.46266 1.94641 9.2897 1.17125C11.1167 0.396092 13.0749 -0.00191971 15.0521 -8.40766e-06Z" fill="#000B1D"/>
<path d="M12.7568 37.2059C12.6211 37.2059 12.5872 37.138 12.655 37.0363L13.3673 36.1205C13.4351 36.0187 13.6047 35.9509 13.7404 35.9509H25.8495C25.9852 35.9509 26.0191 36.0526 25.9513 36.1544L25.3746 37.0363C25.3068 37.138 25.1372 37.2398 25.0354 37.2398L12.7568 37.2059Z" fill="#2DBCAF"/>
<path d="M7.63568 40.3264C7.5 40.3264 7.46608 40.2586 7.53392 40.1568L8.24622 39.241C8.31406 39.1392 8.48365 39.0714 8.61933 39.0714H24.0864C24.2221 39.0714 24.2899 39.1731 24.256 39.2749L23.9846 40.089C23.9507 40.2246 23.815 40.2925 23.6794 40.2925L7.63568 40.3264Z" fill="#2DBCAF"/>
<path d="M15.8447 43.447C15.709 43.447 15.6751 43.3452 15.7429 43.2435L16.2178 42.3955C16.2856 42.2938 16.4213 42.192 16.557 42.192H23.3408C23.4764 42.192 23.5443 42.2938 23.5443 42.4294L23.4764 43.2435C23.4764 43.3792 23.3408 43.4809 23.239 43.4809L15.8447 43.447Z" fill="#2DBCAF"/>
<path d="M51.0513 36.5953C48.9144 37.138 47.4559 37.545 45.3529 38.0877C44.8441 38.2234 44.8102 38.2573 44.3693 37.7486C43.8605 37.1719 43.4874 36.7988 42.7751 36.4596C40.6382 35.4081 38.5691 35.7134 36.6357 36.9684C34.3292 38.4609 33.1421 40.6656 33.176 43.413C33.2099 46.1266 35.0755 48.3652 37.7551 48.7383C40.0616 49.0436 41.9949 48.2295 43.5213 46.4997C43.8266 46.1266 44.0979 45.7195 44.4371 45.2447C43.216 45.2447 41.6897 45.2447 37.8907 45.2447C37.1784 45.2447 37.0089 44.8037 37.2463 44.2271C37.6872 43.1756 38.5013 41.4118 38.9762 40.5299C39.0779 40.3264 39.3153 39.9872 39.8241 39.9872C41.554 39.9872 47.9308 39.9872 52.1706 39.9872C52.1028 40.903 52.1028 41.8188 51.9671 42.7347C51.594 45.1768 50.6782 47.4155 49.1858 49.3828C46.7436 52.6051 43.5552 54.6063 39.5189 55.149C36.1948 55.59 33.1082 54.9455 30.3946 52.9104C27.8846 51.0109 26.46 48.5009 26.0869 45.3803C25.646 41.6832 26.7314 38.3591 28.97 35.4421C31.3783 32.2876 34.5667 30.2864 38.4674 29.5741C41.6558 28.9975 44.7085 29.3706 47.4559 31.2361C49.2536 32.4233 50.5425 34.0514 51.3905 36.0187C51.594 36.324 51.4583 36.4936 51.0513 36.5953Z" fill="#2DBCAF"/>
<path d="M62.2783 55.3525C59.1916 55.2846 56.3764 54.4027 54.002 52.3676C52.0008 50.6377 50.7458 48.433 50.3388 45.8212C49.7282 41.9884 50.7797 38.5965 53.0862 35.5777C55.5623 32.3215 58.5472 30.6255 62.5835 29.9132C66.0433 29.3027 69.2995 29.6419 72.2505 31.6431C74.9301 33.4747 76.5921 35.9508 77.033 39.207C77.6097 43.7861 76.2868 47.5172 73.1324 50.7056C70.8937 52.9781 68.1463 54.4027 64.9918 55.0472C64.076 55.2168 63.1602 55.2507 62.2783 55.3525ZM70.351 41.6492C70.3171 41.2083 70.3171 40.8691 70.2492 40.5299C69.6387 37.1719 66.5521 35.2724 63.3298 36.0186C60.1753 36.7309 58.1402 38.7322 57.3939 41.9206C56.7834 44.5662 58.0723 47.2458 60.5145 48.3312C62.38 49.1453 64.2456 49.0435 66.0433 48.1277C68.7229 46.7371 70.1814 44.5662 70.351 41.6492Z" fill="#2DBCAF"/>
</g>
<defs>
<clipPath id="clip0_303_2803">
<rect width="85" height="85" fill="white"/>
</clipPath>
</defs>
</svg>
