<svg width="85" height="85" viewBox="0 0 85 85" fill="none" xmlns="http://www.w3.org/2000/svg">
<g clip-path="url(#clip0_303_2773)">
<path d="M15.0521 6.85113e-06H69.9479C71.9251 -0.00190445 73.8833 0.396108 75.7103 1.17126C77.5373 1.94642 79.1974 3.0835 80.5955 4.51744C81.9936 5.95137 83.1022 7.65401 83.858 9.5279C84.6138 11.4018 85.0019 13.4102 85 15.438V69.562C85.0019 71.5899 84.6138 73.5982 83.858 75.4721C83.1022 77.346 81.9936 79.0486 80.5955 80.4826C79.1974 81.9165 77.5373 83.0536 75.7103 83.8287C73.8833 84.6039 71.9251 85.0019 69.9479 85H15.0521C13.0749 85.0019 11.1167 84.6039 9.2897 83.8287C7.46266 83.0536 5.80259 81.9165 4.4045 80.4826C3.00642 79.0486 1.89776 77.346 1.14198 75.4721C0.386205 73.5982 -0.00185684 71.5899 6.67985e-06 69.562V15.438C-0.00185684 13.4102 0.386205 11.4018 1.14198 9.5279C1.89776 7.65401 3.00642 5.95137 4.4045 4.51744C5.80259 3.0835 7.46266 1.94642 9.2897 1.17126C11.1167 0.396108 13.0749 -0.00190445 15.0521 6.85113e-06Z" fill="#F0F0F0"/>
<path d="M65.909 22.3373L61.6437 70.12L42.4708 75.4353L23.3508 70.1273L19.0898 22.3373H65.909Z" fill="#E44D26"/>
<path d="M42.5 71.3724L57.9927 67.0773L61.6375 26.2448H42.5V71.3724Z" fill="#F16529"/>
<path d="M34.2083 37.9675H42.5V32.1062H27.8027L27.9429 33.6787L29.3836 49.8307H42.5V43.9695H34.744L34.2083 37.9675ZM35.5293 52.7615H29.6455L30.4666 61.9645L42.473 65.2973L42.5 65.29V59.1918L42.4743 59.1986L35.9467 57.436L35.5293 52.7615Z" fill="#EBEBEB"/>
<path d="M23.4453 9.35001H26.4239V12.2928H29.1487V9.35001H32.1275V18.2616H29.1489V15.2775H26.4241V18.2616H23.4455V9.35001H23.4453ZM36.0443 12.3053H33.4225V9.35001H41.647V12.3053H39.0235V18.2616H36.0449V12.3053H36.0447H36.0443ZM42.9522 9.35001H46.058L47.9685 12.4813L49.8772 9.35001H52.9843V18.2616H50.0178V13.8445L47.9685 17.0131H47.9171L45.8666 13.8445V18.2616H42.9522V9.35001ZM54.4666 9.35001H57.4461V15.3161H61.6349V18.2616H54.4664V9.35001H54.4666Z" fill="black"/>
<path d="M42.4787 49.8308H49.6962L49.0157 57.4324L42.4785 59.1968V65.2946L54.4945 61.9645L54.5826 60.9742L55.9601 45.5434L56.1031 43.9695H42.4787V49.8308ZM42.4787 37.9532V37.9675H56.6364L56.7538 36.6501L57.0211 33.6787L57.1611 32.1062H42.4787V37.9534V37.9532Z" fill="white"/>
</g>
<defs>
<clipPath id="clip0_303_2773">
<rect width="85" height="85" fill="white"/>
</clipPath>
</defs>
</svg>
