<svg width="116" height="22" viewBox="0 0 116 22" fill="none" xmlns="http://www.w3.org/2000/svg">
<path d="M30.2221 19.3998C33.7026 19.3998 36.1544 17.532 36.1544 14.4731C36.1544 11.1339 33.3991 10.2695 30.8061 9.45157C28.3311 8.7053 27.7008 8.16773 27.7008 7.16426C27.7008 6.23036 28.4956 5.53046 29.849 5.53046C31.506 5.53046 32.3935 6.39269 32.9774 7.63226L35.6864 6.06593C34.5902 3.77861 32.5347 2.3999 29.849 2.3999C27.0473 2.3999 24.4775 4.17494 24.4775 7.25702C24.4775 10.3623 26.906 11.4142 29.4063 12.1373C31.8348 12.8393 32.9311 13.3052 32.9311 14.5195C32.9311 15.4302 32.2544 16.2482 30.317 16.2482C28.2848 16.2482 27.14 15.2679 26.5561 13.75L23.8008 15.3606C24.6883 17.7892 26.8829 19.3998 30.2221 19.3998Z" fill="#F7F8F8"/>
<path d="M46.0076 19.3998C49.0201 19.3998 51.6595 17.882 53.0361 15.5462L50.2576 13.9356C49.4881 15.3606 47.8754 16.2482 46.0076 16.2482C42.8096 16.2482 40.7078 14.0283 40.7078 10.8999C40.7078 7.74821 42.8096 5.53046 46.0076 5.53046C47.8754 5.53046 49.4649 6.41798 50.2576 7.86416L53.0361 6.25355C51.6363 3.91775 48.9969 2.3999 46.0076 2.3999C41.0577 2.3999 37.5098 6.11441 37.5098 10.8999C37.5098 15.6642 41.0577 19.3998 46.0076 19.3998Z" fill="#F7F8F8"/>
<path d="M55.207 2.72632V19.0727H58.4304V2.72632H55.207Z" fill="#F7F8F8"/>
<path d="M77.4611 2.72778H74.145L69.4756 10.4583L64.7829 2.72778H61.4668V19.0742H64.6901V8.49561L69.29 16.0617H69.6632L74.2631 8.47242V19.0742H77.4611V2.72778Z" fill="#F7F8F8"/>
<path d="M80.4941 2.72632V19.0727H83.7175V2.72632H80.4941Z" fill="#F7F8F8"/>
<path d="M94.5037 19.3998C97.5162 19.3998 100.156 17.882 101.532 15.5462L98.7537 13.9356C97.9842 15.3606 96.3715 16.2482 94.5037 16.2482C91.3057 16.2482 89.2039 14.0283 89.2039 10.8999C89.2039 7.74821 91.3057 5.53046 94.5037 5.53046C96.3715 5.53046 97.961 6.41798 98.7537 7.86416L101.532 6.25355C100.132 3.91775 97.493 2.3999 94.5037 2.3999C89.5538 2.3999 86.0059 6.11441 86.0059 10.8999C86.0059 15.6642 89.5538 19.3998 94.5037 19.3998Z" fill="#F7F8F8"/>
<path d="M109.283 19.3998C112.763 19.3998 115.215 17.532 115.215 14.4731C115.215 11.1339 112.46 10.2695 109.867 9.45157C107.392 8.7053 106.761 8.16773 106.761 7.16426C106.761 6.23036 107.556 5.53046 108.91 5.53046C110.567 5.53046 111.454 6.39269 112.038 7.63226L114.747 6.06593C113.651 3.77861 111.595 2.3999 108.91 2.3999C106.108 2.3999 103.538 4.17494 103.538 7.25702C103.538 10.3623 105.967 11.4142 108.467 12.1373C110.895 12.8393 111.992 13.3052 111.992 14.5195C111.992 15.4302 111.315 16.2482 109.378 16.2482C107.345 16.2482 106.201 15.2679 105.617 13.75L102.861 15.3606C103.749 17.7892 105.943 19.3998 109.283 19.3998Z" fill="#F7F8F8"/>
<path d="M4.90039 2.55813C4.90039 1.14531 6.0457 0 7.45852 0H15.1329C16.5457 0 17.691 1.14531 17.691 2.55813C17.691 3.97094 16.5457 5.11625 15.1329 5.11625H7.45852C6.0457 5.11625 4.90039 3.97094 4.90039 2.55813Z" fill="#F7F8F8"/>
<rect x="0.808594" y="5.62842" width="12.7906" height="5.11625" rx="2.55813" fill="#F7F8F8"/>
<rect x="6.94922" y="11.2556" width="12.7906" height="5.11625" rx="2.55813" fill="#F7F8F8"/>
<rect x="0.808594" y="16.8838" width="12.7906" height="5.11625" rx="2.55813" fill="#F7F8F8"/>
<ellipse cx="15.6463" cy="8.18585" rx="1.02325" ry="1.02325" fill="#F7F8F8"/>
<ellipse cx="4.90216" cy="13.8138" rx="1.02325" ry="1.02325" fill="#F7F8F8"/>
</svg>
