<svg width="47" height="44" viewBox="0 0 47 44" fill="none" xmlns="http://www.w3.org/2000/svg">
<path d="M2.84375 32.5447V42.3954C2.84375 42.9708 3.2822 43.4371 3.82298 43.4371H21.564C21.4104 43.0887 21.3242 42.7004 21.3242 42.2909V32.5447H2.84375Z" fill="white"/>
<path d="M1.66025 30.9287H2.84424H21.3246V30.0311V28.7593C21.3246 28.7474 21.3249 28.7356 21.325 28.7236C21.3302 27.931 21.5111 27.1819 21.8282 26.5185C21.9651 26.2323 22.1272 25.9619 22.3116 25.7109C22.5308 25.4125 22.7815 25.1414 23.058 24.9033C23.8591 24.2132 24.8785 23.7992 25.9872 23.7992H27.0915V21.5433C27.0915 19.8325 25.7878 18.4457 24.1797 18.4457H21.5451C21.0308 18.4457 20.5841 18.8222 20.4665 19.3548L19.2418 24.9033L19.0635 25.711L18.9373 26.2827C18.9197 26.3628 18.8989 26.4415 18.8751 26.5185H18.0631C18.0541 26.2483 18.0283 25.9786 17.9859 25.7109C17.9786 25.6645 17.9709 25.6183 17.9626 25.5721L17.7997 24.9033L16.8415 20.9687L17.6063 19.1732C17.7515 18.8323 17.5172 18.4457 17.1653 18.4457H15.5239C15.1721 18.4457 14.9377 18.8323 15.083 19.1732L15.8477 20.9687L14.8532 24.9033L14.7021 25.5011C14.689 25.5708 14.6773 25.6408 14.6664 25.7109C14.6249 25.9786 14.5998 26.2483 14.5917 26.5185H13.8142C13.7905 26.4415 13.7697 26.3628 13.7519 26.2827L13.6257 25.711L13.4474 24.9033L12.2228 19.355C12.1052 18.8223 11.6585 18.4458 11.1442 18.4458H8.50967C6.90148 18.4458 5.59779 19.8327 5.59779 21.5434V24.9036V25.7112V26.5188H1.66025C0.849057 26.5188 0.191406 27.2184 0.191406 28.0813V29.3665C0.191406 30.2292 0.849057 30.9287 1.66025 30.9287Z" fill="white"/>
<path d="M16.3439 16.7527C19.9532 16.7527 22.8791 13.6402 22.8791 9.80068V2.41138C22.8791 1.4535 22.0683 0.726617 21.1808 0.888806C19.2578 1.24022 14.8727 2.17111 12.1443 2.75675C10.7855 3.04836 9.80859 4.31853 9.80859 5.79308V9.80074C9.80864 13.6402 12.7346 16.7527 16.3439 16.7527Z" fill="white"/>
<path d="M25.9869 25.3628C25.4804 25.3628 25.0018 25.4887 24.5762 25.7119C24.1981 25.9103 23.8626 26.186 23.5872 26.5195C23.1 27.1094 22.802 27.8799 22.7938 28.7246C22.7937 28.7366 22.793 28.7483 22.793 28.7603V30.0321V30.9297V31.7373V32.5449V42.2911C22.793 42.9241 23.2754 43.4372 23.8704 43.4372H40.2277H45.2901C45.8852 43.4372 46.3676 42.9241 46.3676 42.2911V28.7603C46.3676 27.1163 45.2698 25.745 43.8114 25.4307C43.6054 25.3863 43.3922 25.3628 43.1738 25.3628H27.0913H25.9869Z" fill="white"/>
<path d="M34.5821 23.5266C38.5408 23.5266 41.75 20.1127 41.75 15.9014V11.5057C41.75 9.88838 40.6785 8.49523 39.1883 8.17538C36.1956 7.53307 31.386 6.51206 29.2768 6.12658C29.1848 6.10976 29.0935 6.10168 29.0037 6.10168C28.1433 6.10168 27.4141 6.84524 27.4141 7.79662V15.9014C27.4141 20.1127 30.6233 23.5266 34.5821 23.5266Z" fill="white"/>
</svg>
