<svg width="20" height="20" viewBox="0 0 20 20" fill="none" xmlns="http://www.w3.org/2000/svg">
<path d="M3.05599 4.63892H7.50044C7.54645 4.63892 7.58377 4.67622 7.58377 4.72225V9.1667C7.58377 9.21272 7.54646 9.25003 7.50044 9.25003H3.05599C3.00996 9.25003 2.97266 9.21271 2.97266 9.1667V4.72225C2.97266 4.67623 3.00997 4.63892 3.05599 4.63892Z" stroke="#858699" stroke-width="1.5"/>
<path d="M11.181 4.63892H15.6255C15.6714 4.63892 15.7088 4.67619 15.7088 4.72225V9.1667C15.7088 9.21275 15.6714 9.25003 15.6255 9.25003H11.181C11.135 9.25003 11.0977 9.2127 11.0977 9.1667V4.72225C11.0977 4.67624 11.135 4.63892 11.181 4.63892Z" stroke="#858699" stroke-width="1.5"/>
<path d="M3.05599 12.7644H7.50044C7.54644 12.7644 7.58377 12.8017 7.58377 12.8478V17.2922C7.58377 17.3382 7.54649 17.3755 7.50044 17.3755H3.05599C3.00993 17.3755 2.97266 17.3382 2.97266 17.2922V12.8478C2.97266 12.8017 3.00998 12.7644 3.05599 12.7644Z" stroke="#858699" stroke-width="1.5"/>
<path d="M11.181 12.7644H15.6255C15.6714 12.7644 15.7088 12.8017 15.7088 12.8478V17.2922C15.7088 17.3382 15.6715 17.3755 15.6255 17.3755H11.181C11.1349 17.3755 11.0977 17.3382 11.0977 17.2922V12.8478C11.0977 12.8017 11.135 12.7644 11.181 12.7644Z" stroke="#858699" stroke-width="1.5"/>
</svg>
