<svg width="14" height="16" viewBox="0 0 14 16" fill="none" xmlns="http://www.w3.org/2000/svg">
<path d="M10.5 14.4C11.144 14.4 11.6667 14.0416 11.6667 13.6V2.4C11.6667 1.9584 11.144 1.6 10.5 1.6H8.16667V4C8.16667 4.4416 7.644 4.8 7 4.8C6.356 4.8 5.83333 4.4416 5.83333 4V1.6H3.5C2.856 1.6 2.33333 1.9584 2.33333 2.4V13.6C2.33333 14.0416 2.856 14.4 3.5 14.4H5.83333V12C5.83333 11.5584 6.356 11.2 7 11.2C7.644 11.2 8.16667 11.5584 8.16667 12V14.4H10.5ZM11.6667 16H2.33333C1.04417 16 0 15.284 0 14.4V1.6C0 0.716 1.04417 0 2.33333 0H11.6667C12.9558 0 14 0.716 14 1.6V14.4C14 15.284 12.9558 16 11.6667 16ZM5.83333 8.8V7.2C5.83333 6.7584 6.356 6.4 7 6.4C7.644 6.4 8.16667 6.7584 8.16667 7.2V8.8C8.16667 9.2416 7.644 9.6 7 9.6C6.356 9.6 5.83333 9.2416 5.83333 8.8Z" fill="#858699"/>
<path d="M10.5 14.4C11.144 14.4 11.6667 14.0416 11.6667 13.6V2.4C11.6667 1.9584 11.144 1.6 10.5 1.6H8.16667V4C8.16667 4.4416 7.644 4.8 7 4.8C6.356 4.8 5.83333 4.4416 5.83333 4V1.6H3.5C2.856 1.6 2.33333 1.9584 2.33333 2.4V13.6C2.33333 14.0416 2.856 14.4 3.5 14.4H5.83333V12C5.83333 11.5584 6.356 11.2 7 11.2C7.644 11.2 8.16667 11.5584 8.16667 12V14.4H10.5ZM11.6667 16H2.33333C1.04417 16 0 15.284 0 14.4V1.6C0 0.716 1.04417 0 2.33333 0H11.6667C12.9558 0 14 0.716 14 1.6V14.4C14 15.284 12.9558 16 11.6667 16ZM5.83333 8.8V7.2C5.83333 6.7584 6.356 6.4 7 6.4C7.644 6.4 8.16667 6.7584 8.16667 7.2V8.8C8.16667 9.2416 7.644 9.6 7 9.6C6.356 9.6 5.83333 9.2416 5.83333 8.8Z" stroke="#858699"/>
</svg>
