<svg width="16" height="16" viewBox="0 0 16 16" fill="none" xmlns="http://www.w3.org/2000/svg">
<path d="M15.857 6.07273L14.1843 4.69091V2C14.1831 1.93027 14.1619 1.86234 14.1232 1.80432C14.0845 1.74629 14.03 1.70061 13.9661 1.67273L10.3661 0.0363636H10.2206L10.0024 0.109091L8.00244 1.41818L6.00244 0.0727273L5.78426 0H5.6388L2.0388 1.67273C1.97488 1.70061 1.92033 1.74629 1.88164 1.80432C1.84296 1.86234 1.82178 1.93027 1.82062 2V4.69091L0.147893 6.07273C0.0974311 6.10122 0.0566273 6.14413 0.0307123 6.19596C0.00479722 6.24779 -0.00504819 6.30617 0.0024381 6.36364V9.63636C-0.00504819 9.69383 0.00479722 9.75221 0.0307123 9.80404C0.0566273 9.85587 0.0974311 9.89878 0.147893 9.92727L1.82062 11.3091V14C1.82178 14.0697 1.84296 14.1377 1.88164 14.1957C1.92033 14.2537 1.97488 14.2994 2.0388 14.3273L5.6388 15.9636H5.78426L6.00244 15.8909L8.00244 14.5818L10.0024 15.9273L10.2206 16H10.3661L13.9661 14.3636C14.03 14.3358 14.0845 14.2901 14.1232 14.232C14.1619 14.174 14.1831 14.1061 14.1843 14.0364V11.3091L15.857 9.92727C15.9016 9.90152 15.9386 9.86439 15.9641 9.81966C15.9897 9.77494 16.0029 9.72423 16.0024 9.67273V6.32727C16.0029 6.27577 15.9897 6.22506 15.9641 6.18034C15.9386 6.13562 15.9016 6.09848 15.857 6.07273ZM14.0024 8.54545H14.5479V9.12727L13.2752 10.1455L13.1297 10.2545L12.9843 10.1818C12.9209 10.1454 12.8504 10.123 12.7776 10.1163C12.7048 10.1095 12.6314 10.1185 12.5624 10.1427C12.4934 10.1668 12.4304 10.2056 12.3777 10.2562C12.325 10.3069 12.2838 10.3684 12.257 10.4364C12.1917 10.5622 12.178 10.7084 12.2188 10.8442C12.2595 10.9799 12.3514 11.0945 12.4752 11.1636L12.7297 11.2727V13.2364L10.3297 14.3636L8.80244 13.3455L8.54789 13.1636V8.54545H9.09335C9.23801 8.54545 9.37675 8.48799 9.47904 8.38569C9.58133 8.2834 9.6388 8.14466 9.6388 8C9.6388 7.85534 9.58133 7.7166 9.47904 7.61431C9.37675 7.51201 9.23801 7.45455 9.09335 7.45455H8.54789V2.8L8.80244 2.61818L10.3297 1.6L12.7297 2.72727V4.69091L12.4752 4.8C12.3514 4.86913 12.2595 4.98369 12.2188 5.11944C12.178 5.25519 12.1917 5.40146 12.257 5.52727C12.2936 5.62311 12.3584 5.70563 12.4427 5.76403C12.5271 5.82243 12.6271 5.85398 12.7297 5.85455L12.9843 5.78182L13.1297 5.70909L13.2752 5.81818L14.5479 6.87273V7.45455H14.0024C13.8578 7.45455 13.719 7.51201 13.6167 7.61431C13.5145 7.7166 13.457 7.85534 13.457 8C13.457 8.14466 13.5145 8.2834 13.6167 8.38569C13.719 8.48799 13.8578 8.54545 14.0024 8.54545ZM6.91153 8.54545H7.45698V13.2L7.20244 13.3818L5.67517 14.4L3.27517 13.2727V11.3091L3.52971 11.2C3.65343 11.1309 3.7454 11.0163 3.78612 10.8806C3.82685 10.7448 3.81313 10.5985 3.74789 10.4727C3.72106 10.4047 3.6799 10.3433 3.6272 10.2926C3.5745 10.2419 3.51151 10.2032 3.4425 10.179C3.37349 10.1549 3.30009 10.1459 3.22729 10.1526C3.1545 10.1594 3.08401 10.1817 3.02062 10.2182L2.87517 10.2909L2.72971 10.1818L1.45698 9.12727V8.54545H2.00244C2.1471 8.54545 2.28584 8.48799 2.38813 8.38569C2.49043 8.2834 2.54789 8.14466 2.54789 8C2.54789 7.85534 2.49043 7.7166 2.38813 7.61431C2.28584 7.51201 2.1471 7.45455 2.00244 7.45455H1.45698V6.87273L2.72971 5.85455L2.87517 5.74545L3.02062 5.81818L3.27517 5.89091C3.37776 5.89035 3.4778 5.8588 3.56215 5.8004C3.64651 5.742 3.71125 5.65947 3.74789 5.56364C3.81313 5.43782 3.82685 5.29155 3.78612 5.1558C3.7454 5.02006 3.65343 4.90549 3.52971 4.83636L3.27517 4.72727V2.72727L5.67517 1.6L7.20244 2.61818L7.45698 2.8V7.45455H6.91153C6.76686 7.45455 6.62813 7.51201 6.52583 7.61431C6.42354 7.7166 6.36607 7.85534 6.36607 8C6.36607 8.14466 6.42354 8.2834 6.52583 8.38569C6.62813 8.48799 6.76686 8.54545 6.91153 8.54545Z" fill="#858699"/>
<path d="M4.3294 2.87326C4.24094 2.98784 4.19296 3.12851 4.19296 3.27326C4.19296 3.41801 4.24094 3.55868 4.3294 3.67326L5.27486 4.58235V5.60053L3.82031 7.05508V8.94599L5.27486 10.4005V11.4187L4.3294 12.3278C4.24094 12.4424 4.19296 12.5831 4.19296 12.7278C4.19296 12.8726 4.24094 13.0132 4.3294 13.1278C4.38292 13.1776 4.44591 13.2162 4.51463 13.2412C4.58335 13.2661 4.65638 13.2771 4.7294 13.2733C4.80242 13.2771 4.87546 13.2661 4.94418 13.2412C5.01289 13.2162 5.07588 13.1776 5.1294 13.1278L6.36577 11.8551V9.96417L4.91122 8.50962V7.49144L6.36577 6.0369V4.14599L5.1294 2.87326C5.01483 2.7848 4.87416 2.73682 4.7294 2.73682C4.58465 2.73682 4.44398 2.7848 4.3294 2.87326Z" fill="#858699"/>
<path d="M10.7276 4.58235L11.6731 3.67326C11.7615 3.55868 11.8095 3.41801 11.8095 3.27326C11.8095 3.12851 11.7615 2.98784 11.6731 2.87326C11.5585 2.7848 11.4178 2.73682 11.2731 2.73682C11.1283 2.73682 10.9877 2.7848 10.8731 2.87326L9.63672 4.14599V6.0369L11.0913 7.49144V8.50962L9.63672 9.96417V11.8551L10.8731 13.1278C10.9848 13.2226 11.1266 13.2747 11.2731 13.2747C11.4196 13.2747 11.5614 13.2226 11.6731 13.1278C11.7615 13.0132 11.8095 12.8726 11.8095 12.7278C11.8095 12.5831 11.7615 12.4424 11.6731 12.3278L10.7276 11.4187V10.4005L12.1822 8.94599V7.05508L10.7276 5.60053V4.58235Z" fill="#858699"/>
</svg>
