<svg width="21" height="21" viewBox="0 0 21 21" fill="none" xmlns="http://www.w3.org/2000/svg">
<path d="M9 13L13.2581 10.5L9 8V13Z" fill="white"/>
<path d="M10.5 0C4.70039 0 0 4.70039 0 10.5C0 16.2996 4.70039 21 10.5 21C16.2996 21 21 16.2996 21 10.5C21 4.70039 16.2996 0 10.5 0ZM16.75 13.3785C16.75 15.1873 14.9412 15.1873 14.9412 15.1873H6.05879C4.25 15.1873 4.25 13.3785 4.25 13.3785V7.62559C4.25 5.8168 6.05879 5.8168 6.05879 5.8168H14.9412C16.75 5.8168 16.75 7.62559 16.75 7.62559V13.3785Z" fill="white"/>
</svg>
