<svg width="890" height="501" viewBox="0 0 890 501" fill="none" xmlns="http://www.w3.org/2000/svg">
<path d="M136.309 31.2156L208.162 76.8504C215.544 81.5386 215.11 89.4258 207.184 94.6219L198.384 100.391C191.227 105.082 189.94 112.038 195.315 116.966V116.966C202.37 123.433 217.634 123.694 226.978 117.508L262.04 94.2927C268.661 89.9085 279.198 89.4021 285.677 93.1565V93.1565C292.217 96.9461 292.159 103.645 285.548 108.113L268.183 119.848C259.173 125.937 258.821 135.025 267.387 140.417L339.033 185.512L410.949 230.612C418.391 235.28 417.992 243.187 410.052 248.392L401.301 254.129C394.145 258.82 392.857 265.777 398.233 270.704V270.704C405.288 277.171 420.552 277.432 429.895 271.246L464.957 248.031C471.579 243.647 482.115 243.14 488.595 246.894V246.894C495.135 250.684 495.077 257.383 488.466 261.851L471.1 273.586C462.09 279.675 461.739 288.763 470.304 294.155L498.454 311.872L541.95 339.25M541.951 339.25L614.022 384.447C621.375 389.058 620.913 396.923 612.985 402.12L604.396 407.751C597.143 412.506 595.797 419.534 601.191 424.478C608.235 430.935 623.52 431.138 632.941 424.9L667.766 401.842C674.452 397.416 685.025 396.873 691.498 400.624C698.045 404.417 697.93 411.167 691.241 415.687L674.025 427.322C665.017 433.409 664.594 442.461 673.068 447.795L701.375 465.612L744.872 492.989" stroke="url(#paint0_linear_303_2059)" stroke-width="11"/>
<g filter="url(#filter0_d_303_2059)">
<path d="M702.317 427.349L700.987 427.334C700.94 427.049 700.848 426.798 700.712 426.58C700.576 426.363 700.408 426.178 700.208 426.025C700.009 425.872 699.784 425.755 699.535 425.676C699.289 425.596 699.027 425.555 698.749 425.551C698.246 425.545 697.794 425.666 697.393 425.914C696.994 426.162 696.677 426.529 696.44 427.015C696.206 427.501 696.084 428.096 696.075 428.801C696.065 429.511 696.17 430.112 696.391 430.603C696.614 431.094 696.923 431.467 697.317 431.722C697.712 431.977 698.157 432.107 698.654 432.113C698.93 432.116 699.192 432.082 699.44 432.012C699.691 431.938 699.918 431.828 700.122 431.683C700.326 431.538 700.499 431.359 700.641 431.148C700.786 430.934 700.887 430.688 700.945 430.41L702.274 430.43C702.198 430.858 702.054 431.251 701.845 431.61C701.638 431.965 701.374 432.272 701.052 432.529C700.734 432.784 700.37 432.98 699.962 433.117C699.554 433.254 699.11 433.32 698.63 433.315C697.874 433.306 697.203 433.119 696.617 432.754C696.031 432.386 695.572 431.865 695.241 431.19C694.912 430.516 694.754 429.714 694.766 428.785C694.779 427.854 694.961 427.056 695.311 426.392C695.661 425.726 696.134 425.217 696.729 424.867C697.325 424.513 697.999 424.34 698.752 424.349C699.215 424.355 699.646 424.427 700.045 424.565C700.446 424.701 700.806 424.898 701.124 425.158C701.441 425.414 701.702 425.727 701.908 426.096C702.113 426.462 702.249 426.88 702.317 427.349ZM706.26 433.418C705.647 433.411 705.113 433.264 704.66 432.977C704.206 432.691 703.857 432.293 703.611 431.784C703.365 431.276 703.246 430.683 703.256 430.007C703.265 429.328 703.4 428.736 703.659 428.231C703.919 427.725 704.28 427.335 704.741 427.059C705.202 426.783 705.739 426.649 706.353 426.656C706.967 426.663 707.5 426.81 707.954 427.097C708.407 427.384 708.757 427.783 709.003 428.294C709.249 428.806 709.367 429.401 709.358 430.08C709.348 430.756 709.214 431.345 708.954 431.848C708.694 432.35 708.334 432.74 707.873 433.015C707.411 433.291 706.874 433.425 706.26 433.418ZM706.279 432.349C706.677 432.353 707.008 432.252 707.272 432.045C707.536 431.838 707.733 431.561 707.863 431.213C707.996 430.865 708.065 430.481 708.071 430.06C708.076 429.643 708.018 429.258 707.895 428.907C707.775 428.554 707.585 428.269 707.327 428.053C707.068 427.837 706.74 427.726 706.343 427.721C705.942 427.717 705.608 427.819 705.341 428.029C705.077 428.239 704.878 428.519 704.746 428.87C704.616 429.218 704.548 429.601 704.543 430.018C704.537 430.439 704.594 430.824 704.714 431.175C704.837 431.526 705.028 431.808 705.287 432.022C705.548 432.235 705.879 432.344 706.279 432.349ZM714.714 430.672L714.767 426.841L716.045 426.857L715.956 433.402L714.703 433.387L714.718 432.253L714.65 432.252C714.495 432.6 714.249 432.888 713.914 433.117C713.581 433.343 713.169 433.454 712.678 433.448C712.257 433.443 711.886 433.346 711.565 433.157C711.247 432.966 710.998 432.686 710.818 432.318C710.641 431.949 710.556 431.495 710.564 430.955L710.621 426.792L711.895 426.807L711.84 430.817C711.834 431.263 711.953 431.619 712.196 431.886C712.44 432.154 712.759 432.29 713.154 432.294C713.392 432.297 713.63 432.24 713.868 432.124C714.108 432.007 714.308 431.829 714.467 431.59C714.63 431.35 714.712 431.044 714.714 430.672ZM717.463 433.419L717.553 426.875L718.785 426.889L718.77 427.929L718.838 427.93C718.963 427.579 719.177 427.305 719.48 427.106C719.787 426.906 720.132 426.807 720.516 426.812C720.595 426.813 720.689 426.817 720.797 426.824C720.908 426.831 720.994 426.839 721.057 426.848L721.04 428.067C720.989 428.052 720.898 428.035 720.768 428.017C720.637 427.995 720.507 427.984 720.376 427.982C720.075 427.979 719.806 428.039 719.568 428.164C719.334 428.287 719.147 428.459 719.007 428.682C718.868 428.902 718.796 429.154 718.792 429.438L718.738 433.435L717.463 433.419ZM726.837 428.583L725.679 428.774C725.633 428.626 725.558 428.484 725.455 428.35C725.355 428.215 725.217 428.104 725.042 428.016C724.867 427.929 724.647 427.884 724.383 427.881C724.022 427.876 723.72 427.954 723.477 428.113C723.233 428.269 723.109 428.474 723.106 428.726C723.103 428.945 723.181 429.122 723.342 429.258C723.502 429.393 723.761 429.506 724.121 429.595L725.157 429.846C725.758 429.992 726.204 430.212 726.495 430.506C726.787 430.799 726.929 431.177 726.923 431.64C726.917 432.032 726.799 432.38 726.568 432.684C726.339 432.985 726.022 433.22 725.616 433.389C725.213 433.557 724.748 433.638 724.219 433.632C723.486 433.623 722.89 433.46 722.432 433.142C721.973 432.821 721.695 432.37 721.598 431.79L722.832 431.617C722.904 431.939 723.059 432.183 723.295 432.351C723.531 432.516 723.841 432.6 724.225 432.605C724.642 432.61 724.977 432.527 725.23 432.357C725.482 432.184 725.61 431.971 725.613 431.718C725.616 431.514 725.542 431.341 725.39 431.2C725.242 431.059 725.012 430.951 724.7 430.876L723.596 430.62C722.987 430.474 722.538 430.247 722.25 429.939C721.964 429.632 721.824 429.245 721.831 428.779C721.836 428.393 721.949 428.056 722.169 427.769C722.388 427.482 722.69 427.26 723.073 427.102C723.456 426.942 723.893 426.865 724.384 426.871C725.092 426.879 725.646 427.039 726.048 427.351C726.45 427.66 726.713 428.07 726.837 428.583ZM730.913 433.712C730.268 433.704 729.715 433.56 729.252 433.279C728.793 432.995 728.441 432.6 728.195 432.094C727.952 431.585 727.835 430.992 727.844 430.313C727.853 429.642 727.986 429.053 728.243 428.545C728.503 428.036 728.861 427.641 729.316 427.36C729.775 427.078 730.308 426.941 730.916 426.949C731.285 426.953 731.642 427.018 731.987 427.145C732.332 427.271 732.641 427.466 732.912 427.731C733.184 427.996 733.397 428.338 733.55 428.757C733.704 429.174 733.777 429.679 733.768 430.273L733.762 430.724L728.559 430.662L728.573 429.708L732.527 429.755C732.531 429.42 732.467 429.122 732.334 428.862C732.202 428.599 732.013 428.391 731.768 428.237C731.525 428.084 731.24 428.005 730.91 428.001C730.552 427.997 730.238 428.081 729.969 428.254C729.702 428.424 729.495 428.649 729.346 428.929C729.2 429.205 729.125 429.507 729.121 429.834L729.11 430.579C729.104 431.017 729.176 431.39 729.325 431.698C729.477 432.007 729.691 432.244 729.967 432.409C730.244 432.572 730.568 432.655 730.94 432.659C731.181 432.662 731.402 432.631 731.602 432.565C731.802 432.496 731.975 432.393 732.122 432.256C732.269 432.118 732.382 431.948 732.461 431.744L733.664 431.976C733.563 432.33 733.385 432.639 733.131 432.903C732.881 433.164 732.567 433.366 732.19 433.51C731.816 433.65 731.39 433.717 730.913 433.712ZM738.006 433.664L738.126 424.938L743.597 425.003L743.581 426.136L739.427 426.087L739.39 428.746L743.259 428.792L743.244 429.921L739.375 429.875L739.338 432.546L743.544 432.596L743.528 433.73L738.006 433.664ZM746.257 429.876L746.204 433.762L744.93 433.747L745.019 427.202L746.242 427.216L746.228 428.282L746.309 428.282C746.464 427.938 746.704 427.662 747.027 427.456C747.354 427.249 747.763 427.149 748.255 427.155C748.701 427.16 749.09 427.259 749.423 427.45C749.755 427.639 750.012 427.917 750.191 428.286C750.371 428.655 750.457 429.109 750.449 429.649L750.393 433.812L749.118 433.796L749.173 429.787C749.18 429.312 749.061 428.94 748.818 428.67C748.574 428.398 748.237 428.259 747.805 428.253C747.51 428.25 747.246 428.311 747.014 428.436C746.785 428.561 746.602 428.746 746.465 428.992C746.331 429.235 746.262 429.529 746.257 429.876ZM751.897 433.83L751.987 427.285L753.218 427.299L753.204 428.339L753.272 428.34C753.396 427.989 753.61 427.715 753.914 427.516C754.221 427.316 754.566 427.217 754.95 427.222C755.029 427.223 755.123 427.227 755.231 427.234C755.341 427.241 755.428 427.249 755.49 427.258L755.474 428.477C755.423 428.462 755.332 428.445 755.202 428.427C755.071 428.405 754.941 428.394 754.81 428.392C754.509 428.389 754.24 428.449 754.002 428.574C753.767 428.697 753.58 428.869 753.441 429.092C753.302 429.312 753.23 429.564 753.226 429.848L753.171 433.845L751.897 433.83ZM758.819 434.044C758.206 434.037 757.672 433.89 757.218 433.603C756.765 433.316 756.415 432.919 756.169 432.41C755.923 431.901 755.805 431.309 755.814 430.633C755.824 429.954 755.958 429.362 756.218 428.856C756.478 428.351 756.838 427.96 757.299 427.685C757.761 427.409 758.298 427.275 758.912 427.282C759.525 427.289 760.059 427.436 760.512 427.723C760.966 428.01 761.316 428.409 761.561 428.92C761.807 429.432 761.926 430.027 761.916 430.706C761.907 431.382 761.772 431.971 761.513 432.474C761.253 432.976 760.893 433.366 760.431 433.641C759.97 433.917 759.433 434.051 758.819 434.044ZM758.838 432.975C759.236 432.979 759.567 432.878 759.831 432.671C760.095 432.464 760.292 432.186 760.422 431.839C760.554 431.491 760.624 431.107 760.629 430.686C760.635 430.269 760.576 429.884 760.453 429.533C760.333 429.18 760.144 428.895 759.886 428.679C759.627 428.462 759.299 428.352 758.901 428.347C758.501 428.342 758.167 428.445 757.9 428.655C757.636 428.865 757.437 429.145 757.305 429.496C757.175 429.844 757.107 430.227 757.101 430.644C757.096 431.065 757.153 431.45 757.273 431.801C757.396 432.152 757.587 432.434 757.845 432.647C758.107 432.861 758.437 432.97 758.838 432.975ZM764.483 425.252L764.364 433.978L763.09 433.963L763.209 425.236L764.483 425.252ZM767.268 425.285L767.148 434.011L765.874 433.996L765.994 425.27L767.268 425.285ZM768.658 434.029L768.748 427.484L769.971 427.499L769.956 428.564L770.037 428.565C770.178 428.206 770.405 427.927 770.718 427.729C771.03 427.529 771.402 427.431 771.834 427.436C772.271 427.441 772.636 427.548 772.929 427.756C773.225 427.964 773.441 428.248 773.578 428.607L773.646 428.608C773.807 428.261 774.06 427.985 774.403 427.782C774.747 427.576 775.155 427.475 775.626 427.481C776.22 427.488 776.702 427.68 777.072 428.056C777.444 428.433 777.626 428.996 777.615 429.746L777.555 434.135L776.281 434.12L776.34 429.85C776.346 429.407 776.229 429.085 775.991 428.883C775.752 428.681 775.465 428.579 775.13 428.575C774.715 428.57 774.391 428.694 774.157 428.947C773.924 429.197 773.804 429.52 773.799 429.918L773.742 434.09L772.472 434.075L772.531 429.724C772.536 429.369 772.429 429.082 772.211 428.864C771.992 428.645 771.705 428.534 771.35 428.53C771.109 428.527 770.885 428.588 770.679 428.713C770.475 428.836 770.309 429.009 770.181 429.232C770.056 429.455 769.991 429.714 769.987 430.009L769.932 434.044L768.658 434.029ZM781.878 434.319C781.233 434.311 780.68 434.167 780.217 433.886C779.758 433.602 779.406 433.207 779.16 432.701C778.917 432.192 778.8 431.599 778.809 430.92C778.818 430.249 778.951 429.66 779.208 429.152C779.468 428.643 779.826 428.248 780.281 427.967C780.74 427.685 781.273 427.548 781.881 427.555C782.25 427.56 782.607 427.625 782.952 427.751C783.297 427.878 783.606 428.073 783.878 428.338C784.15 428.602 784.362 428.944 784.516 429.364C784.669 429.781 784.742 430.286 784.733 430.879L784.727 431.331L779.525 431.269L779.538 430.315L783.492 430.362C783.496 430.027 783.432 429.729 783.3 429.469C783.167 429.206 782.978 428.998 782.733 428.844C782.49 428.691 782.205 428.612 781.875 428.608C781.517 428.604 781.203 428.688 780.934 428.861C780.667 429.031 780.46 429.256 780.311 429.535C780.165 429.812 780.09 430.114 780.086 430.441L780.075 431.186C780.069 431.624 780.141 431.997 780.29 432.305C780.442 432.614 780.656 432.851 780.933 433.016C781.209 433.179 781.533 433.262 781.905 433.266C782.147 433.269 782.367 433.238 782.567 433.172C782.767 433.103 782.94 433 783.087 432.863C783.234 432.725 783.347 432.555 783.426 432.351L784.629 432.583C784.528 432.937 784.35 433.246 784.097 433.51C783.846 433.771 783.532 433.973 783.155 434.117C782.781 434.257 782.355 434.324 781.878 434.319ZM787.225 430.364L787.171 434.25L785.897 434.234L785.987 427.69L787.21 427.704L787.195 428.769L787.276 428.77C787.432 428.426 787.671 428.15 787.995 427.944C788.322 427.737 788.731 427.637 789.222 427.643C789.668 427.648 790.058 427.747 790.39 427.938C790.723 428.127 790.979 428.405 791.159 428.774C791.338 429.143 791.424 429.597 791.417 430.137L791.36 434.299L790.086 434.284L790.141 430.275C790.147 429.8 790.029 429.428 789.785 429.158C789.542 428.885 789.204 428.746 788.773 428.741C788.477 428.738 788.213 428.799 787.982 428.924C787.753 429.049 787.57 429.234 787.433 429.48C787.299 429.722 787.229 430.017 787.225 430.364ZM796.01 427.809L795.996 428.832L792.42 428.789L792.434 427.766L796.01 427.809ZM793.415 426.21L794.689 426.225L794.604 432.416C794.601 432.663 794.635 432.85 794.707 432.976C794.779 433.099 794.873 433.184 794.989 433.23C795.108 433.274 795.237 433.297 795.376 433.299C795.478 433.3 795.568 433.294 795.645 433.281C795.722 433.268 795.782 433.257 795.824 433.249L796.04 434.304C795.966 434.332 795.86 434.359 795.723 434.386C795.587 434.415 795.416 434.43 795.211 434.431C794.876 434.432 794.564 434.369 794.276 434.24C793.988 434.112 793.757 433.916 793.581 433.653C793.406 433.389 793.321 433.06 793.326 432.665L793.415 426.21Z" fill="#F7F8F8"/>
</g>
<path d="M310.046 140.752L310.166 132.025L313.114 132.06C313.796 132.068 314.354 132.192 314.788 132.43C315.223 132.665 315.542 132.986 315.747 133.392C315.952 133.797 316.05 134.257 316.043 134.772C316.036 135.286 315.925 135.74 315.709 136.136C315.494 136.531 315.167 136.839 314.729 137.061C314.292 137.281 313.735 137.386 313.059 137.378L310.672 137.35L310.685 136.395L313.038 136.423C313.503 136.429 313.879 136.365 314.165 136.232C314.454 136.099 314.664 135.909 314.795 135.66C314.929 135.409 314.999 135.109 315.004 134.759C315.008 134.41 314.947 134.104 314.82 133.841C314.693 133.578 314.487 133.374 314.202 133.228C313.917 133.08 313.539 133.003 313.067 132.997L311.21 132.975L311.103 140.764L310.046 140.752ZM314.208 136.881L316.301 140.826L315.074 140.812L313.014 136.866L314.208 136.881ZM320.053 141.007C319.422 141 318.88 140.854 318.427 140.57C317.976 140.284 317.631 139.887 317.39 139.382C317.153 138.873 317.039 138.284 317.048 137.613C317.057 136.943 317.188 136.353 317.439 135.845C317.693 135.334 318.042 134.937 318.486 134.656C318.934 134.371 319.453 134.233 320.043 134.24C320.384 134.244 320.72 134.304 321.051 134.422C321.382 134.54 321.682 134.728 321.951 134.987C322.22 135.243 322.433 135.581 322.589 136C322.745 136.42 322.819 136.935 322.811 137.546L322.805 137.972L317.76 137.912L317.772 137.042L321.794 137.09C321.799 136.721 321.73 136.391 321.586 136.099C321.445 135.808 321.241 135.576 320.974 135.406C320.709 135.235 320.395 135.147 320.031 135.143C319.631 135.138 319.283 135.233 318.987 135.429C318.695 135.621 318.468 135.874 318.308 136.188C318.147 136.501 318.064 136.838 318.06 137.199L318.052 137.779C318.045 138.273 318.124 138.693 318.29 139.039C318.459 139.382 318.695 139.644 319 139.827C319.304 140.007 319.659 140.099 320.065 140.104C320.33 140.107 320.569 140.073 320.783 140.002C321 139.928 321.187 139.816 321.346 139.667C321.504 139.516 321.627 139.327 321.716 139.101L322.683 139.385C322.577 139.713 322.401 140.001 322.156 140.248C321.911 140.492 321.61 140.682 321.253 140.817C320.896 140.949 320.496 141.013 320.053 141.007ZM328.796 135.895L327.889 136.14C327.835 135.989 327.753 135.841 327.644 135.698C327.538 135.552 327.392 135.431 327.206 135.335C327.02 135.239 326.78 135.189 326.488 135.186C326.087 135.181 325.752 135.269 325.482 135.451C325.216 135.629 325.08 135.859 325.077 136.141C325.073 136.391 325.161 136.589 325.341 136.736C325.521 136.883 325.803 137.007 326.188 137.108L327.157 137.359C327.74 137.508 328.173 137.73 328.456 138.026C328.739 138.319 328.877 138.695 328.871 139.152C328.866 139.527 328.753 139.861 328.533 140.154C328.316 140.446 328.015 140.676 327.629 140.842C327.243 141.008 326.796 141.088 326.288 141.081C325.62 141.074 325.069 140.922 324.636 140.627C324.202 140.332 323.931 139.906 323.822 139.347L324.78 139.12C324.866 139.474 325.034 139.74 325.285 139.919C325.538 140.098 325.871 140.19 326.283 140.195C326.751 140.201 327.125 140.106 327.403 139.91C327.684 139.712 327.827 139.472 327.831 139.191C327.834 138.963 327.757 138.772 327.6 138.617C327.443 138.459 327.2 138.339 326.872 138.259L325.784 137.99C325.187 137.841 324.75 137.615 324.472 137.314C324.198 137.009 324.064 136.631 324.07 136.18C324.075 135.81 324.184 135.485 324.395 135.203C324.609 134.922 324.897 134.702 325.26 134.545C325.626 134.387 326.039 134.311 326.499 134.316C327.147 134.324 327.654 134.472 328.019 134.761C328.387 135.049 328.646 135.427 328.796 135.895ZM334.317 138.364L334.37 134.495L335.376 134.507L335.286 141.052L334.28 141.04L334.296 139.932L334.227 139.932C334.07 140.262 333.827 140.542 333.5 140.771C333.173 140.997 332.762 141.107 332.268 141.102C331.859 141.097 331.497 141.003 331.181 140.82C330.865 140.635 330.619 140.359 330.442 139.993C330.265 139.624 330.181 139.162 330.188 138.605L330.245 134.446L331.251 134.458L331.195 138.549C331.188 139.026 331.317 139.408 331.58 139.696C331.846 139.983 332.188 140.129 332.605 140.134C332.855 140.137 333.11 140.076 333.371 139.951C333.634 139.827 333.855 139.633 334.035 139.371C334.217 139.109 334.312 138.773 334.317 138.364ZM336.924 141.072L337.014 134.527L337.985 134.538L337.971 135.561L338.056 135.562C338.197 135.214 338.421 134.946 338.728 134.756C339.035 134.564 339.401 134.47 339.827 134.475C340.259 134.48 340.617 134.583 340.901 134.782C341.188 134.979 341.41 135.253 341.567 135.604L341.636 135.605C341.808 135.269 342.063 135.003 342.401 134.808C342.739 134.611 343.142 134.515 343.611 134.52C344.196 134.527 344.672 134.716 345.039 135.087C345.406 135.455 345.585 136.024 345.574 136.794L345.514 141.174L344.509 141.162L344.569 136.782C344.575 136.299 344.448 135.952 344.187 135.742C343.925 135.531 343.616 135.424 343.258 135.42C342.797 135.414 342.439 135.549 342.182 135.824C341.926 136.097 341.795 136.445 341.789 136.868L341.73 141.129L340.708 141.117L340.769 136.634C340.774 136.262 340.658 135.961 340.419 135.731C340.181 135.498 339.871 135.379 339.491 135.375C339.229 135.372 338.984 135.438 338.755 135.575C338.529 135.711 338.344 135.902 338.202 136.148C338.062 136.39 337.99 136.672 337.986 136.993L337.93 141.084L336.924 141.072ZM349.891 141.363C349.261 141.355 348.718 141.209 348.265 140.926C347.814 140.639 347.469 140.243 347.229 139.737C346.991 139.228 346.877 138.639 346.886 137.969C346.895 137.298 347.026 136.709 347.277 136.2C347.531 135.689 347.88 135.293 348.325 135.011C348.772 134.727 349.291 134.588 349.882 134.595C350.222 134.599 350.558 134.66 350.889 134.777C351.22 134.895 351.52 135.083 351.789 135.342C352.058 135.598 352.271 135.936 352.427 136.355C352.583 136.775 352.657 137.29 352.649 137.901L352.643 138.327L347.598 138.267L347.61 137.398L351.632 137.446C351.638 137.076 351.568 136.746 351.424 136.454C351.284 136.163 351.079 135.932 350.812 135.761C350.547 135.59 350.233 135.503 349.869 135.498C349.469 135.493 349.121 135.589 348.825 135.784C348.533 135.977 348.306 136.23 348.146 136.543C347.985 136.857 347.903 137.194 347.898 137.554L347.89 138.134C347.883 138.628 347.962 139.048 348.128 139.394C348.297 139.737 348.533 140 348.838 140.182C349.142 140.362 349.497 140.454 349.904 140.459C350.168 140.462 350.407 140.428 350.621 140.357C350.838 140.283 351.025 140.171 351.184 140.023C351.342 139.871 351.465 139.682 351.554 139.456L352.522 139.74C352.415 140.069 352.239 140.356 351.994 140.603C351.749 140.848 351.448 141.037 351.091 141.172C350.734 141.304 350.334 141.368 349.891 141.363ZM357.236 141.314L357.355 132.587L360.406 132.624C361.014 132.631 361.514 132.742 361.906 132.957C362.298 133.169 362.588 133.452 362.777 133.807C362.965 134.158 363.056 134.547 363.051 134.973C363.045 135.348 362.974 135.657 362.838 135.9C362.704 136.143 362.528 136.334 362.31 136.473C362.095 136.613 361.862 136.715 361.611 136.78L361.61 136.865C361.877 136.886 362.144 136.983 362.411 137.156C362.679 137.33 362.901 137.577 363.079 137.897C363.256 138.218 363.342 138.608 363.335 139.068C363.329 139.505 363.225 139.898 363.021 140.245C362.817 140.592 362.5 140.865 362.068 141.064C361.636 141.264 361.077 141.359 360.389 141.351L357.236 141.314ZM358.306 140.389L360.402 140.414C361.092 140.422 361.584 140.294 361.878 140.031C362.174 139.764 362.325 139.439 362.33 139.056C362.334 138.761 362.262 138.487 362.115 138.235C361.968 137.981 361.756 137.776 361.48 137.622C361.204 137.466 360.875 137.385 360.495 137.381L358.347 137.355L358.306 140.389ZM358.36 136.435L360.32 136.458C360.638 136.462 360.926 136.403 361.183 136.281C361.443 136.159 361.65 135.985 361.804 135.76C361.96 135.534 362.041 135.268 362.045 134.961C362.05 134.578 361.921 134.251 361.658 133.981C361.394 133.708 360.973 133.568 360.393 133.561L358.399 133.537L358.36 136.435ZM368.861 138.776L368.914 134.907L369.92 134.919L369.83 141.464L368.824 141.452L368.84 140.344L368.771 140.343C368.613 140.674 368.371 140.953 368.044 141.182C367.717 141.409 367.306 141.519 366.812 141.513C366.403 141.508 366.041 141.414 365.725 141.231C365.409 141.046 365.163 140.77 364.986 140.404C364.809 140.036 364.725 139.573 364.732 139.016L364.789 134.858L365.795 134.87L365.739 138.96C365.732 139.437 365.861 139.82 366.124 140.107C366.39 140.394 366.732 140.54 367.149 140.545C367.399 140.548 367.654 140.487 367.915 140.363C368.178 140.238 368.399 140.044 368.579 139.782C368.761 139.52 368.855 139.185 368.861 138.776ZM371.468 141.483L371.558 134.938L372.563 134.95L372.474 141.495L371.468 141.483ZM372.084 133.854C371.888 133.851 371.72 133.782 371.579 133.647C371.442 133.512 371.375 133.351 371.377 133.163C371.38 132.976 371.452 132.816 371.593 132.684C371.736 132.552 371.906 132.488 372.102 132.49C372.298 132.492 372.465 132.561 372.603 132.696C372.743 132.832 372.812 132.993 372.809 133.18C372.806 133.368 372.733 133.527 372.589 133.659C372.448 133.791 372.28 133.856 372.084 133.854ZM375.236 132.8L375.117 141.527L374.111 141.515L374.231 132.788L375.236 132.8ZM379.224 141.712C378.679 141.705 378.199 141.562 377.786 141.281C377.372 140.998 377.05 140.602 376.822 140.094C376.593 139.582 376.483 138.98 376.493 138.287C376.502 137.6 376.628 137.004 376.871 136.502C377.113 135.999 377.447 135.612 377.871 135.342C378.295 135.071 378.783 134.939 379.334 134.946C379.76 134.951 380.096 135.026 380.341 135.171C380.589 135.313 380.777 135.474 380.905 135.655C381.037 135.832 381.138 135.979 381.211 136.093L381.296 136.094L381.34 132.873L382.346 132.885L382.226 141.611L381.255 141.6L381.268 140.594L381.149 140.593C381.074 140.711 380.966 140.86 380.827 141.041C380.689 141.218 380.492 141.376 380.237 141.515C379.982 141.651 379.645 141.717 379.224 141.712ZM379.373 140.81C379.777 140.815 380.119 140.714 380.4 140.507C380.681 140.297 380.897 140.006 381.047 139.633C381.197 139.257 381.276 138.821 381.282 138.327C381.289 137.838 381.224 137.41 381.087 137.042C380.95 136.671 380.744 136.382 380.468 136.174C380.192 135.963 379.85 135.855 379.441 135.85C379.015 135.845 378.658 135.95 378.371 136.166C378.087 136.378 377.871 136.67 377.724 137.04C377.58 137.408 377.505 137.822 377.498 138.282C377.492 138.748 377.557 139.172 377.694 139.554C377.834 139.934 378.043 140.237 378.321 140.465C378.602 140.69 378.953 140.805 379.373 140.81ZM384.003 141.632L384.093 135.088L385.099 135.1L385.009 141.644L384.003 141.632ZM384.619 134.003C384.423 134.001 384.255 133.932 384.115 133.797C383.978 133.661 383.91 133.5 383.913 133.313C383.915 133.125 383.987 132.965 384.128 132.834C384.272 132.702 384.442 132.637 384.638 132.639C384.834 132.642 385.001 132.71 385.138 132.846C385.278 132.981 385.347 133.142 385.345 133.33C385.342 133.517 385.269 133.677 385.125 133.809C384.984 133.94 384.815 134.005 384.619 134.003ZM387.706 137.739L387.653 141.676L386.647 141.664L386.737 135.119L387.708 135.131L387.694 136.153L387.779 136.154C387.937 135.824 388.174 135.559 388.489 135.362C388.804 135.161 389.209 135.063 389.703 135.069C390.147 135.074 390.533 135.17 390.863 135.356C391.193 135.539 391.448 135.814 391.627 136.183C391.807 136.549 391.893 137.01 391.885 137.567L391.828 141.726L390.823 141.714L390.879 137.623C390.886 137.109 390.758 136.707 390.495 136.417C390.232 136.124 389.867 135.975 389.401 135.969C389.08 135.965 388.792 136.031 388.538 136.168C388.286 136.304 388.086 136.505 387.937 136.77C387.789 137.035 387.712 137.358 387.706 137.739ZM396.068 144.367C395.583 144.361 395.166 144.294 394.818 144.165C394.47 144.038 394.182 143.873 393.951 143.669C393.724 143.467 393.544 143.252 393.41 143.023L394.219 142.47C394.308 142.59 394.422 142.728 394.559 142.883C394.696 143.041 394.884 143.178 395.124 143.295C395.367 143.414 395.686 143.476 396.081 143.481C396.609 143.487 397.047 143.365 397.394 143.113C397.741 142.861 397.918 142.463 397.926 141.918L397.944 140.588L397.859 140.587C397.783 140.706 397.676 140.852 397.538 141.026C397.402 141.198 397.206 141.351 396.952 141.484C396.7 141.615 396.361 141.677 395.935 141.672C395.406 141.666 394.934 141.535 394.517 141.28C394.103 141.025 393.777 140.658 393.539 140.178C393.304 139.698 393.191 139.117 393.2 138.435C393.21 137.764 393.336 137.182 393.578 136.688C393.821 136.191 394.154 135.808 394.578 135.541C395.002 135.27 395.49 135.138 396.041 135.145C396.467 135.15 396.804 135.225 397.052 135.37C397.303 135.512 397.494 135.673 397.625 135.854C397.759 136.032 397.862 136.178 397.935 136.292L398.037 136.293L398.051 135.254L399.023 135.265L398.931 141.998C398.923 142.56 398.789 143.016 398.528 143.365C398.271 143.717 397.926 143.973 397.495 144.133C397.067 144.295 396.591 144.373 396.068 144.367ZM396.084 140.771C396.487 140.775 396.829 140.687 397.11 140.506C397.391 140.324 397.606 140.061 397.756 139.716C397.905 139.372 397.984 138.958 397.99 138.475C397.997 138.003 397.931 137.586 397.794 137.224C397.657 136.861 397.451 136.576 397.175 136.368C396.9 136.161 396.557 136.054 396.148 136.049C395.722 136.044 395.365 136.148 395.078 136.361C394.794 136.573 394.579 136.86 394.432 137.222C394.287 137.584 394.212 137.987 394.206 138.43C394.2 138.884 394.266 139.287 394.403 139.638C394.543 139.986 394.752 140.262 395.031 140.464C395.312 140.663 395.663 140.766 396.084 140.771Z" fill="#F7F8F8"/>
<g filter="url(#filter1_d_303_2059)">
<path d="M134.914 12.9308L133.858 12.9182C133.799 12.6135 133.694 12.3452 133.541 12.1132C133.39 11.8813 133.205 11.6859 132.986 11.527C132.769 11.3653 132.528 11.2431 132.262 11.1604C131.996 11.0777 131.719 11.0346 131.429 11.0312C130.9 11.0249 130.42 11.1527 129.987 11.4146C129.558 11.6766 129.213 12.0659 128.953 12.5828C128.696 13.0996 128.562 13.7359 128.552 14.4915C128.541 15.2471 128.658 15.8863 128.9 16.4091C129.146 16.932 129.48 17.3294 129.903 17.6015C130.328 17.8737 130.805 18.0129 131.333 18.0192C131.623 18.0226 131.902 17.9862 132.17 17.9098C132.438 17.8334 132.683 17.7184 132.903 17.5648C133.127 17.4084 133.317 17.216 133.474 16.9878C133.633 16.7567 133.746 16.491 133.813 16.1906L134.87 16.2032C134.784 16.6482 134.634 17.0456 134.419 17.3953C134.204 17.7451 133.938 18.0417 133.622 18.2851C133.306 18.5256 132.953 18.7075 132.562 18.8307C132.174 18.954 131.76 19.0129 131.32 19.0077C130.575 18.9988 129.916 18.8092 129.341 18.4387C128.767 18.0681 128.318 17.5457 127.995 16.8714C127.672 16.197 127.516 15.3997 127.529 14.4793C127.542 13.5589 127.719 12.7655 128.06 12.0991C128.402 11.4327 128.865 10.9211 129.449 10.5644C130.034 10.2077 130.698 10.0338 131.442 10.0426C131.883 10.0479 132.295 10.1167 132.68 10.2491C133.067 10.3816 133.415 10.5733 133.724 10.8241C134.034 11.0721 134.291 11.3735 134.496 11.7283C134.702 12.0802 134.841 12.481 134.914 12.9308ZM136.2 18.9465L136.289 12.4016L137.261 12.4132L137.247 13.4018L137.315 13.4026C137.439 13.0802 137.659 12.82 137.974 12.622C138.289 12.424 138.643 12.3274 139.035 12.3321C139.109 12.3329 139.201 12.3355 139.312 12.3396C139.422 12.3438 139.506 12.349 139.563 12.3554L139.549 13.378C139.515 13.3691 139.437 13.3554 139.315 13.3369C139.196 13.3156 139.07 13.3041 138.936 13.3025C138.618 13.2988 138.333 13.3621 138.081 13.4927C137.832 13.6204 137.634 13.7999 137.486 14.0311C137.341 14.2595 137.266 14.5214 137.262 14.8168L137.205 18.9585L136.2 18.9465ZM142.384 19.1736C141.969 19.1686 141.594 19.086 141.258 18.9258C140.922 18.7627 140.657 18.5308 140.462 18.2301C140.267 17.9267 140.173 17.5619 140.179 17.1358C140.184 16.7608 140.262 16.4578 140.413 16.2266C140.564 15.9926 140.764 15.8103 141.013 15.6797C141.262 15.5491 141.536 15.453 141.835 15.3912C142.137 15.3266 142.44 15.2762 142.745 15.2401C143.143 15.1937 143.466 15.1592 143.714 15.1366C143.964 15.1111 144.146 15.0664 144.261 15.0024C144.378 14.9385 144.438 14.8256 144.44 14.6636L144.441 14.6295C144.447 14.2091 144.336 13.8811 144.109 13.6454C143.885 13.4098 143.541 13.2892 143.078 13.2837C142.598 13.278 142.22 13.3786 141.945 13.5856C141.669 13.7925 141.474 14.0146 141.36 14.2519L140.411 13.8997C140.586 13.504 140.818 13.1971 141.105 12.9789C141.395 12.7579 141.71 12.6054 142.049 12.5214C142.391 12.4345 142.727 12.3931 143.056 12.397C143.267 12.3995 143.508 12.4279 143.78 12.4823C144.055 12.5339 144.319 12.6379 144.572 12.7943C144.829 12.9508 145.04 13.1849 145.206 13.4965C145.373 13.8082 145.452 14.2239 145.445 14.7438L145.386 19.0559L144.38 19.0439L144.392 18.1576L144.341 18.157C144.271 18.2982 144.156 18.4489 143.994 18.6089C143.833 18.7689 143.619 18.9042 143.354 19.0146C143.088 19.1251 142.765 19.1781 142.384 19.1736ZM142.55 18.2721C142.948 18.2768 143.284 18.2027 143.559 18.0497C143.836 17.8967 144.046 17.6975 144.189 17.452C144.334 17.2066 144.409 16.9475 144.413 16.6748L144.425 15.7544C144.382 15.8051 144.288 15.8508 144.142 15.8917C144 15.9298 143.834 15.9633 143.646 15.9923C143.461 16.0186 143.281 16.042 143.104 16.0626C142.931 16.0804 142.79 16.0958 142.682 16.1087C142.42 16.1397 142.175 16.1922 141.947 16.2662C141.721 16.3373 141.538 16.4474 141.397 16.5963C141.258 16.7424 141.187 16.9432 141.184 17.1989C141.179 17.5483 141.305 17.814 141.561 17.9961C141.82 18.1753 142.149 18.2673 142.55 18.2721ZM149.674 19.2433C149.061 19.236 148.534 19.0849 148.095 18.7898C147.656 18.4948 147.321 18.0916 147.089 17.5803C146.857 17.069 146.746 16.4867 146.755 15.8333C146.764 15.1686 146.894 14.5835 147.145 14.0779C147.4 13.5695 147.749 13.1745 148.193 12.8929C148.64 12.6084 149.159 12.4697 149.75 12.4767C150.21 12.4822 150.624 12.5724 150.991 12.7472C151.358 12.922 151.657 13.1642 151.889 13.4738C152.12 13.7834 152.262 14.1431 152.313 14.5528L151.307 14.5409C151.235 14.2417 151.068 13.9755 150.807 13.7422C150.549 13.5062 150.198 13.3855 149.755 13.3802C149.363 13.3756 149.018 13.4737 148.719 13.6747C148.424 13.873 148.191 14.1557 148.022 14.523C147.855 14.8875 147.768 15.3169 147.761 15.8112C147.754 16.3168 147.828 16.7581 147.982 17.135C148.138 17.5118 148.362 17.8057 148.651 18.0166C148.944 18.2275 149.289 18.3353 149.687 18.34C149.948 18.3431 150.186 18.3005 150.4 18.2121C150.615 18.1238 150.797 17.9952 150.947 17.8266C151.097 17.6579 151.205 17.4546 151.271 17.2167L152.276 17.2287C152.214 17.6144 152.069 17.9607 151.84 18.2676C151.614 18.5718 151.317 18.8126 150.948 18.99C150.582 19.1646 150.157 19.2491 149.674 19.2433ZM154.486 16.7777L154.486 15.5333L154.691 15.5358L157.594 12.6554L158.838 12.6702L155.745 15.7188L155.66 15.7178L154.486 16.7777ZM153.516 19.1527L153.636 10.4262L154.641 10.4382L154.522 19.1647L153.516 19.1527ZM157.675 19.2022L155.163 15.9334L155.888 15.2432L158.953 19.2175L157.675 19.2022ZM164.322 10.5535L164.203 19.28L163.146 19.2674L163.266 10.5409L164.322 10.5535ZM167.041 15.376L166.987 19.3131L165.981 19.3011L166.071 12.7563L167.042 12.7679L167.028 13.7905L167.114 13.7915C167.272 13.461 167.508 13.1967 167.823 12.9988C168.139 12.798 168.543 12.7005 169.038 12.7064C169.481 12.7117 169.867 12.8072 170.197 12.993C170.527 13.1759 170.782 13.4517 170.962 13.8203C171.141 14.1861 171.227 14.6474 171.22 15.2041L171.163 19.3628L170.157 19.3509L170.213 15.2603C170.22 14.7462 170.092 14.3441 169.829 14.054C169.566 13.7611 169.202 13.6118 168.736 13.6063C168.415 13.6025 168.127 13.6686 167.872 13.8048C167.62 13.941 167.42 14.1418 167.271 14.4071C167.123 14.6724 167.046 14.9953 167.041 15.376ZM175.732 12.8714L175.721 13.7236L172.329 13.6832L172.341 12.831L175.732 12.8714ZM173.351 11.2747L174.356 11.2867L174.271 17.5247C174.267 17.8088 174.305 18.0223 174.386 18.1653C174.469 18.3056 174.576 18.4006 174.706 18.4504C174.838 18.4975 174.979 18.5219 175.127 18.5236C175.237 18.5249 175.328 18.5203 175.399 18.5098C175.471 18.4965 175.528 18.4858 175.57 18.4778L175.763 19.3835C175.694 19.4083 175.598 19.4327 175.476 19.4568C175.353 19.4838 175.198 19.4961 175.011 19.4939C174.727 19.4905 174.449 19.4261 174.178 19.3007C173.91 19.1754 173.688 18.9866 173.513 18.7345C173.34 18.4825 173.256 18.1661 173.261 17.7855L173.351 11.2747ZM179.623 19.6C178.993 19.5925 178.451 19.4468 177.997 19.163C177.546 18.8763 177.201 18.4801 176.961 17.9744C176.723 17.4659 176.609 16.8764 176.618 16.206C176.628 15.5356 176.758 14.9462 177.009 14.4378C177.263 13.9266 177.613 13.5302 178.057 13.2485C178.504 12.964 179.023 12.8253 179.614 12.8323C179.955 12.8364 180.29 12.8972 180.621 13.0148C180.952 13.1324 181.252 13.3206 181.521 13.5795C181.791 13.8356 182.003 14.1734 182.159 14.5929C182.316 15.0124 182.39 15.5275 182.381 16.1383L182.375 16.5644L177.33 16.5043L177.342 15.635L181.365 15.6829C181.37 15.3137 181.3 14.9833 181.157 14.6918C181.016 14.4003 180.811 14.1691 180.544 13.9983C180.279 13.8276 179.965 13.74 179.601 13.7357C179.201 13.7309 178.853 13.8262 178.558 14.0216C178.265 14.2141 178.039 14.4671 177.878 14.7806C177.718 15.094 177.635 15.4311 177.63 15.7919L177.622 16.3714C177.615 16.8656 177.695 17.2857 177.86 17.6314C178.029 17.9743 178.266 18.2371 178.57 18.4197C178.874 18.5995 179.23 18.6918 179.636 18.6967C179.9 18.6998 180.139 18.6657 180.353 18.5944C180.57 18.5203 180.758 18.4089 180.916 18.2602C181.074 18.1086 181.198 17.9197 181.286 17.6935L182.254 17.9778C182.147 18.3061 181.971 18.5938 181.726 18.8409C181.481 19.0851 181.181 19.2747 180.824 19.4097C180.467 19.5418 180.067 19.6053 179.623 19.6ZM183.661 19.5117L183.751 12.9668L184.722 12.9784L184.709 13.967L184.777 13.9678C184.901 13.6454 185.12 13.3852 185.435 13.1872C185.751 12.9892 186.104 12.8926 186.496 12.8973C186.57 12.8981 186.662 12.9007 186.773 12.9048C186.884 12.909 186.968 12.9142 187.024 12.9206L187.01 13.9432C186.976 13.9343 186.898 13.9206 186.776 13.9021C186.657 13.8808 186.531 13.8693 186.398 13.8677C186.079 13.864 185.794 13.9273 185.543 14.0579C185.294 14.1856 185.095 14.3651 184.947 14.5963C184.802 14.8247 184.727 15.0866 184.723 15.382L184.667 19.5237L183.661 19.5117ZM193.562 13.0837L191.052 19.5997L190.03 19.5875L187.699 13.0139L188.79 13.0269L190.525 18.2638L190.593 18.2646L192.471 13.0707L193.562 13.0837ZM194.596 19.6419L194.686 13.0971L195.691 13.109L195.602 19.6539L194.596 19.6419ZM195.212 12.0123C195.016 12.01 194.848 11.9412 194.708 11.806C194.57 11.6709 194.503 11.5096 194.505 11.3221C194.508 11.1346 194.58 10.9749 194.721 10.8431C194.865 10.7112 195.035 10.6465 195.231 10.6488C195.427 10.6512 195.593 10.7199 195.731 10.8551C195.871 10.9903 195.94 11.1516 195.937 11.3391C195.934 11.5266 195.861 11.6863 195.717 11.8181C195.576 11.9499 195.408 12.0147 195.212 12.0123ZM199.982 19.8424C199.351 19.8349 198.809 19.6892 198.355 19.4054C197.905 19.1188 197.559 18.7226 197.319 18.2168C197.082 17.7083 196.968 17.1188 196.977 16.4484C196.986 15.7781 197.116 15.1887 197.367 14.6802C197.622 14.169 197.971 13.7726 198.415 13.4909C198.862 13.2065 199.381 13.0677 199.972 13.0748C200.313 13.0788 200.649 13.1397 200.98 13.2573C201.31 13.3748 201.61 13.5631 201.88 13.822C202.149 14.078 202.362 14.4158 202.518 14.8353C202.674 15.2548 202.748 15.77 202.74 16.3807L202.734 16.8068L197.689 16.7467L197.701 15.8775L201.723 15.9254C201.728 15.5561 201.659 15.2257 201.515 14.9342C201.374 14.6427 201.17 14.4116 200.902 14.2408C200.638 14.07 200.323 13.9824 199.96 13.9781C199.559 13.9733 199.211 14.0686 198.916 14.264C198.624 14.4566 198.397 14.7096 198.236 15.023C198.076 15.3365 197.993 15.6736 197.988 16.0343L197.98 16.6138C197.974 17.1081 198.053 17.5281 198.219 17.8738C198.387 18.2168 198.624 18.4796 198.928 18.6622C199.233 18.8419 199.588 18.9343 199.994 18.9391C200.258 18.9422 200.497 18.9081 200.711 18.8368C200.928 18.7627 201.116 18.6513 201.274 18.5026C201.433 18.3511 201.556 18.1622 201.644 17.9359L202.612 18.2202C202.505 18.5485 202.33 18.8362 202.085 19.0833C201.84 19.3276 201.539 19.5172 201.182 19.6521C200.825 19.7843 200.425 19.8477 199.982 19.8424ZM205.502 19.7718L203.598 13.2032L204.654 13.2158L206 18.2435L206.069 18.2443L207.535 13.2501L208.609 13.2629L209.921 18.2732L209.989 18.274L211.472 13.297L212.529 13.3096L210.445 19.8306L209.456 19.8189L208.094 14.7739L207.991 14.7727L206.491 19.7836L205.502 19.7718ZM218.218 19.9232L216.314 13.3546L217.37 13.3672L218.717 18.3949L218.785 18.3958L220.251 13.4015L221.325 13.4143L222.637 18.4246L222.705 18.4254L224.188 13.4484L225.245 13.461L223.161 19.9821L222.173 19.9703L220.81 14.9253L220.707 14.9241L219.207 19.935L218.218 19.9232ZM226.281 20.0192L226.37 13.4744L227.376 13.4864L227.286 20.0312L226.281 20.0192ZM226.897 12.3897C226.701 12.3873 226.533 12.3186 226.392 12.1834C226.255 12.0482 226.188 11.8869 226.19 11.6994C226.193 11.5119 226.264 11.3522 226.406 11.2204C226.549 11.0886 226.719 11.0238 226.915 11.0262C227.111 11.0285 227.278 11.0972 227.415 11.2324C227.556 11.3676 227.624 11.529 227.622 11.7164C227.619 11.9039 227.546 12.0636 227.402 12.1954C227.261 12.3272 227.093 12.392 226.897 12.3897ZM231.86 13.5398L231.849 14.392L228.457 14.3516L228.468 13.4994L231.86 13.5398ZM229.478 11.9431L230.484 11.9551L230.399 18.1931C230.395 18.4772 230.433 18.6907 230.514 18.8338C230.597 18.974 230.703 19.069 230.834 19.1188C230.966 19.1659 231.107 19.1903 231.254 19.192C231.365 19.1933 231.456 19.1888 231.527 19.1782C231.599 19.1649 231.656 19.1542 231.698 19.1462L231.89 20.0519C231.822 20.0767 231.726 20.1011 231.604 20.1252C231.481 20.1522 231.326 20.1645 231.139 20.1623C230.855 20.1589 230.577 20.0945 230.306 19.9691C230.038 19.8438 229.816 19.655 229.641 19.4029C229.468 19.1509 229.384 18.8345 229.389 18.4539L229.478 11.9431ZM234.279 16.1767L234.226 20.1138L233.22 20.1019L233.339 11.3754L234.345 11.3874L234.301 14.5916L234.386 14.5926C234.544 14.2564 234.778 13.9907 235.088 13.7955C235.4 13.5975 235.813 13.5016 236.328 13.5077C236.774 13.513 237.163 13.6072 237.496 13.7901C237.828 13.9702 238.085 14.2446 238.264 14.6133C238.447 14.9791 238.534 15.4432 238.527 16.0057L238.47 20.1644L237.464 20.1524L237.52 16.0619C237.527 15.542 237.398 15.1385 237.132 14.8512C236.869 14.5611 236.5 14.4133 236.025 14.4076C235.696 14.4037 235.4 14.4698 235.136 14.6058C234.876 14.7419 234.669 14.9426 234.514 15.2078C234.363 15.4731 234.285 15.7961 234.279 16.1767ZM243.532 11.4968L244.793 11.5118L247.66 18.7908L247.762 18.792L250.827 11.5837L252.088 11.5987L251.969 20.3251L250.98 20.3134L251.071 13.6833L250.986 13.6823L248.168 20.2799L247.213 20.2685L244.577 13.606L244.492 13.605L244.401 20.235L243.412 20.2232L243.532 11.4968ZM256.404 20.5143C255.813 20.5073 255.297 20.3605 254.855 20.074C254.415 19.7875 254.074 19.3899 253.831 18.8813C253.591 18.3727 253.475 17.7804 253.485 17.1043C253.494 16.4226 253.626 15.8289 253.88 15.3234C254.137 14.8179 254.489 14.4272 254.936 14.1512C255.386 13.8753 255.906 13.7409 256.497 13.7479C257.088 13.755 257.603 13.9017 258.042 14.1882C258.484 14.4748 258.825 14.8737 259.066 15.3851C259.309 15.8966 259.425 16.4932 259.416 17.175C259.407 17.851 259.274 18.4404 259.017 18.9431C258.763 19.4457 258.411 19.835 257.961 20.111C257.514 20.3869 256.995 20.5214 256.404 20.5143ZM256.417 19.611C256.865 19.6163 257.236 19.5057 257.529 19.2791C257.822 19.0524 258.041 18.7524 258.185 18.3791C258.329 18.0058 258.404 17.6004 258.41 17.163C258.416 16.7255 258.352 16.3171 258.218 15.9376C258.084 15.5581 257.874 15.2502 257.588 15.0138C257.301 14.7774 256.933 14.6566 256.484 14.6512C256.036 14.6459 255.665 14.758 255.372 14.9874C255.079 15.2169 254.86 15.5197 254.716 15.8959C254.571 16.272 254.496 16.6788 254.49 17.1163C254.484 17.5538 254.548 17.9608 254.682 18.3374C254.816 18.714 255.027 19.0191 255.313 19.2527C255.6 19.4862 255.968 19.6057 256.417 19.611ZM263.36 20.5972C262.746 20.5899 262.22 20.4387 261.781 20.1437C261.341 19.8486 261.006 19.4455 260.774 18.9342C260.543 18.4228 260.431 17.8405 260.44 17.1872C260.449 16.5224 260.58 15.9373 260.831 15.4317C261.085 14.9234 261.434 14.5284 261.878 14.2467C262.326 13.9622 262.845 13.8235 263.435 13.8305C263.896 13.836 264.309 13.9262 264.676 14.101C265.043 14.2759 265.342 14.5181 265.574 14.8277C265.806 15.1373 265.947 15.4969 265.998 15.9067L264.993 15.8947C264.92 15.5955 264.753 15.3293 264.492 15.0961C264.234 14.86 263.883 14.7393 263.44 14.7341C263.048 14.7294 262.703 14.8276 262.405 15.0286C262.109 15.2268 261.877 15.5095 261.707 15.8769C261.54 16.2414 261.453 16.6708 261.446 17.165C261.439 17.6707 261.513 18.1119 261.667 18.4888C261.824 18.8657 262.047 19.1596 262.337 19.3704C262.629 19.5813 262.974 19.6891 263.372 19.6938C263.634 19.6969 263.871 19.6543 264.086 19.566C264.3 19.4776 264.482 19.3491 264.632 19.1804C264.782 19.0117 264.89 18.8084 264.956 18.5706L265.962 18.5825C265.899 18.9682 265.754 19.3145 265.525 19.6215C265.3 19.9256 265.002 20.1664 264.633 20.3438C264.267 20.5185 263.843 20.6029 263.36 20.5972ZM267.969 11.7878L270.169 15.4449L270.237 15.4457L272.536 11.8422L273.781 11.857L270.977 16.1876L273.661 20.5835L272.417 20.5686L270.216 16.9797L270.148 16.9789L267.849 20.5142L266.605 20.4994L269.477 16.1697L266.724 11.773L267.969 11.7878Z" fill="#F7F8F8"/>
</g>
<path d="M449.093 199.104L448.037 199.072C447.983 198.767 447.882 198.496 447.733 198.262C447.587 198.027 447.405 197.828 447.188 197.665C446.975 197.5 446.735 197.373 446.471 197.286C446.206 197.198 445.929 197.15 445.64 197.141C445.111 197.125 444.629 197.244 444.192 197.498C443.758 197.752 443.407 198.135 443.138 198.647C442.873 199.159 442.728 199.793 442.706 200.548C442.683 201.303 442.788 201.945 443.022 202.472C443.259 202.999 443.587 203.403 444.005 203.683C444.425 203.963 444.9 204.11 445.428 204.126C445.718 204.135 445.997 204.104 446.266 204.032C446.536 203.961 446.782 203.851 447.006 203.701C447.232 203.549 447.425 203.36 447.585 203.135C447.749 202.906 447.866 202.643 447.938 202.344L448.994 202.376C448.901 202.819 448.744 203.214 448.523 203.559C448.303 203.905 448.032 204.197 447.712 204.434C447.393 204.669 447.036 204.845 446.643 204.961C446.253 205.077 445.838 205.128 445.398 205.115C444.654 205.092 443.998 204.89 443.43 204.509C442.861 204.128 442.421 203.598 442.109 202.918C441.797 202.237 441.655 201.437 441.683 200.517C441.711 199.597 441.901 198.807 442.254 198.147C442.606 197.487 443.078 196.984 443.668 196.638C444.258 196.292 444.926 196.13 445.67 196.153C446.11 196.166 446.521 196.243 446.903 196.382C447.288 196.522 447.633 196.72 447.938 196.976C448.243 197.23 448.495 197.536 448.695 197.894C448.894 198.25 449.027 198.653 449.093 199.104ZM452.932 205.36C452.341 205.342 451.827 205.186 451.39 204.891C450.956 204.597 450.621 204.193 450.386 203.68C450.155 203.167 450.049 202.572 450.07 201.897C450.09 201.215 450.232 200.624 450.494 200.123C450.759 199.622 451.118 199.238 451.569 198.971C452.024 198.703 452.546 198.578 453.137 198.596C453.727 198.614 454.24 198.77 454.674 199.065C455.112 199.359 455.446 199.764 455.678 200.28C455.912 200.796 456.019 201.395 455.999 202.076C455.978 202.752 455.835 203.339 455.57 203.837C455.308 204.335 454.95 204.718 454.495 204.985C454.044 205.253 453.523 205.378 452.932 205.36ZM452.959 204.457C453.408 204.47 453.781 204.367 454.077 204.145C454.374 203.924 454.597 203.628 454.748 203.258C454.898 202.887 454.98 202.483 454.993 202.046C455.007 201.608 454.949 201.199 454.822 200.817C454.694 200.435 454.489 200.123 454.206 199.882C453.924 199.64 453.558 199.512 453.109 199.499C452.661 199.485 452.288 199.591 451.991 199.815C451.695 200.039 451.471 200.337 451.321 200.711C451.17 201.084 451.088 201.49 451.075 201.927C451.062 202.364 451.119 202.773 451.247 203.152C451.374 203.531 451.58 203.84 451.862 204.078C452.145 204.317 452.511 204.443 452.959 204.457ZM461.435 202.804L461.552 198.936L462.558 198.966L462.36 205.509L461.354 205.478L461.388 204.371L461.32 204.369C461.156 204.697 460.909 204.972 460.578 205.195C460.248 205.415 459.835 205.518 459.341 205.503C458.932 205.49 458.572 205.39 458.259 205.201C457.946 205.01 457.705 204.73 457.534 204.361C457.363 203.989 457.287 203.525 457.303 202.968L457.429 198.811L458.435 198.842L458.311 202.931C458.296 203.408 458.418 203.792 458.677 204.084C458.938 204.376 459.277 204.529 459.694 204.541C459.944 204.549 460.2 204.493 460.463 204.373C460.728 204.253 460.952 204.064 461.136 203.805C461.323 203.546 461.423 203.212 461.435 202.804ZM463.997 205.559L464.195 199.016L465.166 199.045L465.136 200.034L465.204 200.036C465.333 199.716 465.557 199.459 465.876 199.267C466.194 199.075 466.549 198.985 466.941 198.997C467.015 198.999 467.107 199.003 467.218 199.01C467.328 199.016 467.412 199.023 467.469 199.03L467.438 200.052C467.404 200.043 467.326 200.027 467.205 200.007C467.086 199.983 466.96 199.97 466.826 199.965C466.508 199.956 466.222 200.014 465.968 200.14C465.717 200.263 465.516 200.439 465.364 200.667C465.215 200.893 465.136 201.153 465.127 201.449L465.002 205.589L463.997 205.559ZM473.044 200.751L472.133 200.979C472.081 200.827 472.001 200.678 471.895 200.532C471.791 200.384 471.647 200.261 471.463 200.161C471.278 200.062 471.04 200.008 470.747 199.999C470.347 199.987 470.01 200.069 469.738 200.245C469.468 200.419 469.329 200.647 469.321 200.928C469.313 201.178 469.398 201.378 469.575 201.528C469.753 201.678 470.033 201.808 470.416 201.916L471.38 202.184C471.961 202.344 472.39 202.574 472.668 202.875C472.946 203.173 473.078 203.551 473.064 204.008C473.053 204.383 472.935 204.715 472.71 205.004C472.488 205.293 472.183 205.517 471.795 205.675C471.406 205.834 470.958 205.906 470.449 205.89C469.782 205.87 469.234 205.709 468.806 205.406C468.377 205.103 468.113 204.671 468.013 204.111L468.975 203.902C469.055 204.256 469.219 204.526 469.466 204.709C469.716 204.893 470.047 204.991 470.459 205.004C470.928 205.018 471.303 204.93 471.584 204.74C471.869 204.546 472.015 204.309 472.024 204.028C472.03 203.801 471.957 203.608 471.802 203.45C471.648 203.289 471.407 203.165 471.08 203.079L469.998 202.79C469.403 202.63 468.969 202.397 468.697 202.09C468.428 201.78 468.3 201.4 468.314 200.948C468.325 200.579 468.439 200.256 468.654 199.978C468.873 199.701 469.165 199.486 469.531 199.335C469.899 199.185 470.313 199.116 470.773 199.13C471.421 199.15 471.925 199.307 472.285 199.602C472.649 199.897 472.902 200.28 473.044 200.751ZM477.057 206.09C476.427 206.071 475.887 205.916 475.439 205.624C474.993 205.329 474.654 204.926 474.422 204.416C474.193 203.903 474.089 203.312 474.109 202.642C474.13 201.972 474.27 201.385 474.529 200.881C474.792 200.374 475.148 199.984 475.596 199.711C476.048 199.435 476.569 199.306 477.16 199.323C477.501 199.334 477.835 199.401 478.164 199.524C478.493 199.648 478.79 199.842 479.055 200.106C479.32 200.367 479.527 200.708 479.676 201.131C479.825 201.553 479.891 202.069 479.872 202.68L479.859 203.106L474.816 202.953L474.842 202.084L478.863 202.206C478.874 201.837 478.811 201.505 478.672 201.211C478.536 200.917 478.335 200.682 478.071 200.506C477.809 200.331 477.496 200.237 477.133 200.226C476.732 200.214 476.383 200.303 476.084 200.493C475.789 200.68 475.558 200.929 475.392 201.24C475.227 201.55 475.138 201.886 475.127 202.246L475.11 202.825C475.095 203.32 475.167 203.741 475.327 204.09C475.49 204.436 475.722 204.703 476.024 204.891C476.325 205.076 476.679 205.175 477.085 205.187C477.349 205.195 477.588 205.166 477.804 205.098C478.022 205.028 478.211 204.92 478.372 204.775C478.533 204.626 478.659 204.439 478.751 204.215L479.714 204.517C479.602 204.843 479.421 205.127 479.172 205.37C478.924 205.61 478.62 205.794 478.26 205.922C477.901 206.048 477.5 206.104 477.057 206.09ZM491.603 200.392L490.546 200.36C490.493 200.054 490.392 199.784 490.243 199.549C490.096 199.314 489.915 199.116 489.698 198.953C489.484 198.787 489.245 198.661 488.98 198.573C488.716 198.485 488.439 198.437 488.149 198.428C487.621 198.412 487.138 198.531 486.702 198.785C486.268 199.039 485.916 199.422 485.648 199.934C485.382 200.446 485.238 201.08 485.215 201.835C485.192 202.591 485.298 203.232 485.532 203.759C485.769 204.287 486.096 204.69 486.514 204.97C486.935 205.25 487.409 205.398 487.938 205.414C488.227 205.423 488.507 205.391 488.776 205.32C489.045 205.248 489.292 205.138 489.515 204.988C489.741 204.836 489.935 204.647 490.095 204.422C490.258 204.194 490.376 203.93 490.447 203.631L491.504 203.663C491.411 204.106 491.254 204.501 491.033 204.847C490.812 205.192 490.542 205.484 490.222 205.722C489.902 205.956 489.546 206.132 489.153 206.248C488.763 206.364 488.348 206.415 487.908 206.402C487.164 206.379 486.508 206.178 485.939 205.797C485.371 205.416 484.931 204.885 484.619 204.205C484.307 203.525 484.165 202.725 484.193 201.804C484.221 200.884 484.411 200.094 484.763 199.434C485.116 198.774 485.587 198.271 486.178 197.925C486.768 197.579 487.435 197.418 488.179 197.44C488.619 197.454 489.03 197.53 489.413 197.669C489.798 197.809 490.143 198.007 490.448 198.264C490.753 198.517 491.005 198.823 491.204 199.182C491.404 199.537 491.537 199.941 491.603 200.392ZM495.527 206.65C494.896 206.631 494.357 206.475 493.908 206.183C493.462 205.888 493.123 205.486 492.892 204.975C492.663 204.463 492.558 203.871 492.579 203.201C492.599 202.531 492.739 201.944 492.999 201.44C493.261 200.934 493.617 200.544 494.066 200.27C494.517 199.994 495.039 199.865 495.629 199.883C495.97 199.893 496.305 199.96 496.634 200.084C496.962 200.207 497.259 200.401 497.524 200.665C497.789 200.926 497.996 201.268 498.145 201.69C498.295 202.112 498.36 202.629 498.341 203.239L498.329 203.665L493.285 203.512L493.312 202.643L497.333 202.765C497.344 202.396 497.28 202.064 497.141 201.77C497.005 201.476 496.805 201.241 496.54 201.066C496.278 200.89 495.965 200.797 495.602 200.786C495.202 200.774 494.852 200.862 494.554 201.052C494.258 201.24 494.027 201.488 493.862 201.799C493.696 202.109 493.608 202.445 493.597 202.806L493.579 203.385C493.564 203.879 493.637 204.3 493.797 204.649C493.96 204.995 494.192 205.262 494.493 205.45C494.794 205.636 495.148 205.734 495.554 205.747C495.818 205.755 496.058 205.725 496.273 205.658C496.491 205.588 496.681 205.48 496.841 205.334C497.002 205.185 497.129 204.999 497.221 204.774L498.184 205.076C498.071 205.402 497.891 205.687 497.642 205.929C497.393 206.169 497.089 206.353 496.73 206.482C496.371 206.607 495.97 206.663 495.527 206.65ZM499.565 206.636L499.763 200.093L500.734 200.123L500.704 201.111L500.773 201.113C500.902 200.793 501.125 200.537 501.444 200.344C501.762 200.152 502.117 200.062 502.509 200.074C502.583 200.076 502.675 200.08 502.786 200.087C502.897 200.093 502.98 200.1 503.037 200.107L503.006 201.129C502.972 201.12 502.895 201.105 502.773 201.084C502.654 201.06 502.528 201.047 502.395 201.043C502.077 201.033 501.791 201.091 501.537 201.217C501.286 201.34 501.084 201.516 500.932 201.744C500.784 201.97 500.705 202.231 500.696 202.526L500.57 206.666L499.565 206.636ZM507.277 200.321L507.252 201.173L503.861 201.07L503.887 200.218L507.277 200.321ZM504.922 198.681L505.928 198.711L505.739 204.947C505.73 205.231 505.765 205.445 505.843 205.589C505.924 205.731 506.029 205.828 506.158 205.88C506.29 205.93 506.43 205.957 506.578 205.961C506.689 205.965 506.78 205.962 506.851 205.952C506.922 205.94 506.98 205.931 507.022 205.924L507.199 206.833C507.131 206.856 507.035 206.879 506.912 206.901C506.789 206.925 506.634 206.935 506.446 206.929C506.162 206.921 505.886 206.851 505.617 206.721C505.351 206.591 505.132 206.398 504.961 206.142C504.792 205.887 504.714 205.569 504.725 205.189L504.922 198.681ZM508.387 206.903L508.585 200.36L509.591 200.391L509.393 206.933L508.387 206.903ZM509.13 199.285C508.934 199.279 508.767 199.208 508.629 199.07C508.494 198.932 508.429 198.77 508.435 198.582C508.44 198.395 508.515 198.237 508.658 198.107C508.804 197.978 508.975 197.916 509.171 197.922C509.367 197.928 509.532 198 509.667 198.138C509.805 198.276 509.872 198.438 509.866 198.626C509.86 198.813 509.784 198.971 509.638 199.1C509.495 199.23 509.326 199.291 509.13 199.285ZM514.141 200.529L514.116 201.38L510.589 201.274L510.615 200.422L514.141 200.529ZM511.473 206.996L511.698 199.551C511.71 199.176 511.807 198.866 511.991 198.622C512.174 198.377 512.409 198.197 512.694 198.08C512.978 197.964 513.277 197.91 513.589 197.92C513.836 197.927 514.037 197.953 514.192 197.998C514.347 198.042 514.463 198.083 514.538 198.119L514.222 198.979C514.172 198.961 514.101 198.937 514.011 198.909C513.924 198.881 513.808 198.864 513.663 198.86C513.331 198.85 513.089 198.926 512.936 199.089C512.786 199.253 512.706 199.496 512.696 199.82L512.478 207.027L511.473 206.996ZM515.148 207.108L515.346 200.565L516.351 200.596L516.153 207.138L515.148 207.108ZM515.89 199.49C515.694 199.484 515.528 199.412 515.39 199.275C515.255 199.137 515.19 198.974 515.195 198.787C515.201 198.6 515.276 198.441 515.419 198.312C515.565 198.183 515.736 198.121 515.932 198.127C516.128 198.133 516.293 198.205 516.428 198.343C516.566 198.48 516.632 198.643 516.627 198.83C516.621 199.018 516.545 199.176 516.399 199.305C516.256 199.434 516.086 199.496 515.89 199.49ZM520.444 207.404C519.831 207.386 519.307 207.225 518.873 206.922C518.439 206.619 518.11 206.21 517.887 205.694C517.664 205.179 517.562 204.594 517.582 203.941C517.602 203.277 517.742 202.694 518.002 202.193C518.264 201.689 518.62 201.301 519.069 201.027C519.52 200.751 520.041 200.622 520.632 200.64C521.092 200.654 521.504 200.752 521.868 200.933C522.232 201.115 522.527 201.362 522.754 201.676C522.98 201.99 523.116 202.352 523.16 202.763L522.155 202.732C522.087 202.432 521.925 202.163 521.668 201.925C521.413 201.684 521.065 201.557 520.622 201.543C520.23 201.532 519.883 201.623 519.582 201.819C519.283 202.012 519.046 202.29 518.87 202.654C518.697 203.016 518.603 203.443 518.588 203.937C518.573 204.443 518.639 204.885 518.787 205.265C518.937 205.645 519.156 205.943 519.442 206.159C519.731 206.375 520.074 206.489 520.472 206.501C520.733 206.509 520.971 206.471 521.187 206.387C521.403 206.302 521.587 206.177 521.74 206.011C521.893 205.845 522.004 205.644 522.074 205.407L523.079 205.438C523.01 205.822 522.859 206.166 522.626 206.469C522.395 206.769 522.094 207.004 521.722 207.174C521.353 207.342 520.927 207.419 520.444 207.404ZM526.207 207.596C525.793 207.583 525.419 207.494 525.086 207.327C524.753 207.158 524.491 206.922 524.301 206.617C524.112 206.31 524.023 205.944 524.036 205.518C524.048 205.143 524.131 204.841 524.285 204.613C524.44 204.382 524.643 204.203 524.894 204.077C525.145 203.951 525.421 203.86 525.721 203.804C526.024 203.745 526.328 203.7 526.633 203.67C527.032 203.63 527.356 203.602 527.604 203.584C527.854 203.563 528.037 203.522 528.153 203.46C528.271 203.398 528.333 203.286 528.338 203.124L528.339 203.09C528.352 202.67 528.247 202.34 528.024 202.1C527.804 201.86 527.462 201.734 526.999 201.719C526.519 201.705 526.14 201.799 525.861 202.001C525.582 202.202 525.384 202.421 525.266 202.656L524.322 202.286C524.504 201.894 524.741 201.591 525.031 201.379C525.325 201.163 525.642 201.016 525.983 200.938C526.326 200.858 526.663 200.823 526.992 200.832C527.202 200.839 527.443 200.872 527.714 200.931C527.988 200.988 528.25 201.097 528.501 201.258C528.755 201.419 528.962 201.657 529.123 201.971C529.284 202.286 529.357 202.703 529.341 203.223L529.211 207.533L528.205 207.503L528.232 206.617L528.181 206.615C528.109 206.755 527.99 206.904 527.827 207.061C527.663 207.218 527.447 207.349 527.179 207.455C526.912 207.56 526.588 207.607 526.207 207.596ZM526.388 206.698C526.786 206.71 527.123 206.642 527.4 206.494C527.681 206.346 527.894 206.151 528.041 205.908C528.19 205.665 528.269 205.407 528.277 205.135L528.305 204.215C528.261 204.265 528.166 204.309 528.02 204.347C527.876 204.382 527.711 204.413 527.522 204.438C527.337 204.461 527.156 204.481 526.979 204.499C526.805 204.513 526.664 204.526 526.556 204.537C526.294 204.563 526.048 204.611 525.818 204.681C525.592 204.748 525.406 204.855 525.263 205.001C525.122 205.144 525.048 205.344 525.04 205.599C525.029 205.949 525.151 206.217 525.404 206.403C525.66 206.587 525.988 206.685 526.388 206.698ZM533.885 201.127L533.859 201.978L530.469 201.876L530.494 201.024L533.885 201.127ZM531.53 199.486L532.535 199.517L532.346 205.753C532.338 206.036 532.373 206.251 532.451 206.395C532.532 206.537 532.637 206.634 532.766 206.686C532.898 206.736 533.038 206.763 533.185 206.767C533.296 206.77 533.387 206.767 533.459 206.758C533.53 206.746 533.587 206.737 533.63 206.729L533.807 207.638C533.738 207.662 533.642 207.685 533.519 207.707C533.396 207.731 533.241 207.741 533.054 207.735C532.77 207.726 532.493 207.657 532.224 207.527C531.958 207.396 531.74 207.204 531.568 206.948C531.4 206.693 531.321 206.375 531.333 205.995L531.53 199.486ZM534.995 207.709L535.193 201.166L536.198 201.197L536 207.739L534.995 207.709ZM535.737 200.091C535.541 200.085 535.374 200.013 535.236 199.876C535.101 199.738 535.037 199.575 535.042 199.388C535.048 199.201 535.122 199.042 535.266 198.913C535.412 198.784 535.583 198.722 535.778 198.728C535.974 198.734 536.14 198.806 536.275 198.944C536.413 199.081 536.479 199.244 536.473 199.431C536.468 199.619 536.392 199.777 536.246 199.906C536.103 200.035 535.933 200.097 535.737 200.091ZM540.291 208.005C539.7 207.988 539.187 207.831 538.749 207.537C538.315 207.242 537.98 206.838 537.746 206.325C537.514 205.812 537.408 205.218 537.429 204.542C537.449 203.861 537.591 203.269 537.853 202.769C538.119 202.268 538.477 201.884 538.928 201.616C539.383 201.348 539.905 201.224 540.496 201.241C541.087 201.259 541.599 201.416 542.034 201.71C542.471 202.005 542.805 202.41 543.037 202.926C543.272 203.442 543.378 204.04 543.358 204.722C543.337 205.398 543.195 205.984 542.929 206.482C542.667 206.98 542.309 207.363 541.854 207.631C541.403 207.898 540.882 208.023 540.291 208.005ZM540.318 207.102C540.767 207.116 541.14 207.012 541.436 206.791C541.733 206.57 541.957 206.274 542.107 205.903C542.257 205.533 542.339 205.129 542.353 204.691C542.366 204.254 542.309 203.844 542.181 203.462C542.053 203.081 541.848 202.769 541.565 202.527C541.283 202.286 540.917 202.158 540.469 202.144C540.02 202.131 539.647 202.236 539.351 202.46C539.054 202.684 538.83 202.983 538.68 203.356C538.529 203.73 538.447 204.135 538.434 204.573C538.421 205.01 538.478 205.418 538.606 205.797C538.734 206.176 538.939 206.485 539.221 206.724C539.504 206.963 539.87 207.089 540.318 207.102ZM545.715 204.094L545.596 208.03L544.59 207.999L544.788 201.457L545.76 201.486L545.729 202.508L545.814 202.511C545.977 202.183 546.218 201.923 546.537 201.731C546.855 201.536 547.262 201.446 547.756 201.461C548.199 201.475 548.583 201.577 548.91 201.769C549.237 201.958 549.487 202.238 549.661 202.61C549.834 202.979 549.913 203.442 549.896 203.999L549.77 208.156L548.765 208.126L548.888 204.037C548.904 203.523 548.783 203.118 548.524 202.823C548.266 202.526 547.904 202.37 547.439 202.356C547.118 202.346 546.829 202.407 546.572 202.538C546.318 202.67 546.114 202.867 545.961 203.129C545.808 203.392 545.726 203.713 545.715 204.094Z" fill="#F7F8F8"/>
<ellipse cx="7.52717" cy="7.59233" rx="7.52717" ry="7.59233" transform="matrix(0.99958 0.0290127 -0.0315807 0.999502 724.232 443.052)" fill="white"/>
<path d="M730.558 481.214L731.277 458.448" stroke="white" stroke-width="2" stroke-linecap="round"/>
<ellipse cx="7.52717" cy="7.59233" rx="7.52717" ry="7.59233" transform="matrix(0.99958 0.0290127 -0.0315807 0.999502 485.125 213.112)" fill="white"/>
<path d="M491.451 250.273L492.17 227.507" stroke="white" stroke-width="2" stroke-linecap="round"/>
<ellipse cx="7.52717" cy="7.59233" rx="7.52717" ry="7.59233" transform="matrix(0.99958 0.0290127 -0.0315807 0.999502 335.887 147.238)" fill="white"/>
<path d="M342.212 185.399L342.932 162.634" stroke="white" stroke-width="2" stroke-linecap="round"/>
<ellipse cx="7.52717" cy="7.59233" rx="7.52717" ry="7.59233" transform="matrix(0.99958 0.0290127 -0.0315807 0.999502 191.73 30.9187)" fill="white"/>
<path d="M198.056 69.0794L198.775 46.3137" stroke="white" stroke-width="2" stroke-linecap="round"/>
<path d="M614.533 384.99C621.926 389.619 621.51 397.487 613.597 402.669L605.025 408.283C597.786 413.024 596.478 420.052 601.911 425.011C609.006 431.486 624.32 431.723 633.723 425.504L668.479 402.513C675.151 398.099 685.741 397.58 692.248 401.347C698.828 405.157 698.753 411.909 692.078 416.416L674.897 428.018C665.908 434.088 665.537 443.143 674.058 448.499L702.522 466.387L746.259 493.874" stroke="url(#paint1_linear_303_2059)" stroke-width="12"/>
<defs>
<filter id="filter0_d_303_2059" x="694.705" y="424.303" width="109.455" height="16.1846" filterUnits="userSpaceOnUse" color-interpolation-filters="sRGB">
<feFlood flood-opacity="0" result="BackgroundImageFix"/>
<feColorMatrix in="SourceAlpha" type="matrix" values="0 0 0 0 0 0 0 0 0 0 0 0 0 0 0 0 0 0 127 0" result="hardAlpha"/>
<feOffset dx="6" dy="4"/>
<feGaussianBlur stdDeviation="1"/>
<feComposite in2="hardAlpha" operator="out"/>
<feColorMatrix type="matrix" values="0 0 0 0 0 0 0 0 0 0 0 0 0 0 0 0 0 0 0.25 0"/>
<feBlend mode="normal" in2="BackgroundImageFix" result="effect1_dropShadow_303_2059"/>
<feBlend mode="normal" in="SourceGraphic" in2="effect1_dropShadow_303_2059" result="shape"/>
</filter>
<filter id="filter1_d_303_2059" x="127.467" y="9.84326" width="154.318" height="16.8936" filterUnits="userSpaceOnUse" color-interpolation-filters="sRGB">
<feFlood flood-opacity="0" result="BackgroundImageFix"/>
<feColorMatrix in="SourceAlpha" type="matrix" values="0 0 0 0 0 0 0 0 0 0 0 0 0 0 0 0 0 0 127 0" result="hardAlpha"/>
<feOffset dx="6" dy="4"/>
<feGaussianBlur stdDeviation="1"/>
<feComposite in2="hardAlpha" operator="out"/>
<feColorMatrix type="matrix" values="0 0 0 0 0 0 0 0 0 0 0 0 0 0 0 0 0 0 0.25 0"/>
<feBlend mode="normal" in2="BackgroundImageFix" result="effect1_dropShadow_303_2059"/>
<feBlend mode="normal" in="SourceGraphic" in2="effect1_dropShadow_303_2059" result="shape"/>
</filter>
<linearGradient id="paint0_linear_303_2059" x1="79.2965" y1="74.4644" x2="523.923" y2="660.596" gradientUnits="userSpaceOnUse">
<stop stop-color="#00BEFF" stop-opacity="0"/>
<stop offset="0.167532" stop-color="#00BEFF"/>
<stop offset="0.802092" stop-color="#00BEFF"/>
<stop offset="1" stop-color="#00BEFF" stop-opacity="0"/>
</linearGradient>
<linearGradient id="paint1_linear_303_2059" x1="569.261" y1="360.242" x2="660.283" y2="541.158" gradientUnits="userSpaceOnUse">
<stop offset="0.14196" stop-color="#71B37F" stop-opacity="0"/>
<stop offset="0.339067" stop-color="#71B37F"/>
<stop offset="0.992805" stop-color="#71B37F" stop-opacity="0"/>
</linearGradient>
</defs>
</svg>
