<svg width="20" height="19" viewBox="0 0 20 19" fill="none" xmlns="http://www.w3.org/2000/svg">
<path d="M19.5601 6.78074L17.8874 5.39892V2.70801C17.8862 2.63828 17.865 2.57035 17.8264 2.51233C17.7877 2.4543 17.7331 2.40862 17.6692 2.38074L14.0692 0.744371H13.9237L13.7056 0.817099L11.7056 2.12619L9.70556 0.780735L9.48738 0.708008H9.34193L5.74193 2.38074C5.67801 2.40862 5.62345 2.4543 5.58477 2.51233C5.54608 2.57035 5.5249 2.63828 5.52374 2.70801V5.39892L3.85102 6.78074C3.80056 6.80922 3.75975 6.85213 3.73384 6.90396C3.70792 6.95579 3.69808 7.01418 3.70556 7.07164V10.3444C3.69808 10.4018 3.70792 10.4602 3.73384 10.5121C3.75975 10.5639 3.80056 10.6068 3.85102 10.6353L5.52374 12.0171V14.708C5.5249 14.7777 5.54608 14.8457 5.58477 14.9037C5.62345 14.9617 5.67801 15.0074 5.74193 15.0353L9.34193 16.6716H9.48738L9.70556 16.5989L11.7056 15.2898L13.7056 16.6353L13.9237 16.708H14.0692L17.6692 15.0716C17.7331 15.0438 17.7877 14.9981 17.8264 14.9401C17.865 14.882 17.8862 14.8141 17.8874 14.7444V12.0171L19.5601 10.6353C19.6047 10.6095 19.6417 10.5724 19.6672 10.5277C19.6928 10.4829 19.706 10.4322 19.7056 10.3807V7.03528C19.706 6.98377 19.6928 6.93307 19.6672 6.88835C19.6417 6.84362 19.6047 6.80649 19.5601 6.78074ZM17.7056 9.25346H18.251V9.83528L16.9783 10.8535L16.8328 10.9626L16.6874 10.8898C16.624 10.8534 16.5535 10.831 16.4807 10.8243C16.4079 10.8175 16.3345 10.8265 16.2655 10.8507C16.1965 10.8748 16.1335 10.9136 16.0808 10.9643C16.0281 11.0149 15.9869 11.0764 15.9601 11.1444C15.8949 11.2702 15.8812 11.4165 15.9219 11.5522C15.9626 11.688 16.0546 11.8025 16.1783 11.8716L16.4328 11.9807V13.9444L14.0328 15.0716L12.5056 14.0535L12.251 13.8716V9.25346H12.7965C12.9411 9.25346 13.0799 9.196 13.1822 9.0937C13.2845 8.99141 13.3419 8.85267 13.3419 8.70801C13.3419 8.56334 13.2845 8.42461 13.1822 8.32231C13.0799 8.22002 12.9411 8.16255 12.7965 8.16255H12.251V3.50801L12.5056 3.32619L14.0328 2.30801L16.4328 3.43528V5.39892L16.1783 5.50801C16.0546 5.57713 15.9626 5.6917 15.9219 5.82745C15.8812 5.9632 15.8949 6.10947 15.9601 6.23528C15.9967 6.33111 16.0615 6.41364 16.1458 6.47204C16.2302 6.53044 16.3302 6.56199 16.4328 6.56255L16.6874 6.48983L16.8328 6.4171L16.9783 6.52619L18.251 7.58074V8.16255H17.7056C17.5609 8.16255 17.4222 8.22002 17.3199 8.32231C17.2176 8.42461 17.1601 8.56334 17.1601 8.70801C17.1601 8.85267 17.2176 8.99141 17.3199 9.0937C17.4222 9.196 17.5609 9.25346 17.7056 9.25346ZM10.6147 9.25346H11.1601V13.908L10.9056 14.0898L9.37829 15.108L6.97829 13.9807V12.0171L7.23284 11.908C7.35656 11.8389 7.44852 11.7243 7.48925 11.5886C7.52997 11.4528 7.51626 11.3066 7.45102 11.1807C7.42419 11.1127 7.38302 11.0513 7.33032 11.0006C7.27763 10.9499 7.21463 10.9112 7.14562 10.8871C7.07662 10.8629 7.00322 10.8539 6.93042 10.8606C6.85762 10.8674 6.78713 10.8898 6.72374 10.9262L6.57829 10.9989L6.43284 10.8898L5.16011 9.83528V9.25346H5.70556C5.85023 9.25346 5.98897 9.196 6.09126 9.0937C6.19355 8.99141 6.25102 8.85267 6.25102 8.70801C6.25102 8.56334 6.19355 8.42461 6.09126 8.32231C5.98897 8.22002 5.85023 8.16255 5.70556 8.16255H5.16011V7.58074L6.43284 6.56255L6.57829 6.45346L6.72374 6.52619L6.97829 6.59892C7.08089 6.59835 7.18092 6.5668 7.26528 6.5084C7.34963 6.45 7.41438 6.36748 7.45102 6.27164C7.51626 6.14583 7.52997 5.99956 7.48925 5.86381C7.44852 5.72806 7.35656 5.6135 7.23284 5.54437L6.97829 5.43528V3.43528L9.37829 2.30801L10.9056 3.32619L11.1601 3.50801V8.16255H10.6147C10.47 8.16255 10.3313 8.22002 10.229 8.32231C10.1267 8.42461 10.0692 8.56334 10.0692 8.70801C10.0692 8.85267 10.1267 8.99141 10.229 9.0937C10.3313 9.196 10.47 9.25346 10.6147 9.25346Z" fill="#858699"/>
<path d="M8.03448 3.58102C7.94602 3.6956 7.89804 3.83627 7.89804 3.98102C7.89804 4.12578 7.94602 4.26645 8.03448 4.38102L8.97994 5.29011V6.3083L7.52539 7.76284V9.65375L8.97994 11.1083V12.1265L8.03448 13.0356C7.94602 13.1501 7.89804 13.2908 7.89804 13.4356C7.89804 13.5803 7.94602 13.721 8.03448 13.8356C8.088 13.8854 8.15099 13.9239 8.21971 13.9489C8.28842 13.9739 8.36146 13.9848 8.43448 13.981C8.5075 13.9848 8.58054 13.9739 8.64925 13.9489C8.71797 13.9239 8.78096 13.8854 8.83448 13.8356L10.0708 12.5628V10.6719L8.6163 9.21739V8.19921L10.0708 6.74466V4.85375L8.83448 3.58102C8.7199 3.49256 8.57923 3.44458 8.43448 3.44458C8.28973 3.44458 8.14906 3.49256 8.03448 3.58102Z" fill="#858699"/>
<path d="M14.4327 5.29011L15.3782 4.38102C15.4666 4.26645 15.5146 4.12578 15.5146 3.98102C15.5146 3.83627 15.4666 3.6956 15.3782 3.58102C15.2636 3.49256 15.1229 3.44458 14.9782 3.44458C14.8334 3.44458 14.6927 3.49256 14.5782 3.58102L13.3418 4.85375V6.74466L14.7963 8.19921V9.21739L13.3418 10.6719V12.5628L14.5782 13.8356C14.6899 13.9304 14.8316 13.9824 14.9782 13.9824C15.1247 13.9824 15.2664 13.9304 15.3782 13.8356C15.4666 13.721 15.5146 13.5803 15.5146 13.4356C15.5146 13.2908 15.4666 13.1501 15.3782 13.0356L14.4327 12.1265V11.1083L15.8873 9.65375V7.76284L14.4327 6.3083V5.29011Z" fill="#858699"/>
</svg>
