<svg width="85" height="85" viewBox="0 0 85 85" fill="none" xmlns="http://www.w3.org/2000/svg">
<g clip-path="url(#clip0_303_2794)">
<path d="M15.0521 -8.40766e-06H69.9479C71.9251 -0.00191971 73.8833 0.396092 75.7103 1.17125C77.5373 1.94641 79.1974 3.08349 80.5955 4.51742C81.9936 5.95136 83.1022 7.65399 83.858 9.52788C84.6138 11.4018 85.0019 13.4101 85 15.438V69.5619C85.0019 71.5898 84.6138 73.5982 83.858 75.4721C83.1022 77.346 81.9936 79.0486 80.5955 80.4825C79.1974 81.9165 77.5373 83.0536 75.7103 83.8287C73.8833 84.6039 71.9251 85.0019 69.9479 85H15.0521C13.0749 85.0019 11.1167 84.6039 9.2897 83.8287C7.46266 83.0536 5.80259 81.9165 4.4045 80.4825C3.00642 79.0486 1.89776 77.346 1.14198 75.4721C0.386205 73.5982 -0.00185684 71.5898 6.67985e-06 69.5619V15.438C-0.00185684 13.4101 0.386205 11.4018 1.14198 9.52788C1.89776 7.65399 3.00642 5.95136 4.4045 4.51742C5.80259 3.08349 7.46266 1.94641 9.2897 1.17125C11.1167 0.396092 13.0749 -0.00191971 15.0521 -8.40766e-06Z" fill="#659AD2"/>
<path d="M37.0043 68.9086C22.4587 68.9086 10.625 57.0749 10.625 42.5293C10.625 27.9837 22.4587 16.15 37.0043 16.15C46.3902 16.15 55.1437 21.2008 59.8485 29.3313L48.4322 35.9375C46.0775 31.8679 41.6983 29.3396 37.0043 29.3396C29.7314 29.3396 23.8147 35.2563 23.8147 42.5293C23.8147 49.8019 29.7314 55.7189 37.0043 55.7189C41.6988 55.7189 46.078 53.1907 48.433 49.1202L59.8493 55.7262C55.1445 63.8575 46.3907 68.9086 37.0043 68.9086Z" fill="white"/>
<path d="M63.383 41.0637H60.4517V38.1327H57.5211V41.0637H54.5898V43.9946H57.5211V46.9258H60.4517V43.9946H63.383V41.0637Z" fill="white"/>
<path d="M74.3751 41.0637H71.4439V38.1327H68.5132V41.0637H65.582V43.9946H68.5132V46.9258H71.4439V43.9946H74.3751V41.0637Z" fill="white"/>
</g>
<defs>
<clipPath id="clip0_303_2794">
<rect width="85" height="85" fill="white"/>
</clipPath>
</defs>
</svg>
