<svg width="85" height="85" viewBox="0 0 85 85" fill="none" xmlns="http://www.w3.org/2000/svg">
<g clip-path="url(#clip0_303_2825)">
<path d="M15.0521 6.85113e-06H69.9479C71.9251 -0.00190445 73.8833 0.396108 75.7103 1.17126C77.5373 1.94642 79.1974 3.0835 80.5955 4.51744C81.9936 5.95137 83.1022 7.65401 83.858 9.5279C84.6138 11.4018 85.0019 13.4102 85 15.438V69.562C85.0019 71.5899 84.6138 73.5982 83.858 75.4721C83.1022 77.346 81.9936 79.0486 80.5955 80.4826C79.1974 81.9165 77.5373 83.0536 75.7103 83.8287C73.8833 84.6039 71.9251 85.0019 69.9479 85H15.0521C13.0749 85.0019 11.1167 84.6039 9.2897 83.8287C7.46266 83.0536 5.80259 81.9165 4.4045 80.4826C3.00642 79.0486 1.89776 77.346 1.14198 75.4721C0.386205 73.5982 -0.00185684 71.5899 6.67985e-06 69.562V15.438C-0.00185684 13.4102 0.386205 11.4018 1.14198 9.5279C1.89776 7.65401 3.00642 5.95137 4.4045 4.51744C5.80259 3.0835 7.46266 1.94642 9.2897 1.17126C11.1167 0.396108 13.0749 -0.00190445 15.0521 6.85113e-06Z" fill="#F0F0F0"/>
<path d="M34.6564 58.3763C34.6564 58.3763 32.4329 59.6694 36.2389 60.1069C40.8497 60.633 43.2063 60.5575 48.2875 59.5958C48.2875 59.5958 49.6234 60.4335 51.4891 61.159C40.0984 66.0408 25.7096 60.8762 34.6564 58.3763Z" fill="#5382A1"/>
<path d="M33.2645 52.0057C33.2645 52.0057 30.7705 53.8518 34.5794 54.2457C39.5048 54.7539 43.3946 54.7954 50.1254 53.4994C50.1254 53.4994 51.0563 54.4432 52.5202 54.9593C38.7481 58.9865 23.4085 55.2769 33.2645 52.0057Z" fill="#5382A1"/>
<path d="M44.9981 41.1992C47.8048 44.4306 44.2607 47.3384 44.2607 47.3384C44.2607 47.3384 51.3873 43.6594 48.1144 39.0525C45.0576 34.7562 42.7134 32.6216 55.4038 25.2616C55.4038 25.2616 35.4841 30.2366 44.9981 41.1992Z" fill="#E76F00"/>
<path d="M60.0642 63.0883C60.0642 63.0883 61.7097 64.4441 58.252 65.493C51.6771 67.4847 30.8867 68.0862 25.1111 65.5723C23.035 64.6691 26.9284 63.4157 28.1531 63.1527C29.4303 62.8758 30.1602 62.9273 30.1602 62.9273C27.8513 61.3008 15.2365 66.1211 23.7525 67.5015C46.9769 71.2678 66.0883 65.8055 60.0642 63.0883Z" fill="#5382A1"/>
<path d="M35.7271 45.4052C35.7271 45.4052 25.1517 47.917 31.9821 48.8292C34.8661 49.2153 40.6152 49.1279 45.9704 48.6793C50.347 48.3101 54.7416 47.5251 54.7416 47.5251C54.7416 47.5251 53.1984 48.186 52.0819 48.9484C41.3428 51.7728 20.5969 50.4588 26.5694 47.5698C31.6203 45.1283 35.7271 45.4052 35.7271 45.4052Z" fill="#5382A1"/>
<path d="M54.6979 56.0092C65.6147 50.3364 60.5672 44.8849 57.0441 45.6194C56.1806 45.7991 55.7956 45.9548 55.7956 45.9548C55.7956 45.9548 56.1162 45.4527 56.7284 45.2353C63.6982 42.7849 69.0584 52.4623 54.4785 56.2951C54.4785 56.2953 54.6474 56.1442 54.6979 56.0092Z" fill="#5382A1"/>
<path d="M48.1145 13.3772C48.1145 13.3772 54.1604 19.4251 42.3802 28.7251C32.9338 36.1853 40.2261 40.4389 42.3763 45.2988C36.8623 40.3238 32.8157 35.9443 35.5304 31.8682C39.5151 25.8849 50.5539 22.984 48.1145 13.3772Z" fill="#E76F00"/>
<path d="M36.7986 71.3811C47.2773 72.0519 63.3686 71.0089 63.7497 66.0507C63.7497 66.0507 63.0172 67.9303 55.0896 69.4231C46.1458 71.1062 35.1148 70.9097 28.5723 69.831C28.5724 69.8308 29.9116 70.9395 36.7986 71.3811Z" fill="#5382A1"/>
</g>
<defs>
<clipPath id="clip0_303_2825">
<rect width="85" height="85" fill="white"/>
</clipPath>
</defs>
</svg>
