<svg width="85" height="85" viewBox="0 0 85 85" fill="none" xmlns="http://www.w3.org/2000/svg">
<g clip-path="url(#clip0_303_2770)">
<path d="M15.0521 6.85113e-06H69.9479C71.9251 -0.00190445 73.8833 0.396108 75.7103 1.17126C77.5373 1.94642 79.1974 3.0835 80.5955 4.51744C81.9936 5.95137 83.1022 7.65401 83.858 9.5279C84.6138 11.4018 85.0019 13.4102 85 15.438V69.562C85.0019 71.5899 84.6138 73.5982 83.858 75.4721C83.1022 77.346 81.9936 79.0486 80.5955 80.4826C79.1974 81.9165 77.5373 83.0536 75.7103 83.8287C73.8833 84.6039 71.9251 85.0019 69.9479 85H15.0521C13.0749 85.0019 11.1167 84.6039 9.2897 83.8287C7.46266 83.0536 5.80259 81.9165 4.4045 80.4826C3.00642 79.0486 1.89776 77.346 1.14198 75.4721C0.386205 73.5982 -0.00185684 71.5899 6.67985e-06 69.562V15.438C-0.00185684 13.4102 0.386205 11.4018 1.14198 9.5279C1.89776 7.65401 3.00642 5.95137 4.4045 4.51744C5.80259 3.0835 7.46266 1.94642 9.2897 1.17126C11.1167 0.396108 13.0749 -0.00190445 15.0521 6.85113e-06Z" fill="#F7DF1E"/>
<path d="M57.2432 66.5091C58.9553 69.3047 61.1829 71.3595 65.1225 71.3595C68.4321 71.3595 70.5463 69.7054 70.5463 67.4198C70.5463 64.6809 68.3741 63.7109 64.7313 62.1174L62.7344 61.2607C56.9706 58.8051 53.1416 55.729 53.1416 49.2258C53.1416 43.2353 57.7059 38.675 64.8392 38.675C69.9176 38.675 73.5686 40.4425 76.1995 45.0702L69.9797 49.0639C68.6102 46.6083 67.1329 45.6409 64.8392 45.6409C62.4997 45.6409 61.0169 47.1251 61.0169 49.0639C61.0169 51.4601 62.501 52.4301 65.928 53.9143L67.9248 54.7697C74.7113 57.6799 78.5431 60.6468 78.5431 67.3173C78.5431 74.5085 72.894 78.4482 65.3074 78.4482C57.8894 78.4482 53.0971 74.9133 50.7521 70.2801L57.2432 66.5091ZM29.0272 67.2012C30.282 69.4274 31.4234 71.3096 34.1677 71.3096C36.7919 71.3096 38.4474 70.2828 38.4474 66.2905V39.131H46.4347V66.3985C46.4347 74.6691 41.5856 78.4334 34.5077 78.4334C28.1125 78.4334 24.4089 75.1238 22.5254 71.1376L29.0272 67.2012Z" fill="black"/>
</g>
<defs>
<clipPath id="clip0_303_2770">
<rect width="85" height="85" fill="white"/>
</clipPath>
</defs>
</svg>
