<svg width="21" height="25" viewBox="0 0 21 25" fill="none" xmlns="http://www.w3.org/2000/svg">
<path d="M8.29256 2.50189C7.32606 2.78756 6.42074 3.24674 5.61459 3.86545L4.30685 2.37276L1.83556 5.19312L3.16471 6.70974C2.65656 7.59917 2.27511 8.58732 2.03611 9.64277H0V14.6438H2.03611C2.28079 15.7232 2.67316 16.7343 3.19835 17.6397L1.83599 19.1942L4.30729 22.014L5.67008 20.4595C6.46487 21.0603 7.35359 21.5085 8.30173 21.7877V24.109H10.0766V20.0971C6.40763 19.8538 3.49547 16.3913 3.49547 12.1435C3.49547 7.89531 6.40763 4.43331 10.0766 4.19001V0.178101H8.29256V2.50189Z" fill="white"/>
<path d="M6.55469 12.1437C6.55469 14.464 8.09794 16.3725 10.0772 16.6063V14.5891C9.06705 14.3703 8.30242 13.3602 8.30242 12.1437C8.30242 10.9272 9.06705 9.91709 10.0772 9.69822V7.68103C8.09794 7.91486 6.55469 9.82336 6.55469 12.1437Z" fill="white"/>
<path d="M15.9652 1.21815V0.208069H11.1777V4.19655H15.9652V3.19943H19.0146V20.1505H11.1777V21.1476V21.8127V24.139H20.7623V1.21815H15.9652Z" fill="white"/>
<path d="M17.4814 9.50323L15.4793 11.8748L15.4833 11.8779L12.7538 15.112L11.1777 13.2436V15.0463L12.3369 16.4192L12.3339 16.4234L12.7463 16.91L12.7494 16.9074L12.752 16.91L12.9355 16.6936L12.9368 16.6946L16.2431 12.7787L18.2438 10.4071L17.4814 9.50323Z" fill="white"/>
</svg>
