<svg width="16" height="17" viewBox="0 0 16 17" fill="none" xmlns="http://www.w3.org/2000/svg">
<g clip-path="url(#clip0_1028_3926)">
<path fill-rule="evenodd" clip-rule="evenodd" d="M12.6541 11.2014L14.7544 12.0275C14.8576 12.068 14.9394 12.1496 14.9801 12.2528C15.0511 12.4326 14.9828 12.633 14.827 12.7346L14.755 12.7718L8.35645 15.2986C8.15935 15.3765 7.94372 15.3893 7.74052 15.3371L7.62035 15.298L1.25259 12.7715C1.1499 12.7308 1.06864 12.6494 1.02806 12.5466C0.95707 12.3669 1.02536 12.1665 1.1812 12.0649L1.25319 12.0277L3.34307 11.2024L7.06917 12.6813C7.65895 12.9153 8.31525 12.9159 8.9054 12.6828L12.6541 11.2014ZM12.6541 7.18313L14.7544 8.00914C14.8576 8.04971 14.9394 8.13133 14.9801 8.23449C15.0511 8.41428 14.9828 8.61464 14.827 8.71629L14.755 8.75345L10.6001 10.3945L9.619 10.7812L8.35645 11.2803L8.317 11.2922L8.23566 11.3194C8.20301 11.3277 8.17004 11.3344 8.13688 11.3393C8.12585 11.3408 8.11547 11.3422 8.10507 11.3434C8.02541 11.353 7.94422 11.3526 7.86397 11.3425L7.74052 11.3188L7.62035 11.2797L6.391 10.7912L5.38907 10.3945L1.25259 8.75322C1.1499 8.71248 1.06864 8.63108 1.02806 8.52833C0.95707 8.34854 1.02536 8.14817 1.1812 8.04654L1.25319 8.00937L3.34307 7.18413L7.06917 8.66302C7.65895 8.89703 8.31525 8.89755 8.9054 8.66449L12.6541 7.18313ZM7.62186 1.47614C7.85734 1.38316 8.11932 1.38295 8.35494 1.47556L14.7544 3.99077C14.8576 4.03134 14.9394 4.11296 14.9801 4.21612C15.0612 4.42159 14.9605 4.65394 14.755 4.73509L10.6001 6.37613L8.35565 7.26225L8.27468 7.29021C8.25405 7.29635 8.23326 7.30182 8.21236 7.30661C8.09824 7.33299 7.98013 7.33883 7.86397 7.32413L7.74052 7.30044L7.62035 7.26135L1.25259 4.73485C1.1499 4.69411 1.06864 4.61271 1.02806 4.50996C0.946927 4.30448 1.04772 4.07214 1.25319 3.991L7.62186 1.47614Z" fill="#F7F8F8"/>
</g>
<defs>
<clipPath id="clip0_1028_3926">
<rect width="16" height="16" fill="white" transform="translate(0 0.40625)"/>
</clipPath>
</defs>
</svg>
