<svg width="15" height="15" viewBox="0 0 15 15" fill="none" xmlns="http://www.w3.org/2000/svg">
<path d="M0.833334 0.75H5.27778C5.3238 0.75 5.36111 0.787306 5.36111 0.833334V5.27778C5.36111 5.3238 5.3238 5.36111 5.27778 5.36111H0.833334C0.787306 5.36111 0.75 5.3238 0.75 5.27778V0.833334C0.75 0.787309 0.787309 0.75 0.833334 0.75Z" stroke="#858699" stroke-width="1.5"/>
<path d="M8.95835 0.75H13.4028C13.4488 0.75 13.4861 0.787269 13.4861 0.833334V5.27778C13.4861 5.32384 13.4488 5.36111 13.4028 5.36111H8.95835C8.9123 5.36111 8.875 5.32378 8.875 5.27778V0.833334C8.875 0.787323 8.9123 0.75 8.95835 0.75Z" stroke="#858699" stroke-width="1.5"/>
<path d="M0.833334 8.87598H5.27778C5.32378 8.87598 5.36111 8.91328 5.36111 8.95933V13.4038C5.36111 13.4497 5.32384 13.4871 5.27778 13.4871H0.833334C0.787269 13.4871 0.75 13.4497 0.75 13.4038V8.95933C0.75 8.91328 0.787323 8.87598 0.833334 8.87598Z" stroke="#858699" stroke-width="1.5"/>
<path d="M8.95835 8.87598H13.4028C13.4488 8.87598 13.4861 8.91324 13.4861 8.95933V13.4038C13.4861 13.4498 13.4488 13.4871 13.4028 13.4871H8.95835C8.91226 13.4871 8.875 13.4497 8.875 13.4038V8.95933C8.875 8.91329 8.91232 8.87598 8.95835 8.87598Z" stroke="#858699" stroke-width="1.5"/>
</svg>
