<svg width="21" height="25" viewBox="0 0 21 25" fill="none" xmlns="http://www.w3.org/2000/svg">
<path d="M8.43087 2.97501C7.46442 3.26445 6.55913 3.72968 5.75302 4.35654L4.44534 2.84418L1.97415 5.7017L3.30324 7.2383C2.79511 8.13946 2.41369 9.14062 2.17469 10.21H0.138672V15.2769H2.17469C2.41937 16.3705 2.81172 17.3949 3.33689 18.3123L1.97459 19.8872L4.44578 22.7443L5.80851 21.1693C6.60326 21.7779 7.49194 22.2321 8.44005 22.5149V24.8668H10.2148V20.802C6.54602 20.5555 3.63399 17.0474 3.63399 12.7437C3.63399 8.4395 6.54602 4.93188 10.2148 4.68538V0.620605H8.43087V2.97501Z" fill="white"/>
<path d="M6.69141 12.7436C6.69141 15.0945 8.23459 17.0282 10.2138 17.2651V15.2213C9.20366 14.9996 8.43906 13.9761 8.43906 12.7436C8.43906 11.5111 9.20366 10.4877 10.2138 10.2659V8.22217C8.23459 8.45908 6.69141 10.3927 6.69141 12.7436Z" fill="white"/>
<path d="M16.1037 1.67427V0.650879H11.3164V4.69191H16.1037V3.68165H19.1529V20.8561H11.3164V21.8663V22.5402V24.8971H20.9006V1.67427H16.1037Z" fill="white"/>
<path d="M17.6198 10.0688L15.6178 12.4717L15.6218 12.4748L12.8924 15.7515L11.3164 13.8585V15.6849L12.4755 17.076L12.4725 17.0802L12.8849 17.5732L12.888 17.5706L12.8906 17.5732L13.0741 17.354L13.0754 17.355L16.3816 13.3875L18.3822 10.9847L17.6198 10.0688Z" fill="white"/>
</svg>
