<svg width="16" height="17" viewBox="0 0 16 17" fill="none" xmlns="http://www.w3.org/2000/svg">
<path d="M11.7143 0.640625C14.0813 0.640625 16 2.5594 16 4.92634V10.4749C16 11.0073 15.7878 11.5177 15.4103 11.8931L11.2212 16.0588C10.8465 16.4315 10.3395 16.6406 9.81098 16.6406H4.28571C1.91878 16.6406 0 14.7219 0 12.3549V4.92634C0 2.5594 1.91878 0.640625 4.28571 0.640625H11.7143ZM11.7143 2.35491H4.28571C2.86555 2.35491 1.71429 3.50618 1.71429 4.92634V12.3549C1.71429 13.775 2.86555 14.9263 4.28571 14.9263H7.99886L8 11.7835C8 10.112 9.3048 8.74531 10.9514 8.64636L11.1429 8.64063H14.2857V4.92634C14.2857 3.50618 13.1344 2.35491 11.7143 2.35491ZM14.2857 10.3549H11.1429C10.3539 10.3549 9.71429 10.9945 9.71429 11.7835L9.71314 14.9263H9.81098C9.88649 14.9263 9.95891 14.8965 10.0125 14.8433L14.2015 10.6775C14.2554 10.6239 14.2857 10.551 14.2857 10.4749V10.3549Z" fill="#F7F8F8"/>
</svg>
