<svg width="16" height="16" viewBox="0 0 16 16" fill="none" xmlns="http://www.w3.org/2000/svg">
<path d="M12.343 8.53316C12.343 10.6371 10.6374 12.3427 8.53347 12.3427L8.5332 4.72363C10.6371 4.72363 12.343 6.42921 12.343 8.53316Z" fill="#F7F8F8"/>
<path fill-rule="evenodd" clip-rule="evenodd" d="M8.53307 14.4002C11.7732 14.4002 14.3997 11.7737 14.3997 8.53356C14.3997 5.29349 11.7732 2.66689 8.53307 2.66689C5.293 2.66689 2.66641 5.29349 2.66641 8.53356C2.66641 11.7737 5.293 14.4002 8.53307 14.4002ZM8.53307 16.0002C12.6568 16.0002 15.9997 12.6573 15.9997 8.53356C15.9997 4.40984 12.6568 1.06689 8.53307 1.06689C4.40935 1.06689 1.06641 4.40984 1.06641 8.53356C1.06641 12.6573 4.40935 16.0002 8.53307 16.0002Z" fill="#F7F8F8"/>
</svg>
