<svg width="722" height="491" viewBox="0 0 722 491" fill="none" xmlns="http://www.w3.org/2000/svg">
<g filter="url(#filter0_d_1014_2898)">
<path d="M619.897 421.518L618.567 421.502C618.52 421.217 618.428 420.966 618.292 420.749C618.156 420.531 617.988 420.346 617.788 420.193C617.589 420.04 617.364 419.924 617.115 419.844C616.869 419.764 616.607 419.723 616.329 419.719C615.826 419.713 615.374 419.834 614.973 420.083C614.574 420.331 614.257 420.698 614.02 421.183C613.786 421.669 613.664 422.265 613.655 422.969C613.645 423.679 613.75 424.28 613.971 424.771C614.194 425.263 614.503 425.636 614.897 425.89C615.292 426.145 615.737 426.275 616.235 426.281C616.51 426.285 616.772 426.251 617.02 426.18C617.271 426.106 617.499 425.997 617.702 425.851C617.906 425.706 618.079 425.528 618.221 425.316C618.366 425.102 618.467 424.856 618.525 424.578L619.855 424.598C619.778 425.026 619.634 425.42 619.425 425.778C619.218 426.134 618.954 426.44 618.633 426.698C618.314 426.952 617.95 427.148 617.542 427.286C617.134 427.423 616.69 427.488 616.21 427.483C615.454 427.474 614.783 427.287 614.197 426.922C613.611 426.554 613.152 426.033 612.821 425.358C612.492 424.684 612.334 423.882 612.347 422.953C612.359 422.022 612.541 421.224 612.891 420.561C613.241 419.894 613.714 419.386 614.309 419.035C614.905 418.681 615.58 418.509 616.332 418.518C616.795 418.523 617.226 418.595 617.625 418.733C618.027 418.869 618.386 419.066 618.704 419.326C619.021 419.582 619.282 419.895 619.488 420.264C619.693 420.63 619.829 421.048 619.897 421.518ZM623.84 427.586C623.227 427.579 622.693 427.432 622.24 427.145C621.786 426.859 621.437 426.461 621.191 425.952C620.945 425.444 620.826 424.851 620.836 424.175C620.845 423.496 620.98 422.904 621.239 422.399C621.499 421.893 621.86 421.503 622.321 421.227C622.782 420.951 623.319 420.817 623.933 420.824C624.547 420.832 625.08 420.979 625.534 421.265C625.987 421.552 626.337 421.951 626.583 422.462C626.829 422.974 626.947 423.569 626.938 424.248C626.928 424.924 626.794 425.513 626.534 426.016C626.274 426.519 625.914 426.908 625.453 427.184C624.991 427.459 624.454 427.594 623.84 427.586ZM623.859 426.517C624.257 426.522 624.588 426.42 624.852 426.213C625.116 426.006 625.313 425.729 625.443 425.381C625.576 425.033 625.645 424.649 625.651 424.228C625.657 423.811 625.598 423.427 625.475 423.076C625.355 422.722 625.165 422.437 624.907 422.221C624.648 422.005 624.32 421.894 623.923 421.89C623.522 421.885 623.188 421.987 622.921 422.197C622.657 422.407 622.459 422.687 622.326 423.038C622.196 423.386 622.128 423.769 622.123 424.186C622.117 424.607 622.174 424.993 622.294 425.343C622.417 425.694 622.608 425.976 622.867 426.19C623.128 426.403 623.459 426.512 623.859 426.517ZM632.295 424.84L632.347 421.01L633.625 421.025L633.536 427.57L632.283 427.555L632.298 426.421L632.23 426.421C632.075 426.768 631.829 427.056 631.494 427.285C631.161 427.512 630.749 427.622 630.258 427.616C629.837 427.611 629.466 427.514 629.145 427.326C628.827 427.134 628.578 426.854 628.398 426.486C628.221 426.117 628.137 425.663 628.144 425.123L628.201 420.96L629.475 420.975L629.42 424.985C629.414 425.431 629.533 425.788 629.776 426.055C630.02 426.322 630.339 426.458 630.734 426.462C630.972 426.465 631.21 426.408 631.448 426.292C631.688 426.175 631.888 425.997 632.048 425.758C632.21 425.518 632.292 425.212 632.295 424.84ZM635.044 427.588L635.133 421.043L636.365 421.058L636.35 422.097L636.419 422.098C636.543 421.747 636.757 421.473 637.061 421.275C637.367 421.074 637.712 420.976 638.096 420.98C638.175 420.981 638.269 420.985 638.377 420.992C638.488 420.999 638.574 421.007 638.637 421.016L638.62 422.235C638.569 422.22 638.478 422.204 638.348 422.185C638.218 422.163 638.087 422.152 637.956 422.15C637.655 422.147 637.386 422.208 637.148 422.333C636.914 422.455 636.727 422.627 636.587 422.85C636.448 423.07 636.376 423.322 636.372 423.606L636.318 427.603L635.044 427.588ZM644.417 422.752L643.259 422.942C643.213 422.794 643.138 422.652 643.035 422.518C642.935 422.383 642.797 422.272 642.622 422.185C642.447 422.097 642.227 422.052 641.963 422.049C641.602 422.045 641.3 422.122 641.057 422.281C640.813 422.437 640.689 422.642 640.686 422.895C640.683 423.113 640.761 423.29 640.922 423.426C641.082 423.561 641.342 423.674 641.701 423.763L642.738 424.014C643.338 424.161 643.784 424.38 644.075 424.674C644.367 424.967 644.509 425.345 644.503 425.808C644.498 426.2 644.379 426.548 644.148 426.852C643.919 427.154 643.602 427.388 643.196 427.557C642.793 427.725 642.328 427.807 641.799 427.8C641.066 427.792 640.471 427.628 640.012 427.31C639.553 426.989 639.275 426.539 639.178 425.958L640.412 425.785C640.484 426.107 640.639 426.352 640.875 426.519C641.111 426.684 641.421 426.769 641.805 426.773C642.222 426.778 642.557 426.696 642.81 426.525C643.062 426.352 643.19 426.139 643.194 425.886C643.196 425.682 643.122 425.509 642.97 425.368C642.822 425.227 642.592 425.119 642.28 425.044L641.176 424.788C640.567 424.642 640.118 424.415 639.83 424.108C639.544 423.8 639.405 423.413 639.411 422.948C639.416 422.561 639.529 422.225 639.749 421.937C639.969 421.65 640.27 421.428 640.653 421.271C641.036 421.11 641.473 421.033 641.964 421.039C642.672 421.047 643.226 421.207 643.628 421.519C644.03 421.828 644.293 422.239 644.417 422.752ZM648.493 427.88C647.848 427.872 647.295 427.728 646.832 427.447C646.373 427.163 646.021 426.768 645.775 426.262C645.532 425.754 645.415 425.16 645.424 424.481C645.433 423.811 645.566 423.221 645.823 422.713C646.083 422.205 646.441 421.81 646.896 421.528C647.355 421.247 647.888 421.11 648.496 421.117C648.865 421.121 649.222 421.186 649.567 421.313C649.912 421.439 650.221 421.634 650.493 421.899C650.765 422.164 650.977 422.506 651.131 422.925C651.284 423.342 651.357 423.847 651.348 424.441L651.342 424.892L646.14 424.83L646.153 423.876L650.107 423.923C650.111 423.588 650.047 423.29 649.915 423.03C649.782 422.767 649.593 422.559 649.348 422.405C649.105 422.252 648.82 422.173 648.49 422.169C648.132 422.165 647.818 422.249 647.549 422.422C647.282 422.592 647.075 422.817 646.926 423.097C646.78 423.373 646.705 423.675 646.701 424.002L646.69 424.747C646.684 425.185 646.756 425.558 646.905 425.867C647.057 426.175 647.271 426.412 647.548 426.577C647.824 426.74 648.148 426.823 648.52 426.828C648.762 426.831 648.982 426.799 649.182 426.733C649.382 426.665 649.555 426.562 649.702 426.424C649.849 426.287 649.962 426.116 650.041 425.912L651.244 426.144C651.143 426.498 650.965 426.807 650.712 427.071C650.461 427.332 650.147 427.535 649.77 427.678C649.396 427.818 648.97 427.886 648.493 427.88ZM655.586 427.832L655.706 419.106L661.177 419.171L661.161 420.304L657.007 420.255L656.97 422.914L660.839 422.96L660.824 424.089L656.955 424.043L656.918 426.715L661.124 426.765L661.109 427.898L655.586 427.832ZM663.837 424.044L663.784 427.93L662.51 427.915L662.599 421.37L663.822 421.384L663.808 422.45L663.889 422.451C664.044 422.106 664.284 421.83 664.608 421.624C664.934 421.418 665.343 421.317 665.835 421.323C666.281 421.329 666.67 421.427 667.003 421.618C667.335 421.807 667.592 422.086 667.771 422.454C667.951 422.823 668.037 423.277 668.03 423.817L667.973 427.98L666.699 427.965L666.753 423.955C666.76 423.481 666.641 423.109 666.398 422.839C666.154 422.566 665.817 422.427 665.385 422.422C665.09 422.418 664.826 422.479 664.594 422.604C664.365 422.729 664.182 422.914 664.045 423.16C663.911 423.403 663.842 423.697 663.837 424.044ZM669.477 427.998L669.567 421.453L670.798 421.468L670.784 422.507L670.852 422.508C670.976 422.157 671.19 421.883 671.494 421.685C671.801 421.484 672.146 421.386 672.53 421.39C672.609 421.391 672.703 421.395 672.811 421.402C672.921 421.409 673.008 421.417 673.07 421.426L673.054 422.645C673.003 422.63 672.912 422.614 672.782 422.595C672.651 422.574 672.521 422.562 672.39 422.56C672.089 422.557 671.82 422.618 671.582 422.743C671.347 422.865 671.16 423.037 671.021 423.26C670.882 423.48 670.81 423.732 670.806 424.016L670.751 428.013L669.477 427.998ZM676.399 428.212C675.786 428.205 675.252 428.058 674.799 427.771C674.345 427.485 673.995 427.087 673.749 426.578C673.504 426.07 673.385 425.477 673.394 424.801C673.404 424.122 673.538 423.53 673.798 423.025C674.058 422.519 674.418 422.129 674.88 421.853C675.341 421.577 675.878 421.443 676.492 421.45C677.105 421.457 677.639 421.604 678.092 421.891C678.546 422.178 678.896 422.577 679.141 423.088C679.387 423.6 679.506 424.195 679.496 424.874C679.487 425.55 679.353 426.139 679.093 426.642C678.833 427.145 678.473 427.534 678.011 427.81C677.55 428.085 677.013 428.22 676.399 428.212ZM676.418 427.143C676.816 427.148 677.147 427.046 677.411 426.839C677.675 426.632 677.872 426.355 678.002 426.007C678.135 425.659 678.204 425.275 678.21 424.854C678.215 424.437 678.157 424.053 678.034 423.702C677.913 423.348 677.724 423.063 677.466 422.847C677.207 422.631 676.879 422.52 676.481 422.515C676.081 422.511 675.747 422.613 675.48 422.823C675.216 423.033 675.017 423.313 674.885 423.664C674.755 424.012 674.687 424.395 674.681 424.812C674.676 425.233 674.733 425.618 674.853 425.969C674.976 426.32 675.167 426.602 675.425 426.816C675.687 427.029 676.018 427.138 676.418 427.143ZM682.064 419.42L681.944 428.146L680.67 428.131L680.79 419.405L682.064 419.42ZM684.848 419.453L684.728 428.179L683.454 428.164L683.574 419.438L684.848 419.453ZM686.238 428.197L686.328 421.653L687.551 421.667L687.536 422.732L687.617 422.733C687.758 422.374 687.985 422.096 688.298 421.898C688.61 421.697 688.982 421.599 689.414 421.604C689.851 421.609 690.217 421.716 690.509 421.924C690.805 422.132 691.021 422.416 691.158 422.775L691.226 422.776C691.387 422.429 691.64 422.153 691.983 421.95C692.327 421.744 692.735 421.644 693.206 421.649C693.8 421.656 694.282 421.848 694.652 422.225C695.024 422.601 695.206 423.165 695.195 423.915L695.135 428.303L693.861 428.288L693.92 424.019C693.926 423.575 693.809 423.253 693.571 423.051C693.332 422.85 693.045 422.747 692.71 422.743C692.295 422.738 691.971 422.862 691.737 423.115C691.504 423.365 691.384 423.689 691.379 424.086L691.322 428.258L690.052 428.243L690.111 423.892C690.116 423.537 690.009 423.25 689.791 423.032C689.572 422.813 689.285 422.702 688.93 422.698C688.689 422.695 688.465 422.756 688.259 422.882C688.055 423.004 687.889 423.177 687.761 423.4C687.636 423.623 687.572 423.882 687.568 424.177L687.512 428.213L686.238 428.197ZM699.458 428.487C698.813 428.479 698.26 428.335 697.798 428.054C697.338 427.77 696.986 427.375 696.74 426.869C696.497 426.361 696.38 425.767 696.389 425.088C696.398 424.417 696.531 423.828 696.788 423.32C697.048 422.811 697.406 422.417 697.862 422.135C698.32 421.854 698.853 421.716 699.461 421.724C699.83 421.728 700.187 421.793 700.532 421.92C700.877 422.046 701.186 422.241 701.458 422.506C701.73 422.771 701.942 423.113 702.096 423.532C702.249 423.949 702.322 424.454 702.314 425.048L702.307 425.499L697.105 425.437L697.118 424.483L701.072 424.53C701.077 424.195 701.012 423.897 700.88 423.637C700.747 423.374 700.558 423.166 700.313 423.012C700.071 422.859 699.785 422.78 699.455 422.776C699.097 422.772 698.784 422.856 698.514 423.029C698.248 423.199 698.04 423.424 697.891 423.704C697.745 423.98 697.67 424.282 697.666 424.609L697.656 425.354C697.65 425.792 697.721 426.165 697.87 426.474C698.022 426.782 698.236 427.019 698.513 427.184C698.789 427.347 699.113 427.43 699.485 427.435C699.727 427.437 699.947 427.406 700.147 427.34C700.347 427.272 700.52 427.168 700.667 427.031C700.814 426.894 700.927 426.723 701.006 426.519L702.209 426.751C702.108 427.105 701.93 427.414 701.677 427.678C701.426 427.939 701.112 428.142 700.735 428.285C700.361 428.425 699.935 428.493 699.458 428.487ZM704.805 424.532L704.752 428.418L703.477 428.403L703.567 421.858L704.79 421.872L704.775 422.938L704.856 422.939C705.012 422.594 705.251 422.318 705.575 422.112C705.902 421.905 706.311 421.805 706.802 421.811C707.248 421.816 707.638 421.915 707.97 422.106C708.303 422.295 708.559 422.574 708.739 422.942C708.918 423.311 709.004 423.765 708.997 424.305L708.94 428.468L707.666 428.453L707.721 424.443C707.727 423.969 707.609 423.596 707.365 423.326C707.122 423.054 706.784 422.915 706.353 422.91C706.057 422.906 705.794 422.967 705.562 423.092C705.333 423.217 705.15 423.402 705.013 423.648C704.879 423.891 704.809 424.185 704.805 424.532ZM713.59 421.977L713.576 423L710.001 422.957L710.015 421.935L713.59 421.977ZM710.995 420.378L712.269 420.393L712.184 426.584C712.181 426.831 712.215 427.018 712.287 427.144C712.359 427.267 712.453 427.352 712.569 427.399C712.688 427.443 712.817 427.465 712.956 427.467C713.058 427.468 713.148 427.462 713.225 427.449C713.302 427.436 713.362 427.425 713.404 427.417L713.62 428.472C713.546 428.5 713.44 428.527 713.304 428.554C713.167 428.583 712.996 428.598 712.791 428.599C712.456 428.6 712.145 428.537 711.857 428.409C711.568 428.28 711.337 428.084 711.161 427.821C710.986 427.557 710.901 427.228 710.906 426.833L710.995 420.378Z" fill="#F7F8F8"/>
</g>
<path d="M223.626 133.919L223.746 125.193L226.694 125.228C227.376 125.236 227.934 125.359 228.368 125.597C228.803 125.833 229.122 126.153 229.327 126.559C229.532 126.965 229.63 127.425 229.623 127.939C229.616 128.453 229.505 128.908 229.289 129.303C229.074 129.698 228.747 130.007 228.309 130.229C227.872 130.448 227.315 130.554 226.639 130.546L224.252 130.518L224.266 129.563L226.618 129.591C227.083 129.597 227.459 129.533 227.745 129.4C228.034 129.267 228.244 129.076 228.375 128.828C228.51 128.577 228.579 128.276 228.584 127.927C228.589 127.577 228.527 127.271 228.4 127.008C228.273 126.746 228.067 126.541 227.782 126.396C227.497 126.248 227.119 126.171 226.647 126.165L224.79 126.143L224.683 133.932L223.626 133.919ZM227.788 130.048L229.882 133.994L228.654 133.979L226.595 130.034L227.788 130.048ZM233.633 134.175C233.002 134.167 232.46 134.022 232.007 133.738C231.556 133.451 231.211 133.055 230.97 132.549C230.733 132.041 230.619 131.451 230.628 130.781C230.637 130.111 230.768 129.521 231.019 129.013C231.273 128.502 231.622 128.105 232.067 127.823C232.514 127.539 233.033 127.4 233.623 127.407C233.964 127.411 234.3 127.472 234.631 127.59C234.962 127.707 235.262 127.896 235.531 128.155C235.8 128.411 236.013 128.748 236.169 129.168C236.325 129.587 236.399 130.102 236.391 130.713L236.385 131.139L231.34 131.079L231.352 130.21L235.374 130.258C235.379 129.889 235.31 129.558 235.166 129.267C235.025 128.975 234.821 128.744 234.554 128.573C234.289 128.403 233.975 128.315 233.611 128.311C233.211 128.306 232.863 128.401 232.567 128.597C232.275 128.789 232.048 129.042 231.888 129.356C231.727 129.669 231.645 130.006 231.64 130.367L231.632 130.946C231.625 131.441 231.704 131.861 231.87 132.206C232.039 132.549 232.275 132.812 232.58 132.995C232.884 133.174 233.239 133.267 233.645 133.272C233.91 133.275 234.149 133.241 234.363 133.169C234.58 133.095 234.767 132.984 234.926 132.835C235.084 132.684 235.207 132.495 235.296 132.268L236.264 132.553C236.157 132.881 235.981 133.169 235.736 133.416C235.491 133.66 235.19 133.85 234.833 133.985C234.476 134.117 234.076 134.18 233.633 134.175ZM242.376 129.063L241.469 129.308C241.415 129.156 241.333 129.009 241.224 128.866C241.118 128.72 240.972 128.599 240.786 128.503C240.6 128.407 240.36 128.357 240.068 128.353C239.667 128.349 239.332 128.437 239.062 128.618C238.796 128.797 238.661 129.027 238.657 129.308C238.653 129.558 238.741 129.757 238.921 129.904C239.101 130.051 239.384 130.175 239.769 130.276L240.737 130.526C241.32 130.675 241.753 130.898 242.036 131.194C242.319 131.487 242.457 131.862 242.451 132.32C242.446 132.695 242.333 133.028 242.113 133.321C241.896 133.614 241.595 133.844 241.209 134.009C240.823 134.175 240.376 134.255 239.868 134.249C239.2 134.241 238.65 134.09 238.216 133.795C237.782 133.5 237.511 133.073 237.402 132.515L238.36 132.288C238.446 132.641 238.615 132.907 238.865 133.087C239.118 133.266 239.451 133.358 239.863 133.363C240.331 133.368 240.705 133.273 240.983 133.078C241.264 132.879 241.407 132.64 241.411 132.358C241.414 132.131 241.337 131.94 241.18 131.785C241.023 131.626 240.78 131.507 240.452 131.426L239.364 131.158C238.767 131.009 238.33 130.783 238.053 130.482C237.778 130.177 237.644 129.799 237.65 129.347C237.655 128.978 237.764 128.653 237.975 128.371C238.189 128.09 238.478 127.87 238.841 127.712C239.206 127.555 239.619 127.479 240.08 127.484C240.727 127.492 241.234 127.64 241.599 127.928C241.967 128.217 242.226 128.595 242.376 129.063ZM247.897 131.532L247.95 127.663L248.956 127.675L248.866 134.22L247.861 134.208L247.876 133.1L247.808 133.099C247.65 133.43 247.407 133.71 247.08 133.939C246.753 134.165 246.342 134.275 245.848 134.269C245.439 134.264 245.077 134.171 244.761 133.988C244.445 133.802 244.199 133.527 244.022 133.161C243.845 132.792 243.761 132.33 243.769 131.773L243.825 127.614L244.831 127.626L244.775 131.717C244.769 132.194 244.897 132.576 245.16 132.863C245.426 133.151 245.768 133.297 246.185 133.302C246.435 133.305 246.69 133.244 246.951 133.119C247.214 132.994 247.435 132.801 247.615 132.539C247.798 132.277 247.892 131.941 247.897 131.532ZM250.504 134.239L250.594 127.695L251.565 127.706L251.551 128.729L251.636 128.73C251.778 128.382 252.001 128.113 252.308 127.924C252.615 127.731 252.981 127.638 253.407 127.643C253.839 127.648 254.197 127.75 254.481 127.95C254.768 128.146 254.99 128.42 255.147 128.772L255.216 128.772C255.388 128.436 255.643 128.171 255.981 127.976C256.319 127.778 256.722 127.682 257.191 127.688C257.776 127.695 258.252 127.884 258.619 128.255C258.987 128.623 259.165 129.192 259.154 129.962L259.094 134.342L258.089 134.33L258.149 129.95C258.155 129.467 258.028 129.12 257.767 128.909C257.505 128.699 257.196 128.592 256.838 128.587C256.377 128.582 256.019 128.717 255.762 128.992C255.506 129.265 255.375 129.613 255.369 130.036L255.311 134.297L254.288 134.285L254.349 129.802C254.354 129.43 254.238 129.129 253.999 128.899C253.761 128.666 253.452 128.547 253.071 128.542C252.81 128.539 252.564 128.606 252.335 128.742C252.109 128.879 251.924 129.07 251.782 129.315C251.642 129.558 251.57 129.84 251.566 130.161L251.51 134.251L250.504 134.239ZM263.471 134.53C262.841 134.523 262.299 134.377 261.845 134.093C261.394 133.807 261.049 133.41 260.809 132.905C260.571 132.396 260.457 131.807 260.466 131.136C260.475 130.466 260.606 129.877 260.857 129.368C261.111 128.857 261.46 128.46 261.905 128.179C262.352 127.894 262.871 127.756 263.462 127.763C263.803 127.767 264.138 127.828 264.469 127.945C264.8 128.063 265.1 128.251 265.369 128.51C265.638 128.766 265.851 129.104 266.007 129.523C266.164 129.943 266.237 130.458 266.229 131.069L266.223 131.495L261.178 131.435L261.19 130.565L265.213 130.613C265.218 130.244 265.148 129.914 265.004 129.622C264.864 129.331 264.659 129.099 264.392 128.929C264.127 128.758 263.813 128.67 263.449 128.666C263.049 128.661 262.701 128.757 262.405 128.952C262.113 129.144 261.887 129.397 261.726 129.711C261.565 130.024 261.483 130.361 261.478 130.722L261.47 131.302C261.463 131.796 261.543 132.216 261.708 132.562C261.877 132.905 262.113 133.167 262.418 133.35C262.722 133.53 263.077 133.622 263.484 133.627C263.748 133.63 263.987 133.596 264.201 133.525C264.418 133.451 264.606 133.339 264.764 133.19C264.922 133.039 265.046 132.85 265.134 132.624L266.102 132.908C265.995 133.236 265.819 133.524 265.574 133.771C265.329 134.015 265.028 134.205 264.671 134.34C264.314 134.472 263.914 134.536 263.471 134.53ZM270.816 134.481L270.935 125.755L273.986 125.791C274.594 125.798 275.094 125.91 275.486 126.124C275.878 126.337 276.168 126.62 276.357 126.974C276.545 127.326 276.636 127.715 276.631 128.141C276.625 128.516 276.554 128.825 276.418 129.068C276.284 129.31 276.108 129.501 275.89 129.641C275.675 129.78 275.442 129.883 275.191 129.948L275.19 130.033C275.457 130.053 275.724 130.15 275.991 130.324C276.259 130.498 276.481 130.745 276.659 131.065C276.836 131.385 276.922 131.775 276.916 132.236C276.91 132.673 276.805 133.065 276.601 133.412C276.397 133.759 276.08 134.033 275.648 134.232C275.216 134.431 274.657 134.527 273.969 134.519L270.816 134.481ZM271.886 133.557L273.982 133.582C274.672 133.59 275.164 133.462 275.458 133.198C275.754 132.932 275.905 132.607 275.91 132.224C275.914 131.928 275.842 131.655 275.695 131.403C275.548 131.148 275.336 130.944 275.06 130.79C274.784 130.633 274.455 130.553 274.075 130.548L271.927 130.523L271.886 133.557ZM271.94 129.602L273.9 129.626C274.218 129.63 274.506 129.57 274.763 129.448C275.023 129.327 275.23 129.153 275.384 128.927C275.54 128.702 275.621 128.436 275.625 128.129C275.63 127.746 275.501 127.419 275.238 127.149C274.974 126.876 274.553 126.736 273.974 126.729L271.979 126.705L271.94 129.602ZM282.441 131.943L282.494 128.075L283.5 128.087L283.41 134.631L282.405 134.619L282.42 133.512L282.352 133.511C282.194 133.841 281.951 134.121 281.624 134.35C281.297 134.576 280.886 134.687 280.392 134.681C279.983 134.676 279.621 134.582 279.305 134.399C278.989 134.214 278.743 133.938 278.566 133.572C278.389 133.204 278.305 132.741 278.312 132.184L278.369 128.025L279.375 128.037L279.319 132.128C279.312 132.605 279.441 132.987 279.704 133.275C279.97 133.562 280.312 133.708 280.729 133.713C280.979 133.716 281.234 133.655 281.495 133.53C281.758 133.406 281.979 133.212 282.159 132.95C282.341 132.688 282.436 132.353 282.441 131.943ZM285.048 134.651L285.138 128.106L286.143 128.118L286.054 134.663L285.048 134.651ZM285.664 127.021C285.468 127.019 285.3 126.95 285.16 126.815C285.022 126.68 284.955 126.519 284.957 126.331C284.96 126.144 285.032 125.984 285.173 125.852C285.317 125.72 285.487 125.655 285.683 125.658C285.879 125.66 286.045 125.729 286.183 125.864C286.323 125.999 286.392 126.161 286.389 126.348C286.386 126.536 286.313 126.695 286.169 126.827C286.028 126.959 285.86 127.024 285.664 127.021ZM288.817 125.968L288.697 134.694L287.691 134.682L287.811 125.956L288.817 125.968ZM292.804 134.88C292.259 134.873 291.779 134.73 291.366 134.449C290.952 134.166 290.631 133.77 290.402 133.261C290.173 132.75 290.063 132.148 290.073 131.455C290.082 130.767 290.208 130.172 290.451 129.669C290.694 129.167 291.027 128.78 291.451 128.509C291.875 128.239 292.363 128.107 292.914 128.113C293.34 128.118 293.676 128.193 293.921 128.338C294.169 128.481 294.357 128.642 294.486 128.822C294.617 129 294.718 129.146 294.791 129.261L294.876 129.262L294.92 126.041L295.926 126.053L295.806 134.779L294.835 134.767L294.848 133.762L294.729 133.76C294.654 133.879 294.546 134.028 294.408 134.208C294.269 134.386 294.072 134.544 293.817 134.683C293.562 134.819 293.225 134.885 292.804 134.88ZM292.953 133.978C293.357 133.983 293.699 133.882 293.98 133.675C294.261 133.465 294.477 133.174 294.627 132.8C294.777 132.424 294.856 131.989 294.862 131.495C294.869 131.006 294.804 130.578 294.667 130.21C294.53 129.839 294.324 129.549 294.048 129.341C293.772 129.131 293.43 129.023 293.021 129.018C292.595 129.013 292.238 129.118 291.951 129.334C291.667 129.546 291.451 129.838 291.304 130.208C291.16 130.576 291.085 130.99 291.079 131.45C291.072 131.916 291.137 132.34 291.274 132.722C291.414 133.102 291.623 133.405 291.901 133.633C292.182 133.858 292.533 133.973 292.953 133.978ZM297.584 134.8L297.673 128.255L298.679 128.267L298.589 134.812L297.584 134.8ZM298.199 127.171C298.003 127.168 297.835 127.099 297.695 126.964C297.558 126.829 297.49 126.668 297.493 126.48C297.495 126.293 297.567 126.133 297.708 126.001C297.852 125.869 298.022 125.805 298.218 125.807C298.414 125.809 298.581 125.878 298.718 126.013C298.858 126.149 298.927 126.31 298.925 126.497C298.922 126.685 298.849 126.844 298.705 126.976C298.564 127.108 298.395 127.173 298.199 127.171ZM301.287 130.906L301.233 134.844L300.227 134.832L300.317 128.287L301.288 128.298L301.274 129.321L301.359 129.322C301.517 128.991 301.754 128.727 302.069 128.529C302.384 128.328 302.789 128.231 303.283 128.237C303.727 128.242 304.113 128.338 304.443 128.523C304.773 128.706 305.028 128.982 305.207 129.351C305.387 129.717 305.473 130.178 305.465 130.735L305.408 134.893L304.403 134.881L304.459 130.791C304.466 130.277 304.338 129.875 304.075 129.584C303.812 129.292 303.447 129.142 302.981 129.137C302.66 129.133 302.372 129.199 302.118 129.335C301.866 129.471 301.666 129.672 301.517 129.938C301.369 130.203 301.292 130.526 301.287 130.906ZM309.648 137.535C309.163 137.529 308.746 137.462 308.398 137.332C308.051 137.206 307.762 137.041 307.531 136.836C307.304 136.635 307.124 136.42 306.99 136.191L307.799 135.638C307.889 135.758 308.002 135.896 308.139 136.051C308.276 136.209 308.464 136.346 308.704 136.463C308.947 136.582 309.266 136.644 309.661 136.649C310.189 136.655 310.627 136.532 310.974 136.281C311.321 136.029 311.499 135.631 311.506 135.085L311.524 133.756L311.439 133.755C311.364 133.873 311.256 134.02 311.118 134.194C310.982 134.366 310.786 134.518 310.532 134.652C310.28 134.782 309.941 134.845 309.515 134.84C308.987 134.834 308.514 134.703 308.097 134.448C307.683 134.193 307.357 133.826 307.119 133.345C306.884 132.865 306.771 132.284 306.781 131.603C306.79 130.932 306.916 130.35 307.158 129.856C307.401 129.358 307.734 128.976 308.158 128.708C308.583 128.438 309.07 128.306 309.621 128.312C310.047 128.317 310.384 128.392 310.633 128.537C310.883 128.68 311.074 128.841 311.205 129.022C311.339 129.199 311.443 129.345 311.515 129.46L311.617 129.461L311.631 128.422L312.603 128.433L312.511 135.165C312.503 135.728 312.369 136.184 312.108 136.533C311.851 136.885 311.506 137.141 311.075 137.3C310.647 137.463 310.171 137.541 309.648 137.535ZM309.664 133.938C310.067 133.943 310.409 133.855 310.69 133.673C310.971 133.492 311.186 133.229 311.336 132.884C311.485 132.539 311.564 132.126 311.57 131.643C311.577 131.171 311.511 130.754 311.374 130.392C311.237 130.029 311.031 129.744 310.755 129.536C310.48 129.328 310.137 129.222 309.728 129.217C309.302 129.212 308.946 129.316 308.659 129.528C308.374 129.741 308.159 130.028 308.012 130.39C307.868 130.752 307.792 131.154 307.786 131.598C307.78 132.052 307.846 132.455 307.983 132.806C308.123 133.154 308.332 133.429 308.611 133.632C308.892 133.831 309.243 133.933 309.664 133.938Z" fill="#F7F8F8"/>
<g filter="url(#filter1_d_1014_2898)">
<path d="M48.4945 6.09874L47.4378 6.08615C47.3795 5.78146 47.2737 5.51314 47.1207 5.28118C46.9704 5.04926 46.7856 4.85387 46.5661 4.69499C46.3496 4.53331 46.1083 4.41111 45.8424 4.3284C45.5765 4.24568 45.2986 4.20259 45.0089 4.19914C44.4805 4.19285 44 4.32066 43.5674 4.58257C43.1376 4.84452 42.7928 5.23391 42.5328 5.75073C42.2757 6.26759 42.142 6.90383 42.1317 7.65944C42.1213 8.41505 42.2376 9.05426 42.4805 9.57708C42.7262 10.0999 43.0603 10.4974 43.4827 10.7695C43.908 11.0416 44.3848 11.1808 44.9132 11.1871C45.2029 11.1906 45.4819 11.1541 45.75 11.0778C46.0181 11.0014 46.2626 10.8864 46.4835 10.7328C46.7072 10.5763 46.8974 10.384 47.0539 10.1557C47.2134 9.92465 47.3264 9.65894 47.393 9.35857L48.4497 9.37116C48.3641 9.81619 48.2138 10.2136 47.9987 10.5633C47.7837 10.913 47.5182 11.2096 47.2024 11.453C46.8866 11.6936 46.5332 11.8755 46.1423 11.9987C45.7542 12.1219 45.34 12.1809 44.8997 12.1757C44.1554 12.1668 43.496 11.9771 42.9215 11.6066C42.3469 11.2361 41.8981 10.7137 41.5749 10.0393C41.2517 9.36499 41.0964 8.56763 41.109 7.64726C41.1216 6.72689 41.2987 5.93349 41.6402 5.26706C41.9818 4.60063 42.4448 4.08906 43.0293 3.73236C43.6137 3.37566 44.2781 3.20174 45.0224 3.2106C45.4627 3.21584 45.8751 3.28468 46.2597 3.41711C46.6472 3.54957 46.9954 3.74123 47.3045 3.99209C47.6136 4.24011 47.8709 4.54149 48.0763 4.89623C48.2817 5.24813 48.4211 5.64897 48.4945 6.09874ZM49.7797 12.1145L49.8693 5.56961L50.8408 5.58118L50.8273 6.56973L50.8955 6.57054C51.0192 6.24813 51.2387 5.98794 51.5539 5.78997C51.8692 5.59201 52.2228 5.49536 52.6148 5.50003C52.6887 5.50091 52.781 5.50343 52.8917 5.50759C53.0025 5.51175 53.0862 5.51701 53.1429 5.52337L53.1289 6.546C53.095 6.53707 53.017 6.52336 52.8951 6.50486C52.7761 6.48355 52.6498 6.47211 52.5163 6.47052C52.1981 6.46673 51.9131 6.5301 51.6613 6.66063C51.4124 6.78836 51.2139 6.96783 51.0658 7.19903C50.9207 7.42743 50.846 7.68935 50.842 7.98477L50.7853 12.1264L49.7797 12.1145ZM55.9641 12.3415C55.5494 12.3366 55.1741 12.254 54.8382 12.0937C54.5023 11.9306 54.237 11.6988 54.0422 11.3981C53.8475 11.0946 53.753 10.7299 53.7589 10.3038C53.764 9.92879 53.842 9.62573 53.9929 9.39455C54.1439 9.16054 54.3438 8.97825 54.5928 8.84768C54.8418 8.71711 55.1158 8.62094 55.415 8.55915C55.7171 8.49457 56.0203 8.4442 56.3248 8.40805C56.7232 8.36165 57.0462 8.32714 57.2937 8.30452C57.544 8.27909 57.7265 8.23438 57.841 8.1704C57.9584 8.10645 58.0182 7.99352 58.0204 7.83161L58.0208 7.79752C58.0266 7.3771 57.916 7.04906 57.6891 6.81339C57.465 6.57775 57.1215 6.45717 56.6585 6.45166C56.1784 6.44594 55.8005 6.54656 55.525 6.75352C55.2494 6.96048 55.0546 7.18261 54.9405 7.4199L53.9907 7.06766C54.1666 6.672 54.3981 6.36507 54.6852 6.14689C54.9752 5.92589 55.2898 5.77338 55.629 5.68935C55.9712 5.6025 56.307 5.56105 56.6365 5.56497C56.8467 5.56747 57.0878 5.59591 57.3598 5.65029C57.6347 5.70187 57.8989 5.80587 58.1525 5.96231C58.4089 6.11878 58.6202 6.35285 58.7864 6.66451C58.9526 6.97617 59.0322 7.39192 59.0251 7.91176L58.966 12.2239L57.9604 12.2119L57.9725 11.3256L57.9214 11.325C57.8513 11.4662 57.7356 11.6168 57.5743 11.7769C57.413 11.9369 57.1995 12.0721 56.9337 12.1826C56.668 12.2931 56.3448 12.3461 55.9641 12.3415ZM56.1299 11.44C56.5276 11.4448 56.8639 11.3706 57.1387 11.2176C57.4164 11.0647 57.6265 10.8655 57.7691 10.62C57.9145 10.3746 57.9891 10.1155 57.9928 9.84278L58.0054 8.92241C57.9621 8.97304 57.8677 9.01879 57.7223 9.05968C57.5797 9.09775 57.4145 9.1313 57.2265 9.16031C57.0415 9.18652 56.8608 9.20994 56.6843 9.23057C56.5108 9.24839 56.3699 9.26376 56.2618 9.27667C56 9.30765 55.7549 9.36013 55.5266 9.43412C55.3012 9.50531 55.1178 9.61535 54.9766 9.76424C54.8382 9.91033 54.7673 10.1112 54.7638 10.3669C54.759 10.7163 54.8846 10.982 55.1407 11.164C55.3996 11.3433 55.7294 11.4353 56.1299 11.44ZM63.2545 12.4113C62.6409 12.404 62.1145 12.2528 61.6754 11.9578C61.2362 11.6628 60.9008 11.2596 60.6691 10.7483C60.4374 10.237 60.3261 9.65464 60.335 9.00129C60.3441 8.33658 60.4743 7.75145 60.7256 7.24588C60.9797 6.73751 61.3289 6.34249 61.7731 6.06083C62.2202 5.77636 62.7392 5.63764 63.3301 5.64468C63.7903 5.65016 64.2039 5.74032 64.5708 5.91516C64.9378 6.08999 65.2371 6.33221 65.4686 6.64181C65.7002 6.9514 65.8416 7.31107 65.8928 7.7208L64.8872 7.70882C64.8146 7.40964 64.6478 7.14343 64.3867 6.91019C64.1286 6.67415 63.7779 6.55349 63.3348 6.54821C62.9428 6.54354 62.5976 6.64171 62.2994 6.84272C62.0041 7.04092 61.7715 7.32368 61.6017 7.691C61.4347 8.05552 61.3479 8.48491 61.3411 8.97918C61.3342 9.48482 61.4077 9.92606 61.5616 10.3029C61.7184 10.6798 61.9417 10.9737 62.2314 11.1845C62.524 11.3954 62.8692 11.5032 63.2669 11.508C63.5282 11.5111 63.7661 11.4685 63.9804 11.3801C64.1947 11.2917 64.3768 11.1632 64.5269 10.9945C64.6769 10.8259 64.7848 10.6226 64.8506 10.3847L65.8562 10.3967C65.7941 10.7823 65.6487 11.1286 65.4201 11.4356C65.1943 11.7397 64.8969 11.9805 64.528 12.158C64.1619 12.3326 63.7374 12.417 63.2545 12.4113ZM68.0663 9.94569L68.0662 8.70129L68.2708 8.70373L71.1741 5.82332L72.4183 5.83814L69.3252 8.88675L69.24 8.88573L68.0663 9.94569ZM67.0962 12.3207L67.2156 3.59422L68.2212 3.60619L68.1018 12.3326L67.0962 12.3207ZM71.2549 12.3702L68.7426 9.10142L69.4681 8.41114L72.5333 12.3854L71.2549 12.3702ZM77.9024 3.72148L77.7829 12.4479L76.7262 12.4354L76.8456 3.7089L77.9024 3.72148ZM80.6209 8.54396L80.567 12.4811L79.5614 12.4691L79.651 5.92427L80.6225 5.93584L80.6085 6.95847L80.6937 6.95949C80.8517 6.62896 81.0883 6.36471 81.4035 6.16675C81.7188 5.96594 82.1236 5.86848 82.6179 5.87437C83.061 5.87965 83.4475 5.97517 83.7774 6.16093C84.1073 6.34384 84.3621 6.61962 84.5417 6.98827C84.7214 7.35407 84.8074 7.81535 84.7998 8.37212L84.7428 12.5308L83.7372 12.5188L83.7932 8.42832C83.8003 7.91416 83.6722 7.51204 83.4091 7.22195C83.1461 6.92903 82.7816 6.77979 82.3157 6.77424C81.9947 6.77042 81.7069 6.8366 81.4521 6.97278C81.2003 7.109 81 7.30975 80.8515 7.57505C80.703 7.84034 80.6261 8.16331 80.6209 8.54396ZM89.3124 6.03933L89.3008 6.89152L85.909 6.85113L85.9206 5.99894L89.3124 6.03933ZM86.9307 4.44267L87.9363 4.45465L87.8509 10.6927C87.847 10.9768 87.8853 11.1903 87.9657 11.3333C88.049 11.4735 88.1557 11.5685 88.2857 11.6184C88.4186 11.6654 88.5589 11.6898 88.7066 11.6916C88.8174 11.6929 88.9084 11.6883 88.9795 11.6778C89.0507 11.6644 89.1077 11.6538 89.1504 11.6457L89.3426 12.5515C89.2741 12.5763 89.1786 12.6007 89.0561 12.6248C88.9335 12.6518 88.7785 12.6641 88.591 12.6619C88.307 12.6585 88.0294 12.5941 87.7584 12.4687C87.4902 12.3433 87.2683 12.1546 87.0928 11.9025C86.9201 11.6504 86.8363 11.3341 86.8415 10.9534L86.9307 4.44267ZM93.2035 12.7679C92.5728 12.7604 92.0307 12.6148 91.5772 12.3309C91.1265 12.0443 90.7811 11.6481 90.5408 11.1424C90.3034 10.6338 90.1893 10.0444 90.1985 9.37397C90.2077 8.70358 90.3379 8.11418 90.5892 7.60578C90.8434 7.09456 91.1926 6.69812 91.6369 6.41646C92.084 6.132 92.603 5.99328 93.1938 6.00032C93.5347 6.00438 93.8706 6.0652 94.2014 6.18278C94.5322 6.30036 94.8322 6.48861 95.1014 6.74751C95.3706 7.00358 95.5834 7.34136 95.7396 7.76087C95.8958 8.18037 95.9697 8.69549 95.9613 9.30623L95.9555 9.73232L90.9104 9.67224L90.9223 8.80301L94.9448 8.85091C94.9498 8.48162 94.8805 8.15123 94.7367 7.85973C94.5958 7.56825 94.3916 7.33711 94.124 7.1663C93.8593 6.99552 93.5451 6.90797 93.1815 6.90364C92.7809 6.89887 92.433 6.99417 92.1377 7.18953C91.8453 7.38208 91.6188 7.63508 91.4582 7.94853C91.2976 8.26198 91.2149 8.59909 91.21 8.95985L91.202 9.53934C91.1953 10.0336 91.2747 10.4536 91.4405 10.7994C91.6091 11.1423 91.8456 11.4051 92.1499 11.5877C92.4543 11.7675 92.8096 11.8598 93.2158 11.8646C93.48 11.8678 93.7192 11.8337 93.9332 11.7624C94.1502 11.6882 94.3378 11.5768 94.4961 11.4281C94.6544 11.2766 94.7778 11.0877 94.8661 10.8615L95.8339 11.1457C95.7271 11.474 95.5513 11.7617 95.3064 12.0088C95.0615 12.2531 94.7606 12.4427 94.4036 12.5777C94.0467 12.7098 93.6466 12.7732 93.2035 12.7679ZM97.2411 12.6797L97.3307 6.13481L98.3022 6.14638L98.2887 7.13493L98.3569 7.13574C98.4806 6.81333 98.7001 6.55314 99.0153 6.35517C99.3306 6.15721 99.6842 6.06056 100.076 6.06523C100.15 6.06611 100.242 6.06863 100.353 6.07279C100.464 6.07695 100.548 6.08221 100.604 6.08856L100.59 7.1112C100.556 7.10227 100.478 7.08855 100.357 7.07006C100.237 7.04875 100.111 7.0373 99.9777 7.03571C99.6595 7.03192 99.3746 7.0953 99.1228 7.22583C98.8738 7.35356 98.6753 7.53302 98.5273 7.76423C98.3821 7.99263 98.3075 8.25455 98.3034 8.54997L98.2467 12.6916L97.2411 12.6797ZM107.142 6.25166L104.632 12.7677L103.61 12.7555L101.279 6.18183L102.37 6.19482L104.105 11.4318L104.173 11.4326L106.052 6.23867L107.142 6.25166ZM108.176 12.8099L108.266 6.26503L109.271 6.27701L109.182 12.8218L108.176 12.8099ZM108.792 5.18032C108.596 5.17798 108.428 5.10921 108.288 4.97401C108.15 4.83884 108.083 4.67752 108.085 4.49004C108.088 4.30255 108.16 4.14289 108.301 4.01103C108.445 3.87921 108.615 3.81447 108.811 3.81681C109.007 3.81914 109.173 3.88789 109.311 4.02306C109.451 4.15826 109.52 4.3196 109.517 4.50709C109.515 4.69457 109.441 4.85422 109.297 4.98604C109.156 5.11789 108.988 5.18265 108.792 5.18032ZM113.562 13.0104C112.931 13.0029 112.389 12.8572 111.936 12.5734C111.485 12.2867 111.139 11.8906 110.899 11.3848C110.662 10.8763 110.548 10.2868 110.557 9.61641C110.566 8.94602 110.696 8.35662 110.948 7.84821C111.202 7.337 111.551 6.94056 111.995 6.6589C112.442 6.37443 112.961 6.23572 113.552 6.24275C113.893 6.24681 114.229 6.30764 114.56 6.42522C114.891 6.5428 115.191 6.73105 115.46 6.98995C115.729 7.24602 115.942 7.5838 116.098 8.0033C116.254 8.42281 116.328 8.93793 116.32 9.54867L116.314 9.97476L111.269 9.91468L111.281 9.04545L115.303 9.09335C115.308 8.72406 115.239 8.39367 115.095 8.10216C114.954 7.81069 114.75 7.57955 114.482 7.40874C114.218 7.23796 113.903 7.15041 113.54 7.14608C113.139 7.14131 112.791 7.2366 112.496 7.43197C112.204 7.62452 111.977 7.87752 111.817 8.19097C111.656 8.50442 111.573 8.84153 111.568 9.20229L111.56 9.78178C111.554 10.2761 111.633 10.6961 111.799 11.0418C111.967 11.3848 112.204 11.6475 112.508 11.8301C112.813 12.0099 113.168 12.1022 113.574 12.1071C113.838 12.1102 114.077 12.0761 114.292 12.0048C114.508 11.9307 114.696 11.8193 114.854 11.6706C115.013 11.519 115.136 11.3301 115.224 11.1039L116.192 11.3882C116.085 11.7165 115.91 12.0042 115.665 12.2513C115.42 12.4955 115.119 12.6852 114.762 12.8201C114.405 12.9522 114.005 13.0157 113.562 13.0104ZM119.082 12.9398L117.178 6.37116L118.234 6.38375L119.581 11.4115L119.649 11.4123L121.115 6.41805L122.189 6.43084L123.501 11.4411L123.569 11.4419L125.052 6.46494L126.109 6.47752L124.025 12.9986L123.037 12.9868L121.674 7.94185L121.571 7.94064L120.071 12.9515L119.082 12.9398ZM131.798 13.0912L129.894 6.52259L130.951 6.53518L132.297 11.5629L132.365 11.5637L133.831 6.56948L134.905 6.58227L136.217 11.5926L136.285 11.5934L137.768 6.61637L138.825 6.62895L136.741 13.15L135.753 13.1383L134.39 8.09328L134.288 8.09207L132.787 13.103L131.798 13.0912ZM139.861 13.1872L139.95 6.64235L140.956 6.65433L140.866 13.1992L139.861 13.1872ZM140.477 5.55764C140.281 5.5553 140.113 5.48653 139.972 5.35133C139.835 5.21616 139.768 5.05484 139.77 4.86736C139.773 4.67987 139.845 4.52021 139.986 4.38835C140.129 4.25654 140.299 4.19179 140.495 4.19413C140.691 4.19646 140.858 4.26521 140.995 4.40038C141.136 4.53558 141.204 4.69692 141.202 4.88441C141.199 5.07189 141.126 5.23154 140.982 5.36336C140.841 5.49521 140.673 5.55997 140.477 5.55764ZM145.44 6.70773L145.429 7.55992L142.037 7.51953L142.049 6.66734L145.44 6.70773ZM143.059 5.11108L144.064 5.12305L143.979 11.3611C143.975 11.6452 144.013 11.8587 144.094 12.0017C144.177 12.1419 144.284 12.237 144.414 12.2868C144.546 12.3338 144.687 12.3582 144.834 12.36C144.945 12.3613 145.036 12.3567 145.107 12.3462C145.179 12.3328 145.236 12.3222 145.278 12.3141L145.471 13.2199C145.402 13.2447 145.306 13.2691 145.184 13.2932C145.061 13.3202 144.906 13.3325 144.719 13.3303C144.435 13.3269 144.157 13.2625 143.886 13.1371C143.618 13.0118 143.396 12.823 143.221 12.5709C143.048 12.3188 142.964 12.0025 142.969 11.6218L143.059 5.11108ZM147.86 9.34468L147.806 13.2818L146.8 13.2698L146.919 4.54338L147.925 4.55535L147.881 7.7596L147.966 7.76061C148.124 7.4244 148.358 7.1587 148.668 6.96351C148.98 6.76551 149.393 6.66957 149.908 6.6757C150.354 6.68101 150.743 6.77514 151.076 6.95809C151.409 7.1382 151.665 7.41258 151.844 7.78122C152.027 8.14706 152.114 8.6112 152.107 9.17365L152.05 13.3323L151.044 13.3204L151.1 9.22985C151.107 8.71001 150.978 8.30645 150.712 8.01917C150.449 7.72909 150.08 7.58122 149.606 7.57557C149.276 7.57165 148.98 7.63772 148.716 7.7738C148.456 7.90992 148.249 8.11059 148.094 8.37581C147.943 8.64107 147.865 8.96403 147.86 9.34468ZM157.112 4.66475L158.373 4.67977L161.24 11.9587L161.342 11.9599L164.407 4.75163L165.668 4.76665L165.549 13.4931L164.56 13.4813L164.651 6.85127L164.566 6.85025L161.748 13.4478L160.793 13.4365L158.157 6.77394L158.072 6.77292L157.981 13.403L156.993 13.3912L157.112 4.66475ZM169.984 13.6823C169.393 13.6753 168.877 13.5285 168.435 13.2419C167.995 12.9554 167.654 12.5579 167.411 12.0493C167.171 11.5407 167.055 10.9484 167.065 10.2723C167.074 9.59054 167.206 8.9969 167.46 8.49136C167.717 7.98587 168.069 7.59514 168.516 7.3192C168.966 7.04329 169.486 6.90885 170.077 6.91588C170.668 6.92292 171.183 7.06969 171.622 7.35619C172.064 7.64272 172.405 8.0417 172.646 8.55312C172.889 9.06457 173.005 9.66117 172.996 10.3429C172.987 11.019 172.854 11.6084 172.597 12.111C172.343 12.6137 171.991 13.003 171.541 13.2789C171.094 13.5549 170.575 13.6893 169.984 13.6823ZM169.997 12.779C170.445 12.7843 170.816 12.6737 171.109 12.447C171.402 12.2204 171.621 11.9204 171.765 11.5471C171.909 11.1738 171.985 10.7684 171.991 10.331C171.997 9.89349 171.932 9.48503 171.798 9.10557C171.664 8.72611 171.454 8.41818 171.168 8.1818C170.881 7.94542 170.513 7.82455 170.065 7.81921C169.616 7.81386 169.245 7.92593 168.952 8.15541C168.659 8.3849 168.44 8.68771 168.296 9.06386C168.152 9.44001 168.076 9.84681 168.07 10.2843C168.064 10.7217 168.128 11.1288 168.262 11.5054C168.397 11.882 168.607 12.1871 168.893 12.4206C169.18 12.6542 169.548 12.7736 169.997 12.779ZM176.94 13.7651C176.326 13.7578 175.8 13.6067 175.361 13.3116C174.922 13.0166 174.586 12.6134 174.354 12.1021C174.123 11.5908 174.011 11.0085 174.02 10.3551C174.03 9.69042 174.16 9.10528 174.411 8.59971C174.665 8.09134 175.014 7.69632 175.459 7.41466C175.906 7.13019 176.425 6.99148 177.015 6.99851C177.476 7.00399 177.889 7.09415 178.256 7.26899C178.623 7.44382 178.922 7.68604 179.154 7.99564C179.386 8.30523 179.527 8.6649 179.578 9.07463L178.573 9.06265C178.5 8.76347 178.333 8.49726 178.072 8.26402C177.814 8.02798 177.463 7.90732 177.02 7.90204C176.628 7.89737 176.283 7.99554 175.985 8.19655C175.689 8.39475 175.457 8.67751 175.287 9.04483C175.12 9.40935 175.033 9.83874 175.026 10.333C175.02 10.8386 175.093 11.2799 175.247 11.6568C175.404 12.0336 175.627 12.3275 175.917 12.5384C176.209 12.7493 176.555 12.8571 176.952 12.8618C177.214 12.8649 177.451 12.8223 177.666 12.7339C177.88 12.6456 178.062 12.517 178.212 12.3484C178.362 12.1797 178.47 11.9764 178.536 11.7385L179.542 11.7505C179.479 12.1362 179.334 12.4825 179.105 12.7894C178.88 13.0936 178.582 13.3344 178.213 13.5118C177.847 13.6864 177.423 13.7709 176.94 13.7651ZM181.549 4.95576L183.749 8.61289L183.817 8.61371L186.117 5.01016L187.361 5.02497L184.557 9.35552L187.241 13.7514L185.997 13.7366L183.796 10.1477L183.728 10.1468L181.429 13.6822L180.185 13.6674L183.057 9.33766L180.304 4.94094L181.549 4.95576Z" fill="#F7F8F8"/>
</g>
<path d="M362.673 192.273L361.617 192.241C361.564 191.935 361.462 191.665 361.313 191.43C361.167 191.195 360.985 190.997 360.768 190.834C360.555 190.668 360.315 190.541 360.051 190.454C359.786 190.366 359.509 190.318 359.22 190.309C358.691 190.293 358.209 190.412 357.772 190.666C357.338 190.92 356.987 191.303 356.718 191.815C356.453 192.327 356.309 192.961 356.286 193.716C356.263 194.472 356.368 195.113 356.603 195.64C356.84 196.167 357.167 196.571 357.585 196.851C358.006 197.131 358.48 197.279 359.008 197.295C359.298 197.303 359.577 197.272 359.847 197.201C360.116 197.129 360.362 197.019 360.586 196.869C360.812 196.717 361.005 196.528 361.166 196.303C361.329 196.075 361.446 195.811 361.518 195.512L362.574 195.544C362.481 195.987 362.324 196.382 362.103 196.728C361.883 197.073 361.612 197.365 361.292 197.603C360.973 197.837 360.616 198.013 360.223 198.129C359.833 198.245 359.418 198.296 358.978 198.283C358.234 198.26 357.578 198.059 357.01 197.678C356.442 197.297 356.001 196.766 355.689 196.086C355.378 195.406 355.236 194.605 355.263 193.685C355.291 192.765 355.481 191.975 355.834 191.315C356.186 190.655 356.658 190.152 357.248 189.806C357.838 189.46 358.506 189.299 359.25 189.321C359.69 189.334 360.101 189.411 360.483 189.55C360.868 189.69 361.213 189.888 361.518 190.144C361.823 190.398 362.075 190.704 362.275 191.063C362.475 191.418 362.607 191.822 362.673 192.273ZM366.512 198.528C365.921 198.51 365.407 198.354 364.97 198.059C364.536 197.765 364.201 197.361 363.967 196.848C363.735 196.335 363.629 195.741 363.65 195.065C363.67 194.383 363.812 193.792 364.074 193.291C364.34 192.791 364.698 192.406 365.149 192.139C365.604 191.871 366.126 191.746 366.717 191.764C367.308 191.782 367.82 191.938 368.255 192.233C368.692 192.527 369.026 192.933 369.258 193.448C369.492 193.964 369.599 194.563 369.579 195.244C369.558 195.92 369.415 196.507 369.15 197.005C368.888 197.503 368.53 197.886 368.075 198.153C367.624 198.421 367.103 198.546 366.512 198.528ZM366.539 197.625C366.988 197.639 367.361 197.535 367.657 197.314C367.954 197.092 368.177 196.796 368.328 196.426C368.478 196.055 368.56 195.651 368.574 195.214C368.587 194.777 368.53 194.367 368.402 193.985C368.274 193.603 368.069 193.292 367.786 193.05C367.504 192.808 367.138 192.681 366.69 192.667C366.241 192.654 365.868 192.759 365.572 192.983C365.275 193.207 365.051 193.506 364.901 193.879C364.75 194.253 364.668 194.658 364.655 195.095C364.642 195.533 364.699 195.941 364.827 196.32C364.954 196.699 365.16 197.008 365.442 197.247C365.725 197.485 366.091 197.611 366.539 197.625ZM375.015 195.972L375.133 192.104L376.138 192.135L375.94 198.677L374.934 198.647L374.968 197.539L374.9 197.537C374.736 197.865 374.489 198.14 374.159 198.363C373.828 198.583 373.415 198.686 372.921 198.671C372.512 198.659 372.152 198.558 371.839 198.37C371.527 198.178 371.285 197.898 371.114 197.529C370.944 197.157 370.867 196.693 370.884 196.137L371.009 191.979L372.015 192.01L371.891 196.099C371.876 196.576 371.998 196.96 372.257 197.253C372.518 197.545 372.857 197.697 373.274 197.71C373.524 197.717 373.78 197.661 374.043 197.541C374.308 197.421 374.532 197.232 374.716 196.973C374.903 196.714 375.003 196.381 375.015 195.972ZM377.577 198.727L377.775 192.184L378.746 192.214L378.716 193.202L378.784 193.204C378.913 192.884 379.137 192.628 379.456 192.436C379.774 192.243 380.129 192.153 380.521 192.165C380.595 192.167 380.687 192.172 380.798 192.178C380.909 192.184 380.992 192.191 381.049 192.198L381.018 193.22C380.984 193.211 380.906 193.196 380.785 193.175C380.666 193.151 380.54 193.138 380.407 193.134C380.088 193.124 379.803 193.182 379.549 193.308C379.298 193.431 379.096 193.607 378.944 193.835C378.795 194.061 378.716 194.322 378.707 194.617L378.582 198.757L377.577 198.727ZM386.624 193.919L385.713 194.147C385.661 193.995 385.581 193.846 385.475 193.701C385.371 193.553 385.227 193.429 385.043 193.33C384.858 193.23 384.62 193.176 384.327 193.167C383.927 193.155 383.59 193.237 383.318 193.414C383.048 193.587 382.909 193.815 382.901 194.096C382.893 194.346 382.978 194.546 383.155 194.696C383.333 194.847 383.613 194.976 383.996 195.084L384.96 195.352C385.541 195.512 385.97 195.742 386.248 196.043C386.526 196.342 386.658 196.719 386.644 197.177C386.633 197.551 386.515 197.883 386.29 198.172C386.068 198.461 385.763 198.685 385.375 198.843C384.986 199.002 384.538 199.074 384.029 199.059C383.362 199.038 382.814 198.877 382.386 198.574C381.957 198.271 381.693 197.84 381.594 197.279L382.555 197.07C382.635 197.425 382.799 197.694 383.046 197.878C383.297 198.061 383.628 198.16 384.039 198.172C384.508 198.186 384.883 198.098 385.164 197.908C385.449 197.715 385.595 197.477 385.604 197.196C385.61 196.969 385.537 196.776 385.382 196.618C385.228 196.457 384.987 196.333 384.66 196.247L383.578 195.958C382.983 195.798 382.549 195.565 382.277 195.258C382.008 194.949 381.88 194.568 381.894 194.117C381.905 193.748 382.019 193.424 382.235 193.146C382.453 192.869 382.745 192.655 383.111 192.504C383.479 192.353 383.894 192.284 384.354 192.298C385.001 192.318 385.505 192.475 385.866 192.77C386.229 193.066 386.482 193.448 386.624 193.919ZM390.637 199.259C390.007 199.24 389.467 199.084 389.019 198.792C388.573 198.497 388.234 198.094 388.002 197.584C387.773 197.072 387.669 196.48 387.689 195.81C387.71 195.14 387.85 194.553 388.109 194.049C388.372 193.543 388.728 193.153 389.176 192.879C389.628 192.603 390.149 192.474 390.74 192.492C391.081 192.502 391.416 192.569 391.744 192.693C392.073 192.816 392.37 193.01 392.635 193.274C392.9 193.535 393.107 193.876 393.256 194.299C393.405 194.721 393.471 195.237 393.452 195.848L393.439 196.274L388.396 196.121L388.422 195.252L392.443 195.374C392.454 195.005 392.391 194.673 392.252 194.379C392.116 194.085 391.915 193.85 391.651 193.675C391.389 193.499 391.076 193.406 390.713 193.395C390.312 193.383 389.963 193.471 389.664 193.661C389.369 193.848 389.138 194.097 388.972 194.408C388.807 194.718 388.718 195.054 388.707 195.414L388.69 195.994C388.675 196.488 388.747 196.909 388.907 197.258C389.07 197.604 389.302 197.871 389.604 198.059C389.905 198.245 390.259 198.343 390.665 198.356C390.929 198.364 391.168 198.334 391.384 198.267C391.602 198.196 391.791 198.089 391.952 197.943C392.113 197.794 392.239 197.608 392.331 197.383L393.294 197.685C393.182 198.011 393.001 198.296 392.753 198.538C392.504 198.778 392.2 198.962 391.84 199.09C391.481 199.216 391.08 199.272 390.637 199.259ZM405.183 193.56L404.126 193.528C404.073 193.222 403.972 192.952 403.823 192.717C403.676 192.483 403.495 192.284 403.278 192.121C403.064 191.955 402.825 191.829 402.56 191.741C402.296 191.654 402.019 191.605 401.729 191.597C401.201 191.581 400.719 191.7 400.282 191.954C399.848 192.208 399.496 192.591 399.228 193.103C398.962 193.615 398.818 194.248 398.795 195.004C398.772 195.759 398.878 196.4 399.112 196.927C399.349 197.455 399.677 197.858 400.094 198.138C400.515 198.418 400.989 198.566 401.518 198.582C401.807 198.591 402.087 198.559 402.356 198.488C402.625 198.417 402.872 198.306 403.095 198.157C403.321 198.004 403.515 197.815 403.675 197.59C403.838 197.362 403.956 197.098 404.027 196.799L405.084 196.831C404.991 197.275 404.834 197.669 404.613 198.015C404.392 198.361 404.122 198.652 403.802 198.89C403.482 199.125 403.126 199.3 402.733 199.416C402.343 199.532 401.928 199.584 401.488 199.57C400.744 199.548 400.088 199.346 399.519 198.965C398.951 198.584 398.511 198.053 398.199 197.373C397.887 196.693 397.745 195.893 397.773 194.973C397.801 194.053 397.991 193.263 398.344 192.603C398.696 191.942 399.167 191.439 399.758 191.093C400.348 190.748 401.015 190.586 401.759 190.608C402.199 190.622 402.61 190.698 402.993 190.838C403.378 190.977 403.723 191.175 404.028 191.432C404.333 191.685 404.585 191.991 404.785 192.35C404.984 192.706 405.117 193.109 405.183 193.56ZM409.107 199.818C408.476 199.799 407.937 199.643 407.488 199.351C407.042 199.056 406.703 198.654 406.472 198.144C406.243 197.631 406.138 197.039 406.159 196.369C406.179 195.699 406.319 195.112 406.579 194.608C406.841 194.102 407.197 193.712 407.646 193.438C408.098 193.162 408.619 193.033 409.209 193.051C409.55 193.061 409.885 193.128 410.214 193.252C410.543 193.376 410.839 193.569 411.104 193.833C411.369 194.094 411.576 194.436 411.725 194.858C411.875 195.28 411.94 195.797 411.922 196.407L411.909 196.833L406.865 196.681L406.892 195.812L410.913 195.933C410.924 195.564 410.86 195.233 410.721 194.938C410.585 194.644 410.385 194.41 410.12 194.234C409.858 194.058 409.546 193.965 409.182 193.954C408.782 193.942 408.432 194.031 408.134 194.221C407.838 194.408 407.607 194.657 407.442 194.967C407.276 195.278 407.188 195.613 407.177 195.974L407.159 196.553C407.144 197.047 407.217 197.469 407.377 197.817C407.54 198.163 407.772 198.43 408.073 198.619C408.374 198.804 408.728 198.903 409.134 198.915C409.398 198.923 409.638 198.893 409.853 198.826C410.071 198.756 410.261 198.648 410.421 198.502C410.582 198.353 410.709 198.167 410.801 197.942L411.764 198.244C411.651 198.571 411.471 198.855 411.222 199.098C410.973 199.337 410.669 199.521 410.31 199.65C409.951 199.775 409.55 199.831 409.107 199.818ZM413.145 199.804L413.343 193.261L414.314 193.291L414.284 194.279L414.353 194.281C414.482 193.961 414.705 193.705 415.024 193.513C415.342 193.321 415.698 193.23 416.089 193.242C416.163 193.244 416.255 193.249 416.366 193.255C416.477 193.261 416.56 193.268 416.617 193.275L416.586 194.298C416.552 194.288 416.475 194.273 416.353 194.252C416.234 194.229 416.108 194.215 415.975 194.211C415.657 194.201 415.371 194.259 415.117 194.385C414.866 194.508 414.664 194.684 414.513 194.913C414.364 195.138 414.285 195.399 414.276 195.694L414.15 199.834L413.145 199.804ZM420.857 193.489L420.832 194.341L417.441 194.238L417.467 193.386L420.857 193.489ZM418.503 191.849L419.508 191.879L419.319 198.115C419.31 198.399 419.345 198.613 419.423 198.758C419.504 198.899 419.609 198.996 419.738 199.049C419.87 199.098 420.01 199.125 420.158 199.129C420.269 199.133 420.36 199.13 420.431 199.121C420.502 199.109 420.56 199.099 420.602 199.092L420.78 200.001C420.711 200.024 420.615 200.047 420.492 200.069C420.369 200.094 420.214 200.103 420.026 200.098C419.742 200.089 419.466 200.019 419.197 199.889C418.931 199.759 418.712 199.566 418.541 199.311C418.372 199.055 418.294 198.738 418.305 198.357L418.503 191.849ZM421.967 200.071L422.166 193.529L423.171 193.559L422.973 200.101L421.967 200.071ZM422.71 192.454C422.514 192.448 422.347 192.376 422.209 192.238C422.074 192.1 422.009 191.938 422.015 191.75C422.02 191.563 422.095 191.405 422.238 191.275C422.384 191.146 422.555 191.085 422.751 191.091C422.947 191.097 423.112 191.168 423.248 191.306C423.385 191.444 423.452 191.606 423.446 191.794C423.44 191.981 423.364 192.14 423.218 192.269C423.075 192.398 422.906 192.46 422.71 192.454ZM427.721 193.697L427.696 194.549L424.169 194.442L424.195 193.59L427.721 193.697ZM425.053 200.164L425.278 192.719C425.29 192.344 425.387 192.034 425.571 191.79C425.754 191.545 425.989 191.365 426.274 191.248C426.559 191.132 426.857 191.079 427.169 191.088C427.417 191.095 427.618 191.121 427.773 191.166C427.927 191.21 428.043 191.251 428.118 191.287L427.802 192.147C427.752 192.129 427.682 192.105 427.591 192.077C427.504 192.049 427.388 192.033 427.243 192.028C426.911 192.018 426.669 192.095 426.516 192.258C426.366 192.421 426.286 192.664 426.276 192.988L426.058 200.195L425.053 200.164ZM428.728 200.276L428.926 193.733L429.932 193.764L429.733 200.306L428.728 200.276ZM429.471 192.658C429.275 192.652 429.108 192.581 428.97 192.443C428.835 192.305 428.77 192.143 428.776 191.955C428.781 191.768 428.856 191.609 428.999 191.48C429.145 191.351 429.316 191.289 429.512 191.295C429.708 191.301 429.873 191.373 430.008 191.511C430.146 191.649 430.212 191.811 430.207 191.999C430.201 192.186 430.125 192.344 429.979 192.473C429.836 192.603 429.666 192.664 429.471 192.658ZM434.024 200.573C433.411 200.554 432.887 200.393 432.453 200.09C432.019 199.787 431.69 199.378 431.467 198.862C431.244 198.347 431.142 197.762 431.162 197.109C431.182 196.445 431.322 195.862 431.582 195.361C431.844 194.858 432.2 194.469 432.649 194.196C433.1 193.919 433.622 193.79 434.212 193.808C434.672 193.822 435.084 193.92 435.448 194.101C435.812 194.283 436.107 194.531 436.334 194.844C436.56 195.158 436.696 195.52 436.74 195.931L435.735 195.901C435.667 195.6 435.505 195.331 435.248 195.093C434.993 194.852 434.645 194.725 434.202 194.712C433.81 194.7 433.463 194.792 433.162 194.987C432.863 195.18 432.626 195.458 432.45 195.822C432.277 196.184 432.183 196.612 432.168 197.106C432.153 197.611 432.219 198.054 432.367 198.433C432.517 198.813 432.736 199.111 433.022 199.327C433.311 199.543 433.654 199.658 434.052 199.67C434.313 199.677 434.551 199.639 434.767 199.555C434.983 199.47 435.167 199.345 435.32 199.179C435.473 199.013 435.584 198.812 435.654 198.576L436.659 198.606C436.591 198.99 436.439 199.334 436.206 199.637C435.975 199.937 435.674 200.172 435.302 200.343C434.933 200.511 434.507 200.587 434.024 200.573ZM439.787 200.764C439.373 200.752 438.999 200.662 438.666 200.496C438.333 200.326 438.071 200.09 437.882 199.786C437.692 199.479 437.603 199.112 437.616 198.686C437.628 198.311 437.711 198.01 437.865 197.781C438.02 197.55 438.223 197.371 438.474 197.246C438.725 197.12 439.001 197.028 439.301 196.972C439.604 196.913 439.908 196.868 440.213 196.838C440.612 196.799 440.936 196.77 441.184 196.752C441.434 196.731 441.618 196.69 441.733 196.628C441.852 196.566 441.913 196.454 441.918 196.293L441.919 196.258C441.932 195.838 441.827 195.508 441.604 195.268C441.384 195.029 441.042 194.902 440.579 194.888C440.099 194.873 439.72 194.967 439.441 195.169C439.162 195.371 438.964 195.589 438.846 195.824L437.902 195.455C438.084 195.062 438.321 194.76 438.611 194.547C438.905 194.331 439.222 194.184 439.563 194.107C439.906 194.026 440.243 193.991 440.572 194.001C440.782 194.007 441.023 194.04 441.294 194.099C441.568 194.156 441.83 194.265 442.081 194.426C442.335 194.587 442.542 194.825 442.703 195.14C442.864 195.454 442.937 195.871 442.921 196.391L442.791 200.702L441.785 200.671L441.812 199.785L441.761 199.784C441.689 199.924 441.571 200.072 441.407 200.229C441.243 200.386 441.027 200.517 440.759 200.623C440.492 200.729 440.168 200.776 439.787 200.764ZM439.968 199.866C440.366 199.878 440.703 199.81 440.98 199.662C441.261 199.514 441.474 199.319 441.621 199.076C441.77 198.833 441.849 198.576 441.857 198.303L441.885 197.383C441.841 197.433 441.746 197.477 441.6 197.515C441.456 197.55 441.291 197.581 441.102 197.606C440.917 197.629 440.736 197.649 440.559 197.667C440.385 197.681 440.244 197.694 440.136 197.705C439.874 197.731 439.628 197.779 439.398 197.849C439.172 197.916 438.987 198.023 438.843 198.169C438.702 198.313 438.628 198.512 438.62 198.768C438.609 199.117 438.731 199.385 438.984 199.572C439.24 199.756 439.568 199.854 439.968 199.866ZM447.465 194.295L447.439 195.147L444.049 195.044L444.074 194.192L447.465 194.295ZM445.11 192.655L446.115 192.685L445.926 198.921C445.918 199.205 445.953 199.419 446.031 199.563C446.112 199.705 446.217 199.802 446.346 199.854C446.478 199.904 446.618 199.931 446.765 199.935C446.876 199.939 446.967 199.936 447.039 199.926C447.11 199.914 447.167 199.905 447.21 199.898L447.387 200.807C447.318 200.83 447.222 200.853 447.099 200.875C446.976 200.899 446.821 200.909 446.634 200.903C446.35 200.895 446.073 200.825 445.805 200.695C445.538 200.565 445.32 200.372 445.148 200.116C444.98 199.861 444.901 199.543 444.913 199.163L445.11 192.655ZM448.575 200.877L448.773 194.334L449.778 194.365L449.58 200.907L448.575 200.877ZM449.317 193.259C449.121 193.253 448.954 193.182 448.816 193.044C448.681 192.906 448.617 192.744 448.622 192.556C448.628 192.369 448.702 192.21 448.846 192.081C448.992 191.952 449.163 191.89 449.359 191.896C449.554 191.902 449.72 191.974 449.855 192.112C449.993 192.25 450.059 192.412 450.053 192.6C450.048 192.787 449.972 192.945 449.826 193.074C449.683 193.204 449.513 193.265 449.317 193.259ZM453.871 201.174C453.281 201.156 452.767 200.999 452.329 200.705C451.895 200.41 451.56 200.007 451.326 199.494C451.094 198.981 450.988 198.386 451.009 197.71C451.029 197.029 451.171 196.438 451.433 195.937C451.699 195.436 452.057 195.052 452.509 194.784C452.963 194.517 453.485 194.392 454.076 194.41C454.667 194.428 455.179 194.584 455.614 194.878C456.051 195.173 456.385 195.578 456.617 196.094C456.852 196.61 456.959 197.208 456.938 197.89C456.917 198.566 456.775 199.153 456.509 199.65C456.247 200.148 455.889 200.531 455.434 200.799C454.983 201.067 454.462 201.191 453.871 201.174ZM453.899 200.271C454.347 200.284 454.72 200.18 455.016 199.959C455.313 199.738 455.537 199.442 455.687 199.071C455.838 198.701 455.919 198.297 455.933 197.859C455.946 197.422 455.889 197.013 455.761 196.631C455.633 196.249 455.428 195.937 455.146 195.695C454.863 195.454 454.497 195.326 454.049 195.313C453.6 195.299 453.227 195.404 452.931 195.628C452.634 195.852 452.41 196.151 452.26 196.525C452.109 196.898 452.027 197.304 452.014 197.741C452.001 198.178 452.058 198.586 452.186 198.965C452.314 199.344 452.519 199.653 452.802 199.892C453.084 200.131 453.45 200.257 453.899 200.271ZM459.295 197.262L459.176 201.198L458.17 201.167L458.369 194.625L459.34 194.654L459.309 195.677L459.394 195.679C459.557 195.352 459.798 195.092 460.117 194.9C460.435 194.705 460.842 194.615 461.336 194.63C461.779 194.643 462.164 194.746 462.49 194.937C462.817 195.126 463.067 195.407 463.241 195.779C463.414 196.148 463.493 196.61 463.476 197.167L463.35 201.324L462.345 201.294L462.468 197.205C462.484 196.691 462.363 196.286 462.104 195.991C461.846 195.694 461.484 195.538 461.019 195.524C460.698 195.514 460.409 195.575 460.152 195.706C459.898 195.838 459.694 196.035 459.541 196.298C459.389 196.56 459.306 196.882 459.295 197.262Z" fill="#F7F8F8"/>
<ellipse cx="7.52717" cy="7.59233" rx="7.52717" ry="7.59233" transform="matrix(0.99958 0.0290127 -0.0315807 0.999502 637.812 436.22)" fill="white"/>
<path d="M644.138 474.381L644.857 451.616" stroke="white" stroke-width="2" stroke-linecap="round"/>
<ellipse cx="7.52717" cy="7.59233" rx="7.52717" ry="7.59233" transform="matrix(0.99958 0.0290127 -0.0315807 0.999502 398.705 206.279)" fill="white"/>
<path d="M405.031 243.441L405.75 220.675" stroke="white" stroke-width="2" stroke-linecap="round"/>
<ellipse cx="7.52717" cy="7.59233" rx="7.52717" ry="7.59233" transform="matrix(0.99958 0.0290127 -0.0315807 0.999502 249.467 140.406)" fill="white"/>
<ellipse cx="7.52717" cy="7.59233" rx="7.52717" ry="7.59233" transform="matrix(0.99958 0.0290127 -0.0315807 0.999502 105.311 24.0864)" fill="white"/>
<path d="M111.636 62.2471L112.355 39.4814" stroke="white" stroke-width="2" stroke-linecap="round"/>
<path d="M49.8895 24.3833L121.742 70.0181C129.124 74.7063 128.69 82.5935 120.764 87.7896L111.964 93.5585C104.807 98.2499 103.52 105.206 108.895 110.134V110.134C115.95 116.601 131.214 116.862 140.558 110.675L175.62 87.4604C182.241 83.0763 192.778 82.5698 199.257 86.3242V86.3242C205.797 90.1139 205.739 96.8123 199.128 101.28L181.763 113.016C172.753 119.105 172.401 128.193 180.967 133.585L252.613 178.679L324.529 223.78C331.971 228.447 331.572 236.354 323.632 241.56L314.881 247.297C307.725 251.988 306.437 258.944 311.813 263.872V263.872C318.868 270.339 334.132 270.6 343.475 264.413L378.537 241.198C385.159 236.814 395.695 236.308 402.175 240.062V240.062C408.715 243.852 408.657 250.55 402.046 255.018L384.68 266.754C375.67 272.843 375.319 281.931 383.884 287.323L412.034 305.04L455.53 332.417M455.531 332.417L527.602 377.615C534.955 382.226 534.493 390.091 526.565 395.288L517.976 400.919C510.723 405.673 509.377 412.702 514.771 417.646C521.815 424.102 537.1 424.306 546.521 418.068L581.346 395.01C588.032 390.583 598.605 390.041 605.078 393.791C611.625 397.585 611.51 404.335 604.821 408.855L587.605 420.49C578.597 426.577 578.174 435.629 586.648 440.963L614.955 458.78L658.452 486.157" stroke="url(#paint0_linear_1014_2898)" stroke-width="11"/>
<path d="M528.113 378.158C535.506 382.787 535.09 390.655 527.177 395.837L518.605 401.451C511.366 406.192 510.058 413.22 515.491 418.179C522.586 424.654 537.9 424.892 547.303 418.672L582.059 395.681C588.731 391.268 599.321 390.748 605.828 394.515C612.409 398.325 612.333 405.077 605.658 409.585L588.477 421.187C579.488 427.257 579.117 436.312 587.638 441.667L616.102 459.555L659.839 487.042" stroke="url(#paint1_linear_1014_2898)" stroke-width="12"/>
<path d="M255.792 178.567L256.512 155.802" stroke="white" stroke-width="2" stroke-linecap="round"/>
<defs>
<filter id="filter0_d_1014_2898" x="612.285" y="418.471" width="109.455" height="16.1846" filterUnits="userSpaceOnUse" color-interpolation-filters="sRGB">
<feFlood flood-opacity="0" result="BackgroundImageFix"/>
<feColorMatrix in="SourceAlpha" type="matrix" values="0 0 0 0 0 0 0 0 0 0 0 0 0 0 0 0 0 0 127 0" result="hardAlpha"/>
<feOffset dx="6" dy="4"/>
<feGaussianBlur stdDeviation="1"/>
<feComposite in2="hardAlpha" operator="out"/>
<feColorMatrix type="matrix" values="0 0 0 0 0 0 0 0 0 0 0 0 0 0 0 0 0 0 0.25 0"/>
<feBlend mode="normal" in2="BackgroundImageFix" result="effect1_dropShadow_1014_2898"/>
<feBlend mode="normal" in="SourceGraphic" in2="effect1_dropShadow_1014_2898" result="shape"/>
</filter>
<filter id="filter1_d_1014_2898" x="41.0469" y="3.01123" width="154.318" height="16.8936" filterUnits="userSpaceOnUse" color-interpolation-filters="sRGB">
<feFlood flood-opacity="0" result="BackgroundImageFix"/>
<feColorMatrix in="SourceAlpha" type="matrix" values="0 0 0 0 0 0 0 0 0 0 0 0 0 0 0 0 0 0 127 0" result="hardAlpha"/>
<feOffset dx="6" dy="4"/>
<feGaussianBlur stdDeviation="1"/>
<feComposite in2="hardAlpha" operator="out"/>
<feColorMatrix type="matrix" values="0 0 0 0 0 0 0 0 0 0 0 0 0 0 0 0 0 0 0.25 0"/>
<feBlend mode="normal" in2="BackgroundImageFix" result="effect1_dropShadow_1014_2898"/>
<feBlend mode="normal" in="SourceGraphic" in2="effect1_dropShadow_1014_2898" result="shape"/>
</filter>
<linearGradient id="paint0_linear_1014_2898" x1="-7.12342" y1="67.6321" x2="437.503" y2="653.764" gradientUnits="userSpaceOnUse">
<stop stop-color="#00BEFF" stop-opacity="0"/>
<stop offset="0.167532" stop-color="#00BEFF"/>
<stop offset="0.802092" stop-color="#00BEFF"/>
<stop offset="1" stop-color="#00BEFF" stop-opacity="0"/>
</linearGradient>
<linearGradient id="paint1_linear_1014_2898" x1="482.841" y1="353.41" x2="573.863" y2="534.327" gradientUnits="userSpaceOnUse">
<stop offset="0.14196" stop-color="#71B37F" stop-opacity="0"/>
<stop offset="0.339067" stop-color="#71B37F"/>
<stop offset="0.992805" stop-color="#71B37F" stop-opacity="0"/>
</linearGradient>
</defs>
</svg>
